<ttFont>
<head>
    <!-- Most of this table will be recalculated by the compiler -->
    <tableVersion value="1.0"/>
    <fontRevision value="0.79999"/>
    <checkSumAdjustment value="0xef1510ce"/>
    <magicNumber value="0x5f0f3cf5"/>
    <flags value="00000000 00001011"/>
    <unitsPerEm value="1024"/>
    <created value="Sat May  3 09:54:15 2014"/>
    <modified value="Sat May  3 10:10:08 2014"/>
    <xMin value="-396"/>
    <yMin value="-269"/>
    <xMax value="1003"/>
    <yMax value="966"/>
    <macStyle value="00000000 00000010"/>
    <lowestRecPPEM value="8"/>
    <fontDirectionHint value="2"/>
    <indexToLocFormat value="1"/>
    <glyphDataFormat value="0"/>
  </head>
    <TTGlyph name=".notdef" xMin="34" yMin="0" xMax="306" yMax="682">
      <contour>
        <pt x="34" y="0" on="1"/>
        <pt x="34" y="682" on="1"/>
        <pt x="306" y="682" on="1"/>
        <pt x="306" y="0" on="1"/>
      </contour>
      <contour>
        <pt x="68" y="34" on="1"/>
        <pt x="272" y="34" on="1"/>
        <pt x="272" y="648" on="1"/>
        <pt x="68" y="648" on="1"/>
      </contour>
    </TTGlyph>
    <TTGlyph name="A" xMin="-55" yMin="-3" xMax="552" yMax="663">
      <contour>
        <pt x="341" y="26" on="1"/>
        <pt x="398" y="26" on="0"/>
        <pt x="398" y="57" on="1"/>
        <pt x="398" y="87" on="0"/>
        <pt x="395" y="106" on="1"/>
        <pt x="373" y="256" on="1"/>
        <pt x="174" y="256" on="1"/>
        <pt x="126" y="169" on="0"/>
        <pt x="103" y="125" on="1"/>
        <pt x="74" y="69" on="0"/>
        <pt x="74" y="50" on="1"/>
        <pt x="74" y="37" on="0"/>
        <pt x="120" y="26" on="0"/>
        <pt x="136" y="26" on="1"/>
        <pt x="137" y="24" on="0"/>
        <pt x="134" y="2" on="0"/>
        <pt x="132" y="-3" on="1"/>
        <pt x="119" y="-2" on="0"/>
        <pt x="88" y="0" on="0"/>
        <pt x="61" y="2" on="0"/>
        <pt x="43" y="2" on="1"/>
        <pt x="24" y="2" on="0"/>
        <pt x="-5" y="0" on="0"/>
        <pt x="-39" y="-2" on="0"/>
        <pt x="-55" y="-3" on="1"/>
        <pt x="-56" y="-1" on="0"/>
        <pt x="-52" y="21" on="0"/>
        <pt x="-49" y="26" on="1"/>
        <pt x="-38" y="26" on="0"/>
        <pt x="0" y="36" on="0"/>
        <pt x="8" y="45" on="1"/>
        <pt x="33" y="72" on="0"/>
        <pt x="70" y="139" on="1"/>
        <pt x="346" y="634" on="1"/>
        <pt x="352" y="645" on="0"/>
        <pt x="379" y="663" on="0"/>
        <pt x="386" y="663" on="1"/>
        <pt x="388" y="663" on="0"/>
        <pt x="391" y="660" on="1"/>
        <pt x="477" y="126" on="1"/>
        <pt x="479" y="112" on="0"/>
        <pt x="485" y="76" on="0"/>
        <pt x="488" y="60" on="0"/>
        <pt x="488" y="58" on="1"/>
        <pt x="491" y="45" on="0"/>
        <pt x="521" y="29" on="0"/>
        <pt x="543" y="26" on="0"/>
        <pt x="551" y="26" on="1"/>
        <pt x="553" y="20" on="0"/>
        <pt x="550" y="0" on="0"/>
        <pt x="548" y="-3" on="1"/>
        <pt x="456" y="2" on="0"/>
        <pt x="439" y="2" on="1"/>
        <pt x="420" y="2" on="0"/>
        <pt x="389" y="0" on="0"/>
        <pt x="351" y="-2" on="0"/>
        <pt x="335" y="-3" on="1"/>
        <pt x="332" y="1" on="0"/>
        <pt x="336" y="22" on="0"/>
      </contour>
      <contour>
        <pt x="192" y="289" on="1"/>
        <pt x="367" y="289" on="1"/>
        <pt x="329" y="535" on="1"/>
      </contour>
    </TTGlyph>
    <TTGlyph name="AE" xMin="-60" yMin="-4" xMax="780" yMax="664">
      <contour>
        <pt x="388" y="307" on="1"/>
        <pt x="243" y="307" on="1"/>
        <pt x="122" y="131" on="1"/>
        <pt x="77" y="67" on="0"/>
        <pt x="77" y="50" on="1"/>
        <pt x="77" y="40" on="0"/>
        <pt x="122" y="24" on="0"/>
        <pt x="134" y="24" on="1"/>
        <pt x="134" y="23" on="0"/>
        <pt x="134" y="13" on="0"/>
        <pt x="132" y="-1" on="0"/>
        <pt x="131" y="-3" on="1"/>
        <pt x="38" y="2" on="0"/>
        <pt x="37" y="2" on="1"/>
        <pt x="18" y="2" on="0"/>
        <pt x="-10" y="0" on="0"/>
        <pt x="-43" y="-2" on="0"/>
        <pt x="-59" y="-3" on="1"/>
        <pt x="-60" y="-2" on="0"/>
        <pt x="-59" y="24" on="0"/>
        <pt x="-56" y="24" on="1"/>
        <pt x="-45" y="24" on="0"/>
        <pt x="-1" y="36" on="0"/>
        <pt x="8" y="45" on="1"/>
        <pt x="47" y="80" on="0"/>
        <pt x="87" y="139" on="1"/>
        <pt x="395" y="586" on="1"/>
        <pt x="400" y="596" on="0"/>
        <pt x="400" y="601" on="1"/>
        <pt x="400" y="625" on="0"/>
        <pt x="370" y="625" on="1"/>
        <pt x="367" y="628" on="0"/>
        <pt x="368" y="651" on="0"/>
        <pt x="370" y="656" on="1"/>
        <pt x="468" y="657" on="1"/>
        <pt x="510" y="657" on="0"/>
        <pt x="712" y="664" on="0"/>
        <pt x="764" y="664" on="1"/>
        <pt x="764" y="663" on="0"/>
        <pt x="776" y="528" on="1"/>
        <pt x="771" y="523" on="0"/>
        <pt x="758" y="523" on="1"/>
        <pt x="746" y="523" on="0"/>
        <pt x="746" y="530" on="1"/>
        <pt x="738" y="586" on="0"/>
        <pt x="690" y="630" on="0"/>
        <pt x="650" y="630" on="1"/>
        <pt x="570" y="630" on="1"/>
        <pt x="509" y="630" on="0"/>
        <pt x="505" y="619" on="1"/>
        <pt x="497" y="601" on="0"/>
        <pt x="491" y="547" on="1"/>
        <pt x="470" y="347" on="1"/>
        <pt x="470" y="345" on="0"/>
        <pt x="476" y="343" on="0"/>
        <pt x="488" y="341" on="0"/>
        <pt x="501" y="341" on="0"/>
        <pt x="509" y="341" on="1"/>
        <pt x="558" y="341" on="1"/>
        <pt x="620" y="341" on="0"/>
        <pt x="650" y="360" on="0"/>
        <pt x="666" y="405" on="1"/>
        <pt x="668" y="410" on="0"/>
        <pt x="669" y="413" on="1"/>
        <pt x="672" y="420" on="0"/>
        <pt x="684" y="420" on="1"/>
        <pt x="695" y="420" on="0"/>
        <pt x="698" y="415" on="1"/>
        <pt x="678" y="226" on="1"/>
        <pt x="674" y="222" on="0"/>
        <pt x="662" y="222" on="1"/>
        <pt x="651" y="222" on="0"/>
        <pt x="649" y="230" on="1"/>
        <pt x="640" y="291" on="0"/>
        <pt x="630" y="300" on="1"/>
        <pt x="619" y="308" on="0"/>
        <pt x="532" y="308" on="1"/>
        <pt x="466" y="308" on="0"/>
        <pt x="465" y="299" on="1"/>
        <pt x="446" y="109" on="1"/>
        <pt x="442" y="43" on="0"/>
        <pt x="445" y="40" on="1"/>
        <pt x="456" y="30" on="0"/>
        <pt x="510" y="30" on="1"/>
        <pt x="554" y="30" on="1"/>
        <pt x="629" y="30" on="0"/>
        <pt x="673" y="61" on="1"/>
        <pt x="714" y="90" on="0"/>
        <pt x="743" y="162" on="1"/>
        <pt x="746" y="168" on="0"/>
        <pt x="757" y="168" on="1"/>
        <pt x="776" y="168" on="0"/>
        <pt x="780" y="162" on="1"/>
        <pt x="775" y="151" on="0"/>
        <pt x="736" y="68" on="0"/>
        <pt x="715" y="16" on="0"/>
        <pt x="710" y="-4" on="1"/>
        <pt x="662" y="-4" on="0"/>
        <pt x="458" y="0" on="0"/>
        <pt x="394" y="0" on="1"/>
        <pt x="270" y="-3" on="1"/>
        <pt x="268" y="1" on="0"/>
        <pt x="273" y="30" on="0"/>
        <pt x="276" y="31" on="1"/>
        <pt x="290" y="31" on="0"/>
        <pt x="342" y="42" on="0"/>
        <pt x="349" y="50" on="1"/>
        <pt x="366" y="71" on="0"/>
        <pt x="371" y="124" on="1"/>
      </contour>
      <contour>
        <pt x="391" y="341" on="1"/>
        <pt x="411" y="550" on="1"/>
        <pt x="267" y="341" on="1"/>
      </contour>
    </TTGlyph>
    <TTGlyph name="Aacute" xMin="-55" yMin="-3" xMax="551" yMax="819">
      <component glyphName="acutecomb.cap" x="196" y="17" flags="0x1004"/>
      <component glyphName="A" x="0" y="0" flags="0x1204"/>
    </TTGlyph>
    <TTGlyph name="Abreve" xMin="-55" yMin="-3" xMax="551" yMax="846">
      <component glyphName="A" x="0" y="0" flags="0x1004"/>
      <component glyphName="uni0306" x="641" y="238" flags="0x1004"/>
    </TTGlyph>
    <TTGlyph name="Acircumflex" xMin="-55" yMin="-3" xMax="551" yMax="836">
      <component glyphName="uni0302.cap" x="104" y="0" flags="0x1004"/>
      <component glyphName="A" x="0" y="0" flags="0x1204"/>
    </TTGlyph>
    <TTGlyph name="Acircumflextilde" xMin="-55" yMin="-3" xMax="567" yMax="899">
      <component glyphName="tildecomb.cap" x="106" y="224" scalex="0.9705" scaley="0.83749" flags="0x1004"/>
      <component glyphName="uni0302.cap" x="95" y="-17" flags="0x1004"/>
      <component glyphName="A" x="0" y="0" flags="0x1204"/>
    </TTGlyph>
    <TTGlyph name="Adieresis" xMin="-55" yMin="-3" xMax="551" yMax="828">
      <component glyphName="A" x="0" y="0" flags="0x1204"/>
      <component glyphName="uni0308.cap" x="93" y="16" flags="0x1004"/>
    </TTGlyph>
    <TTGlyph name="Agrave" xMin="-55" yMin="-3" xMax="551" yMax="818">
      <component glyphName="gravecomb.cap" x="72" y="16" flags="0x1004"/>
      <component glyphName="A" x="0" y="0" flags="0x1204"/>
    </TTGlyph>
    <TTGlyph name="Ahookabove" xMin="-55" yMin="-3" xMax="551" yMax="847">
      <component glyphName="hookabovecomb.cap" x="224" y="215" flags="0x1004"/>
      <component glyphName="A" x="0" y="0" flags="0x1204"/>
    </TTGlyph>
    <TTGlyph name="Alpha" xMin="-60" yMin="-12" xMax="451" yMax="666">
      <contour>
        <pt x="-60" y="26" on="1"/>
        <pt x="-36" y="48" on="0"/>
        <pt x="25" y="137" on="0"/>
        <pt x="76" y="224" on="0"/>
        <pt x="146" y="364" on="0"/>
        <pt x="184" y="442" on="0"/>
        <pt x="251" y="585" on="0"/>
        <pt x="257" y="599" on="1"/>
        <pt x="243" y="623" on="0"/>
        <pt x="192" y="597" on="1"/>
        <pt x="191" y="601" on="0"/>
        <pt x="193" y="613" on="1"/>
        <pt x="201" y="631" on="0"/>
        <pt x="248" y="666" on="0"/>
        <pt x="267" y="666" on="1"/>
        <pt x="306" y="666" on="0"/>
        <pt x="328" y="626" on="1"/>
        <pt x="342" y="602" on="0"/>
        <pt x="361" y="529" on="0"/>
        <pt x="368" y="473" on="0"/>
        <pt x="379" y="364" on="0"/>
        <pt x="382" y="339" on="1"/>
        <pt x="415" y="66" on="0"/>
        <pt x="451" y="4" on="1"/>
        <pt x="449" y="0" on="0"/>
        <pt x="441" y="-8" on="0"/>
        <pt x="438" y="-10" on="1"/>
        <pt x="434" y="-12" on="1"/>
        <pt x="384" y="-5" on="0"/>
        <pt x="368" y="17" on="1"/>
        <pt x="342" y="100" on="0"/>
        <pt x="325" y="289" on="1"/>
        <pt x="132" y="248" on="1"/>
        <pt x="18" y="0" on="1"/>
        <pt x="14" y="-10" on="0"/>
        <pt x="-2" y="-10" on="1"/>
        <pt x="-53" y="11" on="0"/>
      </contour>
      <contour>
        <pt x="157" y="303" on="1"/>
        <pt x="323" y="314" on="1"/>
        <pt x="322" y="323" on="0"/>
        <pt x="315" y="401" on="0"/>
        <pt x="313" y="425" on="0"/>
        <pt x="305" y="487" on="0"/>
        <pt x="298" y="520" on="0"/>
        <pt x="287" y="564" on="0"/>
        <pt x="280" y="582" on="1"/>
      </contour>
    </TTGlyph>
    <TTGlyph name="Alphatonos" xMin="-143" yMin="-12" xMax="368" yMax="939">
      <component glyphName="tonos" x="54" y="235" flags="0x1004"/>
      <component glyphName="Alpha" x="-83" y="0" flags="0x1204"/>
    </TTGlyph>
    <TTGlyph name="Amacron" xMin="-55" yMin="-3" xMax="551" yMax="776">
      <component glyphName="A" x="0" y="0" flags="0x1204"/>
      <component glyphName="uni0304.cap" x="105" y="180" flags="0x1004"/>
    </TTGlyph>
    <TTGlyph name="Aogonek" xMin="-55" yMin="-230" xMax="545" yMax="663">
      <contour>
        <pt x="488" y="60" on="1"/>
        <pt x="491" y="45" on="0"/>
        <pt x="533" y="26" on="0"/>
        <pt x="544" y="26" on="1"/>
        <pt x="546" y="20" on="0"/>
        <pt x="543" y="0" on="0"/>
        <pt x="541" y="-3" on="1"/>
        <pt x="531" y="-2" on="0"/>
        <pt x="520" y="-1" on="0"/>
        <pt x="517" y="-1" on="0"/>
        <pt x="513" y="0" on="0"/>
        <pt x="503" y="0" on="0"/>
        <pt x="493" y="0" on="1"/>
        <pt x="420" y="0" on="0"/>
        <pt x="307" y="-105" on="0"/>
        <pt x="307" y="-139" on="1"/>
        <pt x="307" y="-171" on="0"/>
        <pt x="338" y="-171" on="1"/>
        <pt x="359" y="-171" on="0"/>
        <pt x="397" y="-152" on="0"/>
        <pt x="420" y="-133" on="0"/>
        <pt x="421" y="-133" on="1"/>
        <pt x="426" y="-134" on="0"/>
        <pt x="418" y="-160" on="0"/>
        <pt x="415" y="-163" on="1"/>
        <pt x="355" y="-230" on="0"/>
        <pt x="304" y="-230" on="1"/>
        <pt x="282" y="-230" on="0"/>
        <pt x="253" y="-199" on="0"/>
        <pt x="253" y="-178" on="1"/>
        <pt x="253" y="-119" on="0"/>
        <pt x="361" y="-11" on="1"/>
        <pt x="365" y="-7" on="0"/>
        <pt x="380" y="6" on="0"/>
        <pt x="387" y="13" on="0"/>
        <pt x="395" y="26" on="0"/>
        <pt x="398" y="42" on="0"/>
        <pt x="398" y="53" on="1"/>
        <pt x="398" y="79" on="0"/>
        <pt x="395" y="106" on="1"/>
        <pt x="373" y="256" on="1"/>
        <pt x="174" y="256" on="1"/>
        <pt x="126" y="169" on="0"/>
        <pt x="103" y="125" on="1"/>
        <pt x="74" y="69" on="0"/>
        <pt x="74" y="50" on="1"/>
        <pt x="74" y="37" on="0"/>
        <pt x="120" y="26" on="0"/>
        <pt x="136" y="26" on="1"/>
        <pt x="137" y="24" on="0"/>
        <pt x="134" y="2" on="0"/>
        <pt x="132" y="-3" on="1"/>
        <pt x="119" y="-2" on="0"/>
        <pt x="88" y="0" on="0"/>
        <pt x="61" y="2" on="0"/>
        <pt x="43" y="2" on="1"/>
        <pt x="24" y="2" on="0"/>
        <pt x="-5" y="0" on="0"/>
        <pt x="-39" y="-2" on="0"/>
        <pt x="-55" y="-3" on="1"/>
        <pt x="-56" y="-1" on="0"/>
        <pt x="-52" y="21" on="0"/>
        <pt x="-49" y="26" on="1"/>
        <pt x="-38" y="26" on="0"/>
        <pt x="0" y="36" on="0"/>
        <pt x="8" y="45" on="1"/>
        <pt x="33" y="72" on="0"/>
        <pt x="70" y="139" on="1"/>
        <pt x="346" y="634" on="1"/>
        <pt x="352" y="645" on="0"/>
        <pt x="379" y="663" on="0"/>
        <pt x="386" y="663" on="1"/>
        <pt x="388" y="663" on="0"/>
        <pt x="391" y="660" on="1"/>
        <pt x="477" y="126" on="1"/>
        <pt x="477" y="124" on="0"/>
        <pt x="486" y="72" on="0"/>
      </contour>
      <contour>
        <pt x="192" y="289" on="1"/>
        <pt x="367" y="289" on="1"/>
        <pt x="329" y="535" on="1"/>
      </contour>
    </TTGlyph>
    <TTGlyph name="Aring" xMin="-55" yMin="-3" xMax="551" yMax="838">
      <component glyphName="A" x="0" y="0" flags="0x1204"/>
      <component glyphName="uni030A.cap" x="114" y="157" flags="0x1004"/>
    </TTGlyph>
    <TTGlyph name="Atilde" xMin="-55" yMin="-3" xMax="551" yMax="819">
      <component glyphName="tildecomb.cap" x="76" y="14" flags="0x1004"/>
      <component glyphName="A" x="0" y="0" flags="0x1204"/>
    </TTGlyph>
    <TTGlyph name="B" xMin="-6" yMin="-3" xMax="521" yMax="662">
      <contour>
        <pt x="218" y="370" on="1"/>
        <pt x="312" y="370" on="1"/>
        <pt x="362" y="370" on="0"/>
        <pt x="433" y="458" on="0"/>
        <pt x="433" y="522" on="1"/>
        <pt x="433" y="569" on="0"/>
        <pt x="379" y="630" on="0"/>
        <pt x="319" y="630" on="1"/>
        <pt x="276" y="630" on="0"/>
        <pt x="264" y="610" on="0"/>
        <pt x="251" y="545" on="1"/>
      </contour>
      <contour>
        <pt x="211" y="339" on="1"/>
        <pt x="167" y="114" on="1"/>
        <pt x="154" y="53" on="0"/>
        <pt x="161" y="43" on="1"/>
        <pt x="173" y="26" on="0"/>
        <pt x="231" y="26" on="1"/>
        <pt x="310" y="26" on="0"/>
        <pt x="409" y="129" on="0"/>
        <pt x="409" y="220" on="1"/>
        <pt x="409" y="235" on="0"/>
        <pt x="408" y="254" on="0"/>
        <pt x="393" y="294" on="0"/>
        <pt x="366" y="319" on="0"/>
        <pt x="308" y="339" on="0"/>
        <pt x="268" y="339" on="1"/>
      </contour>
      <contour>
        <pt x="233" y="657" on="1"/>
        <pt x="249" y="657" on="0"/>
        <pt x="335" y="659" on="0"/>
        <pt x="365" y="659" on="1"/>
        <pt x="434" y="659" on="0"/>
        <pt x="521" y="598" on="0"/>
        <pt x="521" y="537" on="1"/>
        <pt x="521" y="429" on="0"/>
        <pt x="401" y="366" on="1"/>
        <pt x="438" y="363" on="0"/>
        <pt x="504" y="284" on="0"/>
        <pt x="504" y="226" on="1"/>
        <pt x="504" y="125" on="0"/>
        <pt x="337" y="-3" on="0"/>
        <pt x="209" y="-3" on="1"/>
        <pt x="-5" y="-3" on="1"/>
        <pt x="-8" y="1" on="0"/>
        <pt x="-3" y="22" on="0"/>
        <pt x="1" y="26" on="1"/>
        <pt x="15" y="26" on="0"/>
        <pt x="65" y="35" on="0"/>
        <pt x="68" y="42" on="1"/>
        <pt x="75" y="56" on="0"/>
        <pt x="87" y="116" on="1"/>
        <pt x="170" y="543" on="1"/>
        <pt x="181" y="599" on="0"/>
        <pt x="180" y="617" on="1"/>
        <pt x="180" y="625" on="0"/>
        <pt x="134" y="633" on="0"/>
        <pt x="119" y="633" on="1"/>
        <pt x="117" y="637" on="0"/>
        <pt x="120" y="658" on="0"/>
        <pt x="124" y="662" on="1"/>
        <pt x="219" y="657" on="0"/>
      </contour>
    </TTGlyph>
    <TTGlyph name="Beta" xMin="-7" yMin="-5" xMax="438" yMax="661">
      <contour>
        <pt x="126" y="603" on="1"/>
        <pt x="119" y="632" on="0"/>
        <pt x="99" y="642" on="1"/>
        <pt x="101" y="655" on="0"/>
        <pt x="112" y="661" on="1"/>
        <pt x="158" y="658" on="0"/>
        <pt x="213" y="658" on="1"/>
        <pt x="336" y="658" on="0"/>
        <pt x="453" y="580" on="0"/>
        <pt x="438" y="502" on="1"/>
        <pt x="430" y="459" on="0"/>
        <pt x="375" y="392" on="0"/>
        <pt x="331" y="367" on="0"/>
        <pt x="311" y="360" on="1"/>
        <pt x="329" y="355" on="0"/>
        <pt x="365" y="334" on="0"/>
        <pt x="408" y="295" on="0"/>
        <pt x="427" y="229" on="0"/>
        <pt x="419" y="188" on="1"/>
        <pt x="413" y="158" on="0"/>
        <pt x="384" y="101" on="0"/>
        <pt x="327" y="38" on="0"/>
        <pt x="221" y="-2" on="0"/>
        <pt x="151" y="-3" on="1"/>
        <pt x="146" y="-3" on="0"/>
        <pt x="130" y="-5" on="0"/>
        <pt x="64" y="-5" on="1"/>
        <pt x="56" y="-5" on="1"/>
        <pt x="48" y="-5" on="0"/>
        <pt x="41" y="-5" on="0"/>
        <pt x="25" y="-4" on="0"/>
        <pt x="15" y="0" on="0"/>
        <pt x="3" y="5" on="0"/>
        <pt x="-5" y="14" on="0"/>
        <pt x="-7" y="20" on="1"/>
        <pt x="5" y="34" on="0"/>
        <pt x="36" y="116" on="0"/>
        <pt x="44" y="157" on="1"/>
      </contour>
      <contour>
        <pt x="218" y="327" on="1"/>
        <pt x="158" y="327" on="0"/>
        <pt x="140" y="326" on="1"/>
        <pt x="125" y="246" on="0"/>
        <pt x="123" y="232" on="1"/>
        <pt x="93" y="69" on="0"/>
        <pt x="96" y="46" on="1"/>
        <pt x="117" y="36" on="0"/>
        <pt x="146" y="36" on="1"/>
        <pt x="211" y="36" on="0"/>
        <pt x="322" y="100" on="0"/>
        <pt x="337" y="175" on="1"/>
        <pt x="350" y="241" on="0"/>
        <pt x="287" y="327" on="0"/>
      </contour>
      <contour>
        <pt x="265" y="618" on="1"/>
        <pt x="226" y="620" on="0"/>
        <pt x="202" y="609" on="1"/>
        <pt x="187" y="562" on="0"/>
        <pt x="150" y="367" on="1"/>
        <pt x="151" y="367" on="0"/>
        <pt x="176" y="364" on="0"/>
        <pt x="181" y="364" on="1"/>
        <pt x="265" y="364" on="0"/>
        <pt x="357" y="442" on="0"/>
        <pt x="368" y="498" on="1"/>
        <pt x="392" y="618" on="0"/>
      </contour>
    </TTGlyph>
    <TTGlyph name="C" xMin="59" yMin="-8" xMax="626" yMax="666">
      <contour>
        <pt x="569" y="173" on="1"/>
        <pt x="575" y="173" on="0"/>
        <pt x="589" y="169" on="0"/>
        <pt x="593" y="167" on="1"/>
        <pt x="597" y="165" on="1"/>
        <pt x="594" y="149" on="0"/>
        <pt x="536" y="37" on="0"/>
        <pt x="525" y="28" on="1"/>
        <pt x="456" y="-8" on="0"/>
        <pt x="330" y="-8" on="1"/>
        <pt x="211" y="-8" on="0"/>
        <pt x="59" y="151" on="0"/>
        <pt x="59" y="265" on="1"/>
        <pt x="59" y="386" on="0"/>
        <pt x="176" y="574" on="0"/>
        <pt x="360" y="668" on="0"/>
        <pt x="465" y="666" on="1"/>
        <pt x="524" y="665" on="0"/>
        <pt x="626" y="640" on="1"/>
        <pt x="620" y="531" on="0"/>
        <pt x="616" y="494" on="1"/>
        <pt x="616" y="489" on="0"/>
        <pt x="608" y="489" on="1"/>
        <pt x="595" y="489" on="0"/>
        <pt x="585" y="494" on="1"/>
        <pt x="589" y="553" on="0"/>
        <pt x="500" y="635" on="0"/>
        <pt x="436" y="635" on="1"/>
        <pt x="316" y="635" on="0"/>
        <pt x="153" y="441" on="0"/>
        <pt x="154" y="282" on="1"/>
        <pt x="154" y="245" on="0"/>
        <pt x="167" y="173" on="0"/>
        <pt x="198" y="104" on="0"/>
        <pt x="244" y="53" on="0"/>
        <pt x="315" y="21" on="0"/>
        <pt x="358" y="21" on="1"/>
        <pt x="489" y="21" on="0"/>
      </contour>
    </TTGlyph>
    <TTGlyph name="Cacute" xMin="59" yMin="-8" xMax="626" yMax="819">
      <component glyphName="acutecomb.cap" x="257" y="17" flags="0x1004"/>
      <component glyphName="C" x="0" y="0" flags="0x1204"/>
    </TTGlyph>
    <TTGlyph name="Ccaron" xMin="59" yMin="-8" xMax="626" yMax="836">
      <component glyphName="uni030C.cap" x="200" y="0" flags="0x1004"/>
      <component glyphName="C" x="0" y="0" flags="0x1204"/>
    </TTGlyph>
    <TTGlyph name="Ccedilla" xMin="59" yMin="-174" xMax="626" yMax="666">
      <component glyphName="C" x="0" y="0" flags="0x1204"/>
      <component glyphName="uni0327.cap" x="127" y="0" flags="0x1004"/>
    </TTGlyph>
    <TTGlyph name="Ccircumflex" xMin="59" yMin="-8" xMax="626" yMax="836">
      <component glyphName="uni0302.cap" x="167" y="0" flags="0x1004"/>
      <component glyphName="C" x="0" y="0" flags="0x1204"/>
    </TTGlyph>
    <TTGlyph name="Cdotaccent" xMin="59" yMin="-8" xMax="626" yMax="828">
      <component glyphName="uni0307.cap" x="190" y="17" flags="0x1004"/>
      <component glyphName="C" x="0" y="0" flags="0x1204"/>
    </TTGlyph>
    <TTGlyph name="Chi" xMin="-59" yMin="-12" xMax="560" yMax="669">
      <contour>
        <pt x="437" y="4" on="1"/>
        <pt x="435" y="0" on="0"/>
        <pt x="427" y="-8" on="0"/>
        <pt x="424" y="-10" on="1"/>
        <pt x="420" y="-12" on="1"/>
        <pt x="362" y="-4" on="0"/>
        <pt x="346" y="18" on="1"/>
        <pt x="288" y="98" on="0"/>
        <pt x="236" y="279" on="1"/>
        <pt x="181" y="208" on="0"/>
        <pt x="25" y="29" on="0"/>
        <pt x="-6" y="0" on="1"/>
        <pt x="-14" y="-6" on="0"/>
        <pt x="-24" y="-6" on="1"/>
        <pt x="-33" y="-6" on="0"/>
        <pt x="-62" y="11" on="0"/>
        <pt x="-59" y="24" on="1"/>
        <pt x="-18" y="49" on="0"/>
        <pt x="146" y="223" on="0"/>
        <pt x="222" y="323" on="1"/>
        <pt x="219" y="336" on="0"/>
        <pt x="205" y="401" on="0"/>
        <pt x="198" y="429" on="0"/>
        <pt x="185" y="485" on="0"/>
        <pt x="175" y="521" on="0"/>
        <pt x="160" y="568" on="0"/>
        <pt x="152" y="590" on="1"/>
        <pt x="143" y="614" on="0"/>
        <pt x="117" y="614" on="1"/>
        <pt x="95" y="614" on="0"/>
        <pt x="73" y="597" on="1"/>
        <pt x="72" y="601" on="0"/>
        <pt x="74" y="613" on="1"/>
        <pt x="82" y="630" on="0"/>
        <pt x="135" y="666" on="0"/>
        <pt x="154" y="666" on="1"/>
        <pt x="192" y="666" on="0"/>
        <pt x="211" y="626" on="1"/>
        <pt x="235" y="576" on="0"/>
        <pt x="274" y="399" on="1"/>
        <pt x="361" y="519" on="0"/>
        <pt x="463" y="632" on="1"/>
        <pt x="473" y="640" on="0"/>
        <pt x="512" y="658" on="0"/>
        <pt x="526" y="664" on="1"/>
        <pt x="540" y="669" on="1"/>
        <pt x="547" y="669" on="0"/>
        <pt x="561" y="660" on="0"/>
        <pt x="560" y="656" on="1"/>
        <pt x="520" y="626" on="0"/>
        <pt x="363" y="458" on="0"/>
        <pt x="285" y="351" on="1"/>
        <pt x="307" y="254" on="0"/>
        <pt x="392" y="62" on="0"/>
      </contour>
    </TTGlyph>
    <TTGlyph name="D" xMin="-6" yMin="-3" xMax="645" yMax="662">
      <contour>
        <pt x="252" y="546" on="1"/>
        <pt x="167" y="112" on="1"/>
        <pt x="154" y="50" on="0"/>
        <pt x="159" y="40" on="1"/>
        <pt x="165" y="26" on="0"/>
        <pt x="232" y="26" on="1"/>
        <pt x="346" y="26" on="0"/>
        <pt x="522" y="173" on="0"/>
        <pt x="549" y="313" on="1"/>
        <pt x="580" y="474" on="0"/>
        <pt x="461" y="631" on="0"/>
        <pt x="338" y="631" on="1"/>
        <pt x="276" y="631" on="0"/>
        <pt x="271" y="620" on="1"/>
        <pt x="265" y="607" on="0"/>
      </contour>
      <contour>
        <pt x="368" y="658" on="1"/>
        <pt x="526" y="658" on="0"/>
        <pt x="673" y="476" on="0"/>
        <pt x="645" y="334" on="1"/>
        <pt x="632" y="266" on="0"/>
        <pt x="575" y="152" on="0"/>
        <pt x="478" y="54" on="0"/>
        <pt x="326" y="-3" on="0"/>
        <pt x="228" y="-3" on="1"/>
        <pt x="-5" y="-3" on="1"/>
        <pt x="-8" y="1" on="0"/>
        <pt x="-3" y="22" on="0"/>
        <pt x="1" y="26" on="1"/>
        <pt x="15" y="26" on="0"/>
        <pt x="65" y="35" on="0"/>
        <pt x="68" y="42" on="1"/>
        <pt x="75" y="56" on="0"/>
        <pt x="87" y="116" on="1"/>
        <pt x="170" y="543" on="1"/>
        <pt x="182" y="602" on="0"/>
        <pt x="180" y="617" on="1"/>
        <pt x="179" y="624" on="0"/>
        <pt x="133" y="633" on="0"/>
        <pt x="119" y="633" on="1"/>
        <pt x="117" y="637" on="0"/>
        <pt x="120" y="658" on="0"/>
        <pt x="124" y="662" on="1"/>
        <pt x="219" y="657" on="0"/>
        <pt x="233" y="657" on="1"/>
        <pt x="250" y="657" on="0"/>
        <pt x="347" y="658" on="0"/>
      </contour>
    </TTGlyph>
    <TTGlyph name="Dcaron" xMin="-5" yMin="-3" xMax="645" yMax="836">
      <component glyphName="D" x="0" y="0" flags="0x1204"/>
      <component glyphName="uni030C.cap" x="107" y="0" flags="0x1004"/>
    </TTGlyph>
    <TTGlyph name="Dcroat" xMin="-5" yMin="-3" xMax="645" yMax="662">
      <component glyphName="Eth" x="0" y="0" flags="0x1204"/>
    </TTGlyph>
    <TTGlyph name="Delta" xMin="-27" yMin="-4" xMax="511" yMax="655">
      <contour>
        <pt x="430" y="63" on="1"/>
        <pt x="372" y="306" on="0"/>
        <pt x="334" y="529" on="1"/>
        <pt x="333" y="530" on="0"/>
        <pt x="274" y="434" on="0"/>
        <pt x="192" y="297" on="0"/>
        <pt x="110" y="160" on="0"/>
        <pt x="81" y="112" on="1"/>
        <pt x="52" y="63" on="1"/>
      </contour>
      <contour>
        <pt x="370" y="655" on="1"/>
        <pt x="399" y="514" on="0"/>
        <pt x="490" y="128" on="0"/>
        <pt x="511" y="33" on="1"/>
        <pt x="498" y="4" on="0"/>
        <pt x="458" y="-4" on="1"/>
        <pt x="446" y="3" on="0"/>
        <pt x="401" y="3" on="1"/>
        <pt x="-22" y="0" on="1"/>
        <pt x="-24" y="0" on="0"/>
        <pt x="-28" y="7" on="0"/>
        <pt x="-27" y="10" on="1"/>
        <pt x="176" y="336" on="0"/>
        <pt x="305" y="548" on="1"/>
        <pt x="317" y="569" on="0"/>
        <pt x="337" y="618" on="1"/>
        <pt x="350" y="641" on="0"/>
        <pt x="366" y="654" on="1"/>
        <pt x="370" y="657" on="0"/>
      </contour>
    </TTGlyph>
    <TTGlyph name="E" xMin="-6" yMin="-4" xMax="534" yMax="664">
      <contour>
        <pt x="233" y="657" on="1"/>
        <pt x="275" y="657" on="0"/>
        <pt x="481" y="664" on="0"/>
        <pt x="533" y="664" on="1"/>
        <pt x="531" y="652" on="0"/>
        <pt x="534" y="537" on="0"/>
        <pt x="534" y="528" on="1"/>
        <pt x="529" y="523" on="0"/>
        <pt x="516" y="523" on="1"/>
        <pt x="505" y="523" on="0"/>
        <pt x="505" y="530" on="1"/>
        <pt x="501" y="586" on="0"/>
        <pt x="457" y="630" on="0"/>
        <pt x="417" y="630" on="1"/>
        <pt x="337" y="630" on="1"/>
        <pt x="276" y="630" on="0"/>
        <pt x="271" y="619" on="1"/>
        <pt x="260" y="598" on="0"/>
        <pt x="251" y="547" on="1"/>
        <pt x="214" y="355" on="1"/>
        <pt x="214" y="353" on="0"/>
        <pt x="220" y="351" on="0"/>
        <pt x="232" y="349" on="0"/>
        <pt x="245" y="349" on="0"/>
        <pt x="253" y="349" on="1"/>
        <pt x="302" y="349" on="1"/>
        <pt x="364" y="349" on="0"/>
        <pt x="395" y="367" on="0"/>
        <pt x="414" y="412" on="1"/>
        <pt x="417" y="418" on="0"/>
        <pt x="418" y="421" on="1"/>
        <pt x="421" y="428" on="0"/>
        <pt x="434" y="428" on="1"/>
        <pt x="445" y="428" on="0"/>
        <pt x="448" y="423" on="1"/>
        <pt x="412" y="234" on="1"/>
        <pt x="408" y="230" on="0"/>
        <pt x="396" y="230" on="1"/>
        <pt x="385" y="230" on="0"/>
        <pt x="383" y="238" on="1"/>
        <pt x="380" y="300" on="0"/>
        <pt x="360" y="316" on="0"/>
        <pt x="273" y="316" on="1"/>
        <pt x="206" y="316" on="0"/>
        <pt x="204" y="307" on="1"/>
        <pt x="165" y="109" on="1"/>
        <pt x="152" y="46" on="0"/>
        <pt x="158" y="40" on="1"/>
        <pt x="168" y="30" on="0"/>
        <pt x="222" y="30" on="1"/>
        <pt x="266" y="30" on="1"/>
        <pt x="343" y="30" on="0"/>
        <pt x="390" y="61" on="1"/>
        <pt x="434" y="91" on="0"/>
        <pt x="468" y="162" on="1"/>
        <pt x="471" y="168" on="0"/>
        <pt x="483" y="168" on="1"/>
        <pt x="501" y="168" on="0"/>
        <pt x="505" y="162" on="1"/>
        <pt x="499" y="150" on="0"/>
        <pt x="455" y="69" on="0"/>
        <pt x="429" y="16" on="0"/>
        <pt x="422" y="-4" on="1"/>
        <pt x="374" y="-4" on="0"/>
        <pt x="171" y="0" on="0"/>
        <pt x="106" y="0" on="1"/>
        <pt x="83" y="0" on="0"/>
        <pt x="12" y="-3" on="0"/>
        <pt x="-5" y="-3" on="1"/>
        <pt x="-8" y="1" on="0"/>
        <pt x="-4" y="22" on="0"/>
        <pt x="0" y="26" on="1"/>
        <pt x="14" y="26" on="0"/>
        <pt x="65" y="35" on="0"/>
        <pt x="68" y="42" on="1"/>
        <pt x="75" y="56" on="0"/>
        <pt x="87" y="116" on="1"/>
        <pt x="170" y="543" on="1"/>
        <pt x="181" y="599" on="0"/>
        <pt x="179" y="617" on="1"/>
        <pt x="178" y="624" on="0"/>
        <pt x="132" y="633" on="0"/>
        <pt x="118" y="633" on="1"/>
        <pt x="116" y="637" on="0"/>
        <pt x="120" y="658" on="0"/>
        <pt x="124" y="662" on="1"/>
        <pt x="219" y="657" on="0"/>
      </contour>
    </TTGlyph>
    <TTGlyph name="Eacute" xMin="-5" yMin="-4" xMax="534" yMax="819">
      <component glyphName="acutecomb.cap" x="139" y="17" flags="0x1004"/>
      <component glyphName="E" x="0" y="0" flags="0x1204"/>
    </TTGlyph>
    <TTGlyph name="Ebreve" xMin="-5" yMin="-4" xMax="534" yMax="836">
      <component glyphName="E" x="0" y="0" flags="0x1204"/>
      <component glyphName="uni0306.cap" x="126" y="203" flags="0x1004"/>
    </TTGlyph>
    <TTGlyph name="Ecaron" xMin="-5" yMin="-4" xMax="534" yMax="836">
      <component glyphName="uni030C.cap" x="102" y="0" flags="0x1004"/>
      <component glyphName="E" x="0" y="0" flags="0x1204"/>
    </TTGlyph>
    <TTGlyph name="Ecircumflex" xMin="-5" yMin="-4" xMax="534" yMax="836">
      <component glyphName="uni0302.cap" x="74" y="0" flags="0x1004"/>
      <component glyphName="E" x="0" y="0" flags="0x1204"/>
    </TTGlyph>
    <TTGlyph name="Edieresis" xMin="-5" yMin="-4" xMax="534" yMax="828">
      <component glyphName="uni0308.cap" x="61" y="16" flags="0x1004"/>
      <component glyphName="E" x="0" y="0" flags="0x1204"/>
    </TTGlyph>
    <TTGlyph name="Edotaccent" xMin="-5" yMin="-4" xMax="534" yMax="828">
      <component glyphName="E" x="0" y="0" flags="0x1204"/>
      <component glyphName="uni0307.cap" x="92" y="17" flags="0x1004"/>
    </TTGlyph>
    <TTGlyph name="Edotbelow" xMin="-5" yMin="-164" xMax="534" yMax="664">
      <component glyphName="uni0323.cap" x="116" y="-28" flags="0x1004"/>
      <component glyphName="E" x="0" y="0" flags="0x1204"/>
    </TTGlyph>
    <TTGlyph name="Egrave" xMin="-5" yMin="-4" xMax="534" yMax="818">
      <component glyphName="gravecomb.cap" x="79" y="16" flags="0x1004"/>
      <component glyphName="E" x="0" y="0" flags="0x1204"/>
    </TTGlyph>
    <TTGlyph name="Emacron" xMin="-5" yMin="-4" xMax="534" yMax="776">
      <component glyphName="E" x="0" y="0" flags="0x1204"/>
      <component glyphName="uni0304.cap" x="68" y="180" flags="0x1004"/>
    </TTGlyph>
    <TTGlyph name="Eng" xMin="-12" yMin="-233" xMax="776" yMax="665">
      <contour>
        <pt x="510" y="44" on="1"/>
        <pt x="226" y="569" on="1"/>
        <pt x="138" y="115" on="1"/>
        <pt x="128" y="63" on="0"/>
        <pt x="134" y="46" on="1"/>
        <pt x="137" y="39" on="0"/>
        <pt x="187" y="26" on="0"/>
        <pt x="201" y="26" on="1"/>
        <pt x="206" y="15" on="0"/>
        <pt x="197" y="-3" on="1"/>
        <pt x="104" y="2" on="0"/>
        <pt x="91" y="2" on="1"/>
        <pt x="72" y="2" on="0"/>
        <pt x="41" y="0" on="0"/>
        <pt x="4" y="-2" on="0"/>
        <pt x="-12" y="-3" on="1"/>
        <pt x="-17" y="9" on="0"/>
        <pt x="-6" y="26" on="1"/>
        <pt x="7" y="26" on="0"/>
        <pt x="64" y="38" on="0"/>
        <pt x="70" y="46" on="1"/>
        <pt x="84" y="65" on="0"/>
        <pt x="93" y="114" on="1"/>
        <pt x="177" y="548" on="1"/>
        <pt x="186" y="600" on="0"/>
        <pt x="181" y="616" on="1"/>
        <pt x="178" y="624" on="0"/>
        <pt x="126" y="636" on="0"/>
        <pt x="113" y="636" on="1"/>
        <pt x="108" y="653" on="0"/>
        <pt x="118" y="665" on="1"/>
        <pt x="131" y="664" on="0"/>
        <pt x="196" y="660" on="0"/>
        <pt x="214" y="660" on="1"/>
        <pt x="259" y="660" on="0"/>
        <pt x="285" y="662" on="1"/>
        <pt x="300" y="623" on="0"/>
        <pt x="515" y="246" on="0"/>
        <pt x="553" y="166" on="1"/>
        <pt x="627" y="545" on="1"/>
        <pt x="637" y="597" on="0"/>
        <pt x="631" y="614" on="1"/>
        <pt x="628" y="621" on="0"/>
        <pt x="578" y="634" on="0"/>
        <pt x="564" y="634" on="1"/>
        <pt x="559" y="645" on="0"/>
        <pt x="568" y="663" on="1"/>
        <pt x="660" y="658" on="0"/>
        <pt x="674" y="658" on="1"/>
        <pt x="693" y="658" on="0"/>
        <pt x="723" y="660" on="0"/>
        <pt x="760" y="662" on="0"/>
        <pt x="776" y="663" on="1"/>
        <pt x="781" y="650" on="0"/>
        <pt x="771" y="634" on="1"/>
        <pt x="758" y="634" on="0"/>
        <pt x="700" y="622" on="0"/>
        <pt x="694" y="614" on="1"/>
        <pt x="681" y="597" on="0"/>
        <pt x="672" y="546" on="1"/>
        <pt x="589" y="116" on="1"/>
        <pt x="571" y="22" on="0"/>
        <pt x="504" y="-120" on="0"/>
        <pt x="426" y="-196" on="0"/>
        <pt x="353" y="-233" on="0"/>
        <pt x="320" y="-233" on="1"/>
        <pt x="317" y="-228" on="0"/>
        <pt x="317" y="-220" on="1"/>
        <pt x="318" y="-214" on="1"/>
        <pt x="388" y="-192" on="0"/>
        <pt x="486" y="-49" on="0"/>
      </contour>
    </TTGlyph>
    <TTGlyph name="Eogonek" xMin="-6" yMin="-230" xMax="534" yMax="664">
      <contour>
        <pt x="422" y="-4" on="1"/>
        <pt x="356" y="-4" on="0"/>
        <pt x="250" y="-97" on="0"/>
        <pt x="250" y="-139" on="1"/>
        <pt x="250" y="-171" on="0"/>
        <pt x="281" y="-171" on="1"/>
        <pt x="302" y="-171" on="0"/>
        <pt x="340" y="-152" on="0"/>
        <pt x="363" y="-133" on="0"/>
        <pt x="364" y="-133" on="1"/>
        <pt x="369" y="-134" on="0"/>
        <pt x="361" y="-160" on="0"/>
        <pt x="358" y="-163" on="1"/>
        <pt x="298" y="-230" on="0"/>
        <pt x="247" y="-230" on="1"/>
        <pt x="225" y="-230" on="0"/>
        <pt x="196" y="-201" on="0"/>
        <pt x="196" y="-180" on="1"/>
        <pt x="196" y="-140" on="0"/>
        <pt x="275" y="-23" on="0"/>
        <pt x="317" y="-3" on="1"/>
        <pt x="131" y="0" on="0"/>
        <pt x="106" y="0" on="1"/>
        <pt x="83" y="0" on="0"/>
        <pt x="12" y="-3" on="0"/>
        <pt x="-5" y="-3" on="1"/>
        <pt x="-8" y="1" on="0"/>
        <pt x="-4" y="22" on="0"/>
        <pt x="0" y="26" on="1"/>
        <pt x="14" y="26" on="0"/>
        <pt x="65" y="35" on="0"/>
        <pt x="68" y="42" on="1"/>
        <pt x="75" y="56" on="0"/>
        <pt x="87" y="116" on="1"/>
        <pt x="170" y="543" on="1"/>
        <pt x="181" y="599" on="0"/>
        <pt x="179" y="617" on="1"/>
        <pt x="178" y="624" on="0"/>
        <pt x="132" y="633" on="0"/>
        <pt x="118" y="633" on="1"/>
        <pt x="116" y="637" on="0"/>
        <pt x="120" y="658" on="0"/>
        <pt x="124" y="662" on="1"/>
        <pt x="219" y="657" on="0"/>
        <pt x="233" y="657" on="1"/>
        <pt x="275" y="657" on="0"/>
        <pt x="481" y="664" on="0"/>
        <pt x="533" y="664" on="1"/>
        <pt x="531" y="652" on="0"/>
        <pt x="534" y="537" on="0"/>
        <pt x="534" y="528" on="1"/>
        <pt x="529" y="523" on="0"/>
        <pt x="516" y="523" on="1"/>
        <pt x="505" y="523" on="0"/>
        <pt x="505" y="530" on="1"/>
        <pt x="501" y="586" on="0"/>
        <pt x="457" y="630" on="0"/>
        <pt x="417" y="630" on="1"/>
        <pt x="337" y="630" on="1"/>
        <pt x="276" y="630" on="0"/>
        <pt x="271" y="619" on="1"/>
        <pt x="260" y="598" on="0"/>
        <pt x="251" y="547" on="1"/>
        <pt x="214" y="355" on="1"/>
        <pt x="214" y="353" on="0"/>
        <pt x="220" y="351" on="0"/>
        <pt x="232" y="349" on="0"/>
        <pt x="245" y="349" on="0"/>
        <pt x="253" y="349" on="1"/>
        <pt x="302" y="349" on="1"/>
        <pt x="364" y="349" on="0"/>
        <pt x="395" y="367" on="0"/>
        <pt x="414" y="412" on="1"/>
        <pt x="417" y="418" on="0"/>
        <pt x="418" y="421" on="1"/>
        <pt x="421" y="428" on="0"/>
        <pt x="434" y="428" on="1"/>
        <pt x="445" y="428" on="0"/>
        <pt x="448" y="423" on="1"/>
        <pt x="412" y="234" on="1"/>
        <pt x="408" y="230" on="0"/>
        <pt x="396" y="230" on="1"/>
        <pt x="385" y="230" on="0"/>
        <pt x="383" y="238" on="1"/>
        <pt x="380" y="300" on="0"/>
        <pt x="360" y="316" on="0"/>
        <pt x="273" y="316" on="1"/>
        <pt x="206" y="316" on="0"/>
        <pt x="204" y="307" on="1"/>
        <pt x="165" y="109" on="1"/>
        <pt x="152" y="46" on="0"/>
        <pt x="158" y="40" on="1"/>
        <pt x="168" y="30" on="0"/>
        <pt x="222" y="30" on="1"/>
        <pt x="266" y="30" on="1"/>
        <pt x="343" y="30" on="0"/>
        <pt x="390" y="61" on="1"/>
        <pt x="434" y="91" on="0"/>
        <pt x="468" y="162" on="1"/>
        <pt x="471" y="168" on="0"/>
        <pt x="483" y="168" on="1"/>
        <pt x="501" y="168" on="0"/>
        <pt x="505" y="162" on="1"/>
        <pt x="499" y="150" on="0"/>
        <pt x="455" y="69" on="0"/>
        <pt x="429" y="16" on="0"/>
      </contour>
    </TTGlyph>
    <TTGlyph name="Epsilon" xMin="-7" yMin="0" xMax="459" yMax="664">
      <contour>
        <pt x="206" y="43" on="1"/>
        <pt x="246" y="43" on="0"/>
        <pt x="343" y="77" on="0"/>
        <pt x="401" y="112" on="0"/>
        <pt x="406" y="119" on="1"/>
        <pt x="411" y="117" on="0"/>
        <pt x="415" y="101" on="0"/>
        <pt x="414" y="96" on="1"/>
        <pt x="410" y="80" on="0"/>
        <pt x="350" y="0" on="0"/>
        <pt x="321" y="0" on="1"/>
        <pt x="64" y="0" on="1"/>
        <pt x="6" y="0" on="0"/>
        <pt x="-7" y="34" on="1"/>
        <pt x="5" y="48" on="0"/>
        <pt x="36" y="130" on="0"/>
        <pt x="44" y="171" on="1"/>
        <pt x="123" y="603" on="1"/>
        <pt x="116" y="632" on="0"/>
        <pt x="96" y="642" on="1"/>
        <pt x="98" y="655" on="0"/>
        <pt x="109" y="661" on="1"/>
        <pt x="155" y="658" on="0"/>
        <pt x="205" y="658" on="1"/>
        <pt x="255" y="659" on="0"/>
        <pt x="376" y="663" on="0"/>
        <pt x="424" y="664" on="1"/>
        <pt x="444" y="626" on="0"/>
        <pt x="459" y="584" on="1"/>
        <pt x="457" y="581" on="0"/>
        <pt x="452" y="572" on="0"/>
        <pt x="448" y="568" on="0"/>
        <pt x="444" y="566" on="1"/>
        <pt x="401" y="596" on="0"/>
        <pt x="336" y="615" on="0"/>
        <pt x="280" y="615" on="1"/>
        <pt x="253" y="615" on="0"/>
        <pt x="189" y="607" on="1"/>
        <pt x="186" y="594" on="0"/>
        <pt x="172" y="514" on="0"/>
        <pt x="150" y="396" on="0"/>
        <pt x="142" y="355" on="1"/>
        <pt x="165" y="355" on="1"/>
        <pt x="240" y="355" on="0"/>
        <pt x="315" y="384" on="1"/>
        <pt x="322" y="378" on="0"/>
        <pt x="335" y="355" on="0"/>
        <pt x="343" y="335" on="0"/>
        <pt x="354" y="307" on="0"/>
        <pt x="355" y="304" on="1"/>
        <pt x="355" y="299" on="0"/>
        <pt x="343" y="287" on="0"/>
        <pt x="338" y="285" on="1"/>
        <pt x="294" y="309" on="0"/>
        <pt x="236" y="309" on="1"/>
        <pt x="166" y="309" on="0"/>
        <pt x="134" y="307" on="1"/>
        <pt x="131" y="293" on="0"/>
        <pt x="123" y="244" on="0"/>
        <pt x="121" y="236" on="1"/>
        <pt x="117" y="215" on="0"/>
        <pt x="97" y="120" on="0"/>
        <pt x="89" y="67" on="0"/>
        <pt x="90" y="58" on="1"/>
        <pt x="128" y="43" on="0"/>
      </contour>
    </TTGlyph>
    <TTGlyph name="Epsilontonos" xMin="-44" yMin="0" xMax="510" yMax="939">
      <component glyphName="tonos" x="238" y="235" flags="0x1004"/>
      <component glyphName="Epsilon" x="-37" y="0" flags="0x1204"/>
    </TTGlyph>
    <TTGlyph name="Eta" xMin="-7" yMin="-16" xMax="511" yMax="664">
      <contour>
        <pt x="471" y="468" on="1"/>
        <pt x="463" y="426" on="0"/>
        <pt x="429" y="252" on="0"/>
        <pt x="423" y="218" on="1"/>
        <pt x="413" y="164" on="0"/>
        <pt x="396" y="16" on="0"/>
        <pt x="398" y="1" on="1"/>
        <pt x="384" y="-16" on="0"/>
        <pt x="371" y="-16" on="1"/>
        <pt x="364" y="-16" on="0"/>
        <pt x="321" y="10" on="0"/>
        <pt x="323" y="20" on="1"/>
        <pt x="358" y="174" on="0"/>
        <pt x="386" y="312" on="1"/>
        <pt x="371" y="311" on="0"/>
        <pt x="279" y="308" on="0"/>
        <pt x="216" y="306" on="0"/>
        <pt x="135" y="300" on="0"/>
        <pt x="108" y="295" on="1"/>
        <pt x="105" y="279" on="0"/>
        <pt x="96" y="228" on="0"/>
        <pt x="94" y="218" on="1"/>
        <pt x="84" y="163" on="0"/>
        <pt x="66" y="16" on="0"/>
        <pt x="68" y="1" on="1"/>
        <pt x="54" y="-16" on="0"/>
        <pt x="42" y="-16" on="1"/>
        <pt x="35" y="-16" on="0"/>
        <pt x="-9" y="10" on="0"/>
        <pt x="-7" y="20" on="1"/>
        <pt x="36" y="207" on="0"/>
        <pt x="65" y="354" on="1"/>
        <pt x="88" y="474" on="0"/>
        <pt x="106" y="647" on="1"/>
        <pt x="108" y="652" on="0"/>
        <pt x="126" y="664" on="0"/>
        <pt x="130" y="664" on="1"/>
        <pt x="148" y="664" on="0"/>
        <pt x="184" y="639" on="0"/>
        <pt x="182" y="627" on="1"/>
        <pt x="182" y="625" on="0"/>
        <pt x="167" y="572" on="0"/>
        <pt x="147" y="496" on="0"/>
        <pt x="142" y="468" on="1"/>
        <pt x="125" y="383" on="0"/>
        <pt x="118" y="347" on="1"/>
        <pt x="393" y="348" on="1"/>
        <pt x="394" y="354" on="1"/>
        <pt x="417" y="474" on="0"/>
        <pt x="435" y="647" on="1"/>
        <pt x="437" y="652" on="0"/>
        <pt x="455" y="664" on="0"/>
        <pt x="459" y="664" on="1"/>
        <pt x="477" y="664" on="0"/>
        <pt x="513" y="639" on="0"/>
        <pt x="511" y="627" on="1"/>
        <pt x="511" y="625" on="0"/>
        <pt x="496" y="572" on="0"/>
        <pt x="476" y="496" on="0"/>
      </contour>
    </TTGlyph>
    <TTGlyph name="Etatonos" xMin="-52" yMin="-16" xMax="466" yMax="939">
      <component glyphName="tonos" x="120" y="235" flags="0x1004"/>
      <component glyphName="Eta" x="-45" y="0" flags="0x1204"/>
    </TTGlyph>
    <TTGlyph name="Eth" xMin="-6" yMin="-3" xMax="645" yMax="662">
      <contour>
        <pt x="79" y="349" on="1"/>
        <pt x="79" y="349" on="0"/>
        <pt x="409" y="349" on="1"/>
        <pt x="416" y="349" on="0"/>
        <pt x="414" y="341" on="1"/>
        <pt x="410" y="322" on="0"/>
        <pt x="404" y="313" on="1"/>
        <pt x="404" y="313" on="0"/>
        <pt x="73" y="313" on="1"/>
        <pt x="67" y="313" on="0"/>
        <pt x="70" y="324" on="1"/>
        <pt x="74" y="344" on="0"/>
      </contour>
      <contour>
        <pt x="252" y="546" on="1"/>
        <pt x="167" y="112" on="1"/>
        <pt x="154" y="50" on="0"/>
        <pt x="159" y="40" on="1"/>
        <pt x="165" y="26" on="0"/>
        <pt x="232" y="26" on="1"/>
        <pt x="346" y="26" on="0"/>
        <pt x="522" y="173" on="0"/>
        <pt x="549" y="313" on="1"/>
        <pt x="580" y="474" on="0"/>
        <pt x="461" y="631" on="0"/>
        <pt x="338" y="631" on="1"/>
        <pt x="276" y="631" on="0"/>
        <pt x="271" y="620" on="1"/>
        <pt x="265" y="607" on="0"/>
      </contour>
      <contour>
        <pt x="368" y="658" on="1"/>
        <pt x="526" y="658" on="0"/>
        <pt x="673" y="476" on="0"/>
        <pt x="645" y="334" on="1"/>
        <pt x="632" y="266" on="0"/>
        <pt x="575" y="152" on="0"/>
        <pt x="478" y="54" on="0"/>
        <pt x="326" y="-3" on="0"/>
        <pt x="228" y="-3" on="1"/>
        <pt x="-5" y="-3" on="1"/>
        <pt x="-8" y="1" on="0"/>
        <pt x="-3" y="22" on="0"/>
        <pt x="1" y="26" on="1"/>
        <pt x="15" y="26" on="0"/>
        <pt x="65" y="35" on="0"/>
        <pt x="68" y="42" on="1"/>
        <pt x="75" y="56" on="0"/>
        <pt x="87" y="116" on="1"/>
        <pt x="170" y="543" on="1"/>
        <pt x="182" y="602" on="0"/>
        <pt x="180" y="617" on="1"/>
        <pt x="179" y="624" on="0"/>
        <pt x="133" y="633" on="0"/>
        <pt x="119" y="633" on="1"/>
        <pt x="117" y="637" on="0"/>
        <pt x="120" y="658" on="0"/>
        <pt x="124" y="662" on="1"/>
        <pt x="219" y="657" on="0"/>
        <pt x="233" y="657" on="1"/>
        <pt x="250" y="657" on="0"/>
        <pt x="347" y="658" on="0"/>
      </contour>
    </TTGlyph>
    <TTGlyph name="Euro" xMin="28" yMin="-8" xMax="593" yMax="633">
      <contour>
        <pt x="422" y="600" on="1"/>
        <pt x="319" y="600" on="0"/>
        <pt x="170" y="417" on="0"/>
        <pt x="171" y="268" on="1"/>
        <pt x="171" y="174" on="0"/>
        <pt x="269" y="26" on="0"/>
        <pt x="357" y="26" on="1"/>
        <pt x="421" y="26" on="0"/>
        <pt x="474" y="74" on="1"/>
        <pt x="512" y="108" on="0"/>
        <pt x="540" y="164" on="1"/>
        <pt x="565" y="157" on="1"/>
        <pt x="562" y="142" on="0"/>
        <pt x="510" y="34" on="0"/>
        <pt x="501" y="26" on="1"/>
        <pt x="441" y="-8" on="0"/>
        <pt x="333" y="-8" on="1"/>
        <pt x="230" y="-8" on="0"/>
        <pt x="80" y="146" on="0"/>
        <pt x="80" y="252" on="1"/>
        <pt x="80" y="367" on="0"/>
        <pt x="192" y="547" on="0"/>
        <pt x="358" y="635" on="0"/>
        <pt x="447" y="633" on="1"/>
        <pt x="499" y="632" on="0"/>
        <pt x="593" y="608" on="1"/>
        <pt x="593" y="603" on="0"/>
        <pt x="586" y="486" on="0"/>
        <pt x="585" y="469" on="1"/>
        <pt x="585" y="462" on="0"/>
        <pt x="575" y="462" on="1"/>
        <pt x="558" y="462" on="0"/>
        <pt x="554" y="469" on="1"/>
        <pt x="557" y="524" on="0"/>
        <pt x="477" y="600" on="0"/>
      </contour>
      <contour>
        <pt x="47" y="340" on="1"/>
        <pt x="43" y="340" on="0"/>
        <pt x="43" y="348" on="1"/>
        <pt x="43" y="368" on="0"/>
        <pt x="56" y="379" on="1"/>
        <pt x="394" y="379" on="1"/>
        <pt x="397" y="379" on="0"/>
        <pt x="397" y="371" on="1"/>
        <pt x="397" y="352" on="0"/>
        <pt x="385" y="340" on="1"/>
      </contour>
      <contour>
        <pt x="32" y="242" on="1"/>
        <pt x="28" y="242" on="0"/>
        <pt x="28" y="250" on="1"/>
        <pt x="28" y="270" on="0"/>
        <pt x="41" y="281" on="1"/>
        <pt x="379" y="281" on="1"/>
        <pt x="382" y="281" on="0"/>
        <pt x="382" y="273" on="1"/>
        <pt x="382" y="254" on="0"/>
        <pt x="370" y="242" on="1"/>
      </contour>
    </TTGlyph>
    <TTGlyph name="F" xMin="-6" yMin="-3" xMax="534" yMax="664">
      <contour>
        <pt x="233" y="657" on="1"/>
        <pt x="275" y="657" on="0"/>
        <pt x="481" y="664" on="0"/>
        <pt x="533" y="664" on="1"/>
        <pt x="531" y="652" on="0"/>
        <pt x="534" y="537" on="0"/>
        <pt x="534" y="528" on="1"/>
        <pt x="529" y="523" on="0"/>
        <pt x="516" y="523" on="1"/>
        <pt x="505" y="523" on="0"/>
        <pt x="505" y="530" on="1"/>
        <pt x="501" y="586" on="0"/>
        <pt x="457" y="630" on="0"/>
        <pt x="417" y="630" on="1"/>
        <pt x="337" y="630" on="1"/>
        <pt x="276" y="630" on="0"/>
        <pt x="271" y="619" on="1"/>
        <pt x="260" y="598" on="0"/>
        <pt x="251" y="547" on="1"/>
        <pt x="214" y="355" on="1"/>
        <pt x="214" y="353" on="0"/>
        <pt x="220" y="351" on="0"/>
        <pt x="232" y="349" on="0"/>
        <pt x="245" y="349" on="0"/>
        <pt x="253" y="349" on="1"/>
        <pt x="302" y="349" on="1"/>
        <pt x="364" y="349" on="0"/>
        <pt x="395" y="367" on="0"/>
        <pt x="414" y="412" on="1"/>
        <pt x="417" y="418" on="0"/>
        <pt x="418" y="421" on="1"/>
        <pt x="421" y="428" on="0"/>
        <pt x="434" y="428" on="1"/>
        <pt x="445" y="428" on="0"/>
        <pt x="448" y="423" on="1"/>
        <pt x="412" y="234" on="1"/>
        <pt x="408" y="230" on="0"/>
        <pt x="396" y="230" on="1"/>
        <pt x="385" y="230" on="0"/>
        <pt x="383" y="238" on="1"/>
        <pt x="380" y="300" on="0"/>
        <pt x="360" y="316" on="0"/>
        <pt x="273" y="316" on="1"/>
        <pt x="206" y="316" on="0"/>
        <pt x="204" y="307" on="1"/>
        <pt x="167" y="116" on="1"/>
        <pt x="156" y="60" on="0"/>
        <pt x="158" y="42" on="1"/>
        <pt x="159" y="35" on="0"/>
        <pt x="213" y="26" on="0"/>
        <pt x="228" y="26" on="1"/>
        <pt x="230" y="22" on="0"/>
        <pt x="226" y="1" on="0"/>
        <pt x="222" y="-3" on="1"/>
        <pt x="127" y="2" on="0"/>
        <pt x="105" y="2" on="1"/>
        <pt x="82" y="2" on="0"/>
        <pt x="12" y="-3" on="0"/>
        <pt x="-5" y="-3" on="1"/>
        <pt x="-8" y="1" on="0"/>
        <pt x="-4" y="22" on="0"/>
        <pt x="0" y="26" on="1"/>
        <pt x="14" y="26" on="0"/>
        <pt x="65" y="35" on="0"/>
        <pt x="68" y="42" on="1"/>
        <pt x="75" y="56" on="0"/>
        <pt x="87" y="116" on="1"/>
        <pt x="170" y="543" on="1"/>
        <pt x="181" y="599" on="0"/>
        <pt x="179" y="617" on="1"/>
        <pt x="178" y="624" on="0"/>
        <pt x="132" y="633" on="0"/>
        <pt x="118" y="633" on="1"/>
        <pt x="116" y="637" on="0"/>
        <pt x="120" y="658" on="0"/>
        <pt x="124" y="662" on="1"/>
        <pt x="219" y="657" on="0"/>
      </contour>
    </TTGlyph>
    <TTGlyph name="G" xMin="59" yMin="-8" xMax="666" yMax="666">
      <contour>
        <pt x="585" y="494" on="1"/>
        <pt x="589" y="553" on="0"/>
        <pt x="500" y="635" on="0"/>
        <pt x="436" y="635" on="1"/>
        <pt x="316" y="635" on="0"/>
        <pt x="153" y="441" on="0"/>
        <pt x="154" y="282" on="1"/>
        <pt x="154" y="218" on="0"/>
        <pt x="192" y="104" on="0"/>
        <pt x="287" y="21" on="0"/>
        <pt x="355" y="21" on="1"/>
        <pt x="416" y="21" on="0"/>
        <pt x="467" y="55" on="1"/>
        <pt x="475" y="61" on="0"/>
        <pt x="477" y="72" on="1"/>
        <pt x="497" y="175" on="1"/>
        <pt x="509" y="234" on="0"/>
        <pt x="507" y="249" on="1"/>
        <pt x="506" y="256" on="0"/>
        <pt x="456" y="265" on="0"/>
        <pt x="441" y="265" on="1"/>
        <pt x="439" y="269" on="0"/>
        <pt x="442" y="290" on="0"/>
        <pt x="446" y="294" on="1"/>
        <pt x="541" y="289" on="0"/>
        <pt x="554" y="289" on="1"/>
        <pt x="566" y="289" on="0"/>
        <pt x="664" y="294" on="1"/>
        <pt x="667" y="290" on="0"/>
        <pt x="664" y="269" on="0"/>
        <pt x="660" y="265" on="1"/>
        <pt x="646" y="265" on="0"/>
        <pt x="599" y="256" on="0"/>
        <pt x="596" y="249" on="1"/>
        <pt x="589" y="235" on="0"/>
        <pt x="577" y="175" on="1"/>
        <pt x="563" y="104" on="1"/>
        <pt x="560" y="95" on="0"/>
        <pt x="565" y="69" on="0"/>
        <pt x="565" y="68" on="1"/>
        <pt x="565" y="57" on="0"/>
        <pt x="543" y="46" on="1"/>
        <pt x="507" y="27" on="0"/>
        <pt x="474" y="12" on="0"/>
        <pt x="381" y="-8" on="0"/>
        <pt x="324" y="-8" on="1"/>
        <pt x="210" y="-8" on="0"/>
        <pt x="59" y="152" on="0"/>
        <pt x="59" y="265" on="1"/>
        <pt x="59" y="386" on="0"/>
        <pt x="176" y="574" on="0"/>
        <pt x="360" y="668" on="0"/>
        <pt x="465" y="666" on="1"/>
        <pt x="524" y="665" on="0"/>
        <pt x="626" y="640" on="1"/>
        <pt x="625" y="619" on="0"/>
        <pt x="616" y="496" on="0"/>
        <pt x="616" y="494" on="1"/>
        <pt x="616" y="489" on="0"/>
        <pt x="608" y="489" on="1"/>
        <pt x="595" y="489" on="0"/>
      </contour>
    </TTGlyph>
    <TTGlyph name="Gamma" xMin="-6" yMin="-16" xMax="454" yMax="664">
      <contour>
        <pt x="168" y="610" on="1"/>
        <pt x="163" y="584" on="0"/>
        <pt x="103" y="253" on="0"/>
        <pt x="99" y="230" on="1"/>
        <pt x="62" y="33" on="0"/>
        <pt x="67" y="1" on="1"/>
        <pt x="53" y="-16" on="0"/>
        <pt x="41" y="-16" on="1"/>
        <pt x="34" y="-16" on="0"/>
        <pt x="-8" y="10" on="0"/>
        <pt x="-6" y="20" on="1"/>
        <pt x="106" y="603" on="1"/>
        <pt x="98" y="631" on="0"/>
        <pt x="50" y="644" on="1"/>
        <pt x="52" y="657" on="0"/>
        <pt x="63" y="663" on="1"/>
        <pt x="140" y="658" on="0"/>
        <pt x="184" y="658" on="1"/>
        <pt x="238" y="658" on="0"/>
        <pt x="389" y="663" on="0"/>
        <pt x="427" y="664" on="1"/>
        <pt x="451" y="583" on="0"/>
        <pt x="454" y="532" on="1"/>
        <pt x="446" y="521" on="0"/>
        <pt x="434" y="518" on="1"/>
        <pt x="406" y="576" on="0"/>
        <pt x="341" y="618" on="0"/>
        <pt x="283" y="618" on="1"/>
        <pt x="232" y="618" on="0"/>
      </contour>
    </TTGlyph>
    <TTGlyph name="Gbreve" xMin="59" yMin="-8" xMax="664" yMax="836">
      <component glyphName="uni0306.cap" x="240" y="203" flags="0x1004"/>
      <component glyphName="G" x="0" y="0" flags="0x1204"/>
    </TTGlyph>
    <TTGlyph name="Gcaron" xMin="59" yMin="-8" xMax="664" yMax="836">
      <component glyphName="G" x="0" y="0" flags="0x1204"/>
      <component glyphName="uni030C.cap" x="183" y="0" flags="0x1004"/>
    </TTGlyph>
    <TTGlyph name="Gcircumflex" xMin="59" yMin="-8" xMax="664" yMax="836">
      <component glyphName="uni0302.cap" x="183" y="0" flags="0x1004"/>
      <component glyphName="G" x="0" y="0" flags="0x1204"/>
    </TTGlyph>
    <TTGlyph name="Gcommaaccent" xMin="59" yMin="-233" xMax="664" yMax="666">
      <component glyphName="uni0326" x="575" y="-40" flags="0x1004"/>
      <component glyphName="G" x="0" y="0" flags="0x1204"/>
    </TTGlyph>
    <TTGlyph name="Gdotaccent" xMin="59" yMin="-8" xMax="664" yMax="828">
      <component glyphName="uni0307.cap" x="190" y="17" flags="0x1004"/>
      <component glyphName="G" x="0" y="0" flags="0x1204"/>
    </TTGlyph>
    <TTGlyph name="H" xMin="-6" yMin="-3" xMax="717" yMax="662">
      <contour>
        <pt x="168" y="116" on="1"/>
        <pt x="156" y="57" on="0"/>
        <pt x="158" y="42" on="1"/>
        <pt x="159" y="35" on="0"/>
        <pt x="205" y="26" on="0"/>
        <pt x="219" y="26" on="1"/>
        <pt x="221" y="22" on="0"/>
        <pt x="217" y="1" on="0"/>
        <pt x="213" y="-3" on="1"/>
        <pt x="118" y="2" on="0"/>
        <pt x="106" y="2" on="1"/>
        <pt x="92" y="2" on="0"/>
        <pt x="-5" y="-3" on="1"/>
        <pt x="-8" y="1" on="0"/>
        <pt x="-4" y="22" on="0"/>
        <pt x="0" y="26" on="1"/>
        <pt x="14" y="26" on="0"/>
        <pt x="65" y="35" on="0"/>
        <pt x="68" y="42" on="1"/>
        <pt x="75" y="56" on="0"/>
        <pt x="87" y="116" on="1"/>
        <pt x="170" y="543" on="1"/>
        <pt x="181" y="599" on="0"/>
        <pt x="179" y="617" on="1"/>
        <pt x="178" y="624" on="0"/>
        <pt x="132" y="633" on="0"/>
        <pt x="118" y="633" on="1"/>
        <pt x="116" y="637" on="0"/>
        <pt x="120" y="658" on="0"/>
        <pt x="124" y="662" on="1"/>
        <pt x="219" y="657" on="0"/>
        <pt x="233" y="657" on="1"/>
        <pt x="246" y="657" on="0"/>
        <pt x="343" y="662" on="1"/>
        <pt x="346" y="658" on="0"/>
        <pt x="341" y="637" on="0"/>
        <pt x="337" y="633" on="1"/>
        <pt x="323" y="633" on="0"/>
        <pt x="273" y="624" on="0"/>
        <pt x="270" y="617" on="1"/>
        <pt x="260" y="597" on="0"/>
        <pt x="251" y="543" on="1"/>
        <pt x="214" y="356" on="1"/>
        <pt x="506" y="356" on="1"/>
        <pt x="543" y="543" on="1"/>
        <pt x="553" y="606" on="0"/>
        <pt x="552" y="617" on="1"/>
        <pt x="551" y="624" on="0"/>
        <pt x="505" y="633" on="0"/>
        <pt x="491" y="633" on="1"/>
        <pt x="489" y="637" on="0"/>
        <pt x="493" y="658" on="0"/>
        <pt x="497" y="662" on="1"/>
        <pt x="592" y="657" on="0"/>
        <pt x="606" y="657" on="1"/>
        <pt x="618" y="657" on="0"/>
        <pt x="716" y="662" on="1"/>
        <pt x="719" y="658" on="0"/>
        <pt x="714" y="637" on="0"/>
        <pt x="710" y="633" on="1"/>
        <pt x="696" y="633" on="0"/>
        <pt x="646" y="624" on="0"/>
        <pt x="643" y="617" on="1"/>
        <pt x="636" y="603" on="0"/>
        <pt x="624" y="543" on="1"/>
        <pt x="541" y="116" on="1"/>
        <pt x="529" y="57" on="0"/>
        <pt x="531" y="42" on="1"/>
        <pt x="532" y="35" on="0"/>
        <pt x="578" y="26" on="0"/>
        <pt x="592" y="26" on="1"/>
        <pt x="594" y="22" on="0"/>
        <pt x="590" y="1" on="0"/>
        <pt x="586" y="-3" on="1"/>
        <pt x="491" y="2" on="0"/>
        <pt x="478" y="2" on="1"/>
        <pt x="466" y="2" on="0"/>
        <pt x="368" y="-3" on="1"/>
        <pt x="365" y="1" on="0"/>
        <pt x="369" y="22" on="0"/>
        <pt x="373" y="26" on="1"/>
        <pt x="387" y="26" on="0"/>
        <pt x="438" y="35" on="0"/>
        <pt x="441" y="42" on="1"/>
        <pt x="448" y="56" on="0"/>
        <pt x="460" y="116" on="1"/>
        <pt x="499" y="316" on="1"/>
        <pt x="207" y="316" on="1"/>
      </contour>
    </TTGlyph>
    <TTGlyph name="Hbar" xMin="-5" yMin="-3" xMax="718" yMax="662">
      <contour>
        <pt x="116" y="506" on="1"/>
        <pt x="116" y="506" on="0"/>
        <pt x="668" y="506" on="1"/>
        <pt x="673" y="506" on="0"/>
        <pt x="671" y="498" on="1"/>
        <pt x="669" y="486" on="0"/>
        <pt x="660" y="472" on="1"/>
        <pt x="660" y="472" on="0"/>
        <pt x="107" y="472" on="1"/>
        <pt x="105" y="472" on="0"/>
        <pt x="104" y="480" on="0"/>
        <pt x="105" y="483" on="1"/>
        <pt x="108" y="497" on="0"/>
      </contour>
      <contour>
        <pt x="169" y="116" on="1"/>
        <pt x="157" y="57" on="0"/>
        <pt x="159" y="42" on="1"/>
        <pt x="160" y="35" on="0"/>
        <pt x="206" y="26" on="0"/>
        <pt x="220" y="26" on="1"/>
        <pt x="222" y="22" on="0"/>
        <pt x="218" y="1" on="0"/>
        <pt x="214" y="-3" on="1"/>
        <pt x="119" y="2" on="0"/>
        <pt x="107" y="2" on="1"/>
        <pt x="94" y="2" on="0"/>
        <pt x="-4" y="-3" on="1"/>
        <pt x="-7" y="1" on="0"/>
        <pt x="-3" y="22" on="0"/>
        <pt x="1" y="26" on="1"/>
        <pt x="15" y="26" on="0"/>
        <pt x="66" y="35" on="0"/>
        <pt x="69" y="42" on="1"/>
        <pt x="76" y="56" on="0"/>
        <pt x="88" y="116" on="1"/>
        <pt x="171" y="543" on="1"/>
        <pt x="182" y="599" on="0"/>
        <pt x="180" y="617" on="1"/>
        <pt x="179" y="624" on="0"/>
        <pt x="133" y="633" on="0"/>
        <pt x="119" y="633" on="1"/>
        <pt x="117" y="637" on="0"/>
        <pt x="121" y="658" on="0"/>
        <pt x="125" y="662" on="1"/>
        <pt x="220" y="657" on="0"/>
        <pt x="234" y="657" on="1"/>
        <pt x="246" y="657" on="0"/>
        <pt x="344" y="662" on="1"/>
        <pt x="347" y="658" on="0"/>
        <pt x="342" y="637" on="0"/>
        <pt x="338" y="633" on="1"/>
        <pt x="324" y="633" on="0"/>
        <pt x="274" y="624" on="0"/>
        <pt x="271" y="617" on="1"/>
        <pt x="261" y="597" on="0"/>
        <pt x="252" y="543" on="1"/>
        <pt x="215" y="356" on="1"/>
        <pt x="507" y="356" on="1"/>
        <pt x="544" y="543" on="1"/>
        <pt x="554" y="606" on="0"/>
        <pt x="553" y="617" on="1"/>
        <pt x="552" y="624" on="0"/>
        <pt x="506" y="633" on="0"/>
        <pt x="492" y="633" on="1"/>
        <pt x="490" y="637" on="0"/>
        <pt x="494" y="658" on="0"/>
        <pt x="498" y="662" on="1"/>
        <pt x="593" y="657" on="0"/>
        <pt x="607" y="657" on="1"/>
        <pt x="620" y="657" on="0"/>
        <pt x="717" y="662" on="1"/>
        <pt x="720" y="658" on="0"/>
        <pt x="715" y="637" on="0"/>
        <pt x="711" y="633" on="1"/>
        <pt x="697" y="633" on="0"/>
        <pt x="647" y="624" on="0"/>
        <pt x="644" y="617" on="1"/>
        <pt x="637" y="603" on="0"/>
        <pt x="625" y="543" on="1"/>
        <pt x="542" y="116" on="1"/>
        <pt x="530" y="57" on="0"/>
        <pt x="532" y="42" on="1"/>
        <pt x="533" y="35" on="0"/>
        <pt x="579" y="26" on="0"/>
        <pt x="593" y="26" on="1"/>
        <pt x="595" y="22" on="0"/>
        <pt x="591" y="1" on="0"/>
        <pt x="587" y="-3" on="1"/>
        <pt x="492" y="2" on="0"/>
        <pt x="466" y="2" on="0"/>
        <pt x="369" y="-3" on="1"/>
        <pt x="366" y="1" on="0"/>
        <pt x="370" y="22" on="0"/>
        <pt x="374" y="26" on="1"/>
        <pt x="388" y="26" on="0"/>
        <pt x="439" y="35" on="0"/>
        <pt x="442" y="42" on="1"/>
        <pt x="449" y="56" on="0"/>
        <pt x="461" y="116" on="1"/>
        <pt x="500" y="316" on="1"/>
        <pt x="208" y="316" on="1"/>
      </contour>
    </TTGlyph>
    <TTGlyph name="Hcircumflex" xMin="-5" yMin="-3" xMax="716" yMax="836">
      <component glyphName="H" x="0" y="0" flags="0x1204"/>
      <component glyphName="uni0302.cap" x="160" y="0" flags="0x1004"/>
    </TTGlyph>
    <TTGlyph name="I" xMin="-6" yMin="-3" xMax="344" yMax="662">
      <contour>
        <pt x="233" y="657" on="1"/>
        <pt x="246" y="657" on="0"/>
        <pt x="343" y="662" on="1"/>
        <pt x="346" y="658" on="0"/>
        <pt x="341" y="637" on="0"/>
        <pt x="337" y="633" on="1"/>
        <pt x="323" y="633" on="0"/>
        <pt x="273" y="624" on="0"/>
        <pt x="270" y="617" on="1"/>
        <pt x="263" y="603" on="0"/>
        <pt x="251" y="543" on="1"/>
        <pt x="168" y="116" on="1"/>
        <pt x="156" y="57" on="0"/>
        <pt x="158" y="42" on="1"/>
        <pt x="159" y="35" on="0"/>
        <pt x="205" y="26" on="0"/>
        <pt x="219" y="26" on="1"/>
        <pt x="221" y="22" on="0"/>
        <pt x="217" y="1" on="0"/>
        <pt x="213" y="-3" on="1"/>
        <pt x="118" y="2" on="0"/>
        <pt x="106" y="2" on="1"/>
        <pt x="92" y="2" on="0"/>
        <pt x="-5" y="-3" on="1"/>
        <pt x="-8" y="1" on="0"/>
        <pt x="-4" y="22" on="0"/>
        <pt x="0" y="26" on="1"/>
        <pt x="14" y="26" on="0"/>
        <pt x="65" y="35" on="0"/>
        <pt x="68" y="42" on="1"/>
        <pt x="75" y="56" on="0"/>
        <pt x="87" y="116" on="1"/>
        <pt x="170" y="543" on="1"/>
        <pt x="181" y="599" on="0"/>
        <pt x="179" y="617" on="1"/>
        <pt x="178" y="624" on="0"/>
        <pt x="132" y="633" on="0"/>
        <pt x="118" y="633" on="1"/>
        <pt x="116" y="637" on="0"/>
        <pt x="120" y="658" on="0"/>
        <pt x="124" y="662" on="1"/>
        <pt x="219" y="657" on="0"/>
      </contour>
    </TTGlyph>
    <TTGlyph name="IJ" xMin="-5" yMin="-233" xMax="600" yMax="662">
      <component glyphName="I" x="0" y="0" flags="0x1004"/>
      <component glyphName="J" x="263" y="0" flags="0x1004"/>
    </TTGlyph>
    <TTGlyph name="Iacute" xMin="-5" yMin="-3" xMax="356" yMax="819">
      <component glyphName="acutecomb.cap" x="25" y="17" flags="0x1004"/>
      <component glyphName="I" x="0" y="0" flags="0x1204"/>
    </TTGlyph>
    <TTGlyph name="Ibreve" xMin="-5" yMin="-3" xMax="364" yMax="836">
      <component glyphName="I" x="0" y="0" flags="0x1204"/>
      <component glyphName="uni0306.cap" x="28" y="203" flags="0x1004"/>
    </TTGlyph>
    <TTGlyph name="Icircumflex" xMin="-5" yMin="-3" xMax="380" yMax="836">
      <component glyphName="uni0302.cap" x="-27" y="0" flags="0x1004"/>
      <component glyphName="I" x="0" y="0" flags="0x1204"/>
    </TTGlyph>
    <TTGlyph name="Idieresis" xMin="-5" yMin="-3" xMax="386" yMax="833">
      <component glyphName="I" x="0" y="0" flags="0x1004"/>
      <component glyphName="uni0308" x="511" y="251" flags="0x1004"/>
    </TTGlyph>
    <TTGlyph name="Idotaccent" xMin="-5" yMin="-3" xMax="343" yMax="828">
      <component glyphName="I" x="0" y="0" flags="0x1204"/>
      <component glyphName="uni0307.cap" x="-20" y="17" flags="0x1004"/>
    </TTGlyph>
    <TTGlyph name="Idotaccent.sc" xMin="0" yMin="-3" xMax="255" yMax="621">
      <component glyphName="i.sc" x="0" y="0" flags="0x1004"/>
      <component glyphName="uni0307" x="447" y="31" flags="0x1004"/>
    </TTGlyph>
    <TTGlyph name="Igrave" xMin="-5" yMin="-3" xMax="343" yMax="818">
      <component glyphName="gravecomb.cap" x="-43" y="16" flags="0x1004"/>
      <component glyphName="I" x="0" y="0" flags="0x1204"/>
    </TTGlyph>
    <TTGlyph name="Imacron" xMin="-5" yMin="-3" xMax="364" yMax="776">
      <component glyphName="I" x="0" y="0" flags="0x1204"/>
      <component glyphName="uni0304.cap" x="-53" y="180" flags="0x1004"/>
    </TTGlyph>
    <TTGlyph name="Iogonek" xMin="-14" yMin="-230" xMax="343" yMax="662">
      <contour>
        <pt x="218" y="26" on="1"/>
        <pt x="222" y="18" on="0"/>
        <pt x="212" y="-3" on="1"/>
        <pt x="191" y="-3" on="0"/>
        <pt x="165" y="-10" on="1"/>
        <pt x="113" y="-25" on="0"/>
        <pt x="39" y="-106" on="0"/>
        <pt x="39" y="-139" on="1"/>
        <pt x="39" y="-171" on="0"/>
        <pt x="70" y="-171" on="1"/>
        <pt x="91" y="-171" on="0"/>
        <pt x="129" y="-152" on="0"/>
        <pt x="152" y="-133" on="0"/>
        <pt x="153" y="-133" on="1"/>
        <pt x="158" y="-134" on="0"/>
        <pt x="150" y="-160" on="0"/>
        <pt x="147" y="-163" on="1"/>
        <pt x="87" y="-230" on="0"/>
        <pt x="36" y="-230" on="1"/>
        <pt x="14" y="-230" on="0"/>
        <pt x="-14" y="-201" on="0"/>
        <pt x="-14" y="-180" on="1"/>
        <pt x="-14" y="-134" on="0"/>
        <pt x="65" y="-19" on="0"/>
        <pt x="108" y="2" on="1"/>
        <pt x="92" y="2" on="0"/>
        <pt x="-6" y="-3" on="1"/>
        <pt x="-9" y="1" on="0"/>
        <pt x="-5" y="22" on="0"/>
        <pt x="-1" y="26" on="1"/>
        <pt x="13" y="26" on="0"/>
        <pt x="64" y="35" on="0"/>
        <pt x="67" y="42" on="1"/>
        <pt x="74" y="56" on="0"/>
        <pt x="86" y="116" on="1"/>
        <pt x="169" y="543" on="1"/>
        <pt x="180" y="599" on="0"/>
        <pt x="178" y="617" on="1"/>
        <pt x="177" y="624" on="0"/>
        <pt x="131" y="633" on="0"/>
        <pt x="117" y="633" on="1"/>
        <pt x="115" y="637" on="0"/>
        <pt x="119" y="658" on="0"/>
        <pt x="123" y="662" on="1"/>
        <pt x="218" y="657" on="0"/>
        <pt x="232" y="657" on="1"/>
        <pt x="244" y="657" on="0"/>
        <pt x="342" y="662" on="1"/>
        <pt x="345" y="658" on="0"/>
        <pt x="340" y="637" on="0"/>
        <pt x="336" y="633" on="1"/>
        <pt x="322" y="633" on="0"/>
        <pt x="272" y="624" on="0"/>
        <pt x="269" y="617" on="1"/>
        <pt x="262" y="603" on="0"/>
        <pt x="250" y="543" on="1"/>
        <pt x="167" y="116" on="1"/>
        <pt x="155" y="57" on="0"/>
        <pt x="157" y="42" on="1"/>
        <pt x="158" y="35" on="0"/>
        <pt x="204" y="26" on="0"/>
      </contour>
    </TTGlyph>
    <TTGlyph name="Iota" xMin="-7" yMin="-16" xMax="182" yMax="664">
      <contour>
        <pt x="142" y="468" on="1"/>
        <pt x="134" y="426" on="0"/>
        <pt x="100" y="252" on="0"/>
        <pt x="94" y="218" on="1"/>
        <pt x="84" y="164" on="0"/>
        <pt x="67" y="16" on="0"/>
        <pt x="69" y="1" on="1"/>
        <pt x="55" y="-16" on="0"/>
        <pt x="42" y="-16" on="1"/>
        <pt x="35" y="-16" on="0"/>
        <pt x="-9" y="10" on="0"/>
        <pt x="-7" y="20" on="1"/>
        <pt x="36" y="207" on="0"/>
        <pt x="65" y="354" on="1"/>
        <pt x="88" y="474" on="0"/>
        <pt x="106" y="647" on="1"/>
        <pt x="108" y="652" on="0"/>
        <pt x="126" y="664" on="0"/>
        <pt x="130" y="664" on="1"/>
        <pt x="148" y="664" on="0"/>
        <pt x="184" y="639" on="0"/>
        <pt x="182" y="627" on="1"/>
        <pt x="182" y="625" on="0"/>
        <pt x="167" y="572" on="0"/>
        <pt x="147" y="496" on="0"/>
      </contour>
    </TTGlyph>
    <TTGlyph name="Iotadieresis" xMin="-7" yMin="-16" xMax="309" yMax="828">
      <component glyphName="uni0308.cap" x="-125" y="16" flags="0x1004"/>
      <component glyphName="Iota" x="0" y="0" flags="0x1204"/>
    </TTGlyph>
    <TTGlyph name="Iotatonos" xMin="-52" yMin="-16" xMax="211" yMax="939">
      <component glyphName="tonos" x="-61" y="235" flags="0x1004"/>
      <component glyphName="Iota" x="-45" y="0" flags="0x1204"/>
    </TTGlyph>
    <TTGlyph name="Itilde" xMin="-5" yMin="-3" xMax="392" yMax="819">
      <component glyphName="I" x="0" y="0" flags="0x1204"/>
      <component glyphName="tildecomb.cap" x="-82" y="14" flags="0x1004"/>
    </TTGlyph>
    <TTGlyph name="J" xMin="-108" yMin="-233" xMax="338" yMax="662">
      <contour>
        <pt x="164" y="543" on="1"/>
        <pt x="174" y="606" on="0"/>
        <pt x="173" y="617" on="1"/>
        <pt x="172" y="624" on="0"/>
        <pt x="126" y="633" on="0"/>
        <pt x="112" y="633" on="1"/>
        <pt x="110" y="637" on="0"/>
        <pt x="114" y="658" on="0"/>
        <pt x="118" y="662" on="1"/>
        <pt x="213" y="657" on="0"/>
        <pt x="227" y="657" on="1"/>
        <pt x="240" y="657" on="0"/>
        <pt x="337" y="662" on="1"/>
        <pt x="340" y="658" on="0"/>
        <pt x="335" y="637" on="0"/>
        <pt x="331" y="633" on="1"/>
        <pt x="317" y="633" on="0"/>
        <pt x="267" y="624" on="0"/>
        <pt x="264" y="617" on="1"/>
        <pt x="254" y="597" on="0"/>
        <pt x="245" y="543" on="1"/>
        <pt x="164" y="116" on="1"/>
        <pt x="146" y="22" on="0"/>
        <pt x="79" y="-120" on="0"/>
        <pt x="1" y="-196" on="0"/>
        <pt x="-72" y="-233" on="0"/>
        <pt x="-105" y="-233" on="1"/>
        <pt x="-108" y="-228" on="0"/>
        <pt x="-108" y="-220" on="1"/>
        <pt x="-107" y="-214" on="1"/>
        <pt x="-26" y="-189" on="0"/>
        <pt x="57" y="-41" on="0"/>
        <pt x="84" y="109" on="1"/>
      </contour>
    </TTGlyph>
    <TTGlyph name="Jcircumflex" xMin="-108" yMin="-233" xMax="356" yMax="836">
      <component glyphName="J" x="0" y="0" flags="0x1204"/>
      <component glyphName="uni0302.cap" x="-51" y="0" flags="0x1004"/>
    </TTGlyph>
    <TTGlyph name="K" xMin="-5" yMin="-3" xMax="666" yMax="662">
      <contour>
        <pt x="481" y="72" on="1"/>
        <pt x="515" y="31" on="0"/>
        <pt x="573" y="26" on="1"/>
        <pt x="578" y="19" on="0"/>
        <pt x="567" y="-3" on="1"/>
        <pt x="464" y="-3" on="0"/>
        <pt x="437" y="8" on="1"/>
        <pt x="404" y="22" on="0"/>
        <pt x="382" y="51" on="1"/>
        <pt x="358" y="84" on="0"/>
        <pt x="222" y="304" on="1"/>
        <pt x="221" y="307" on="0"/>
        <pt x="214" y="307" on="1"/>
        <pt x="209" y="307" on="0"/>
        <pt x="205" y="305" on="1"/>
        <pt x="168" y="116" on="1"/>
        <pt x="157" y="60" on="0"/>
        <pt x="159" y="42" on="1"/>
        <pt x="160" y="35" on="0"/>
        <pt x="206" y="26" on="0"/>
        <pt x="220" y="26" on="1"/>
        <pt x="222" y="22" on="0"/>
        <pt x="218" y="1" on="0"/>
        <pt x="214" y="-3" on="1"/>
        <pt x="119" y="2" on="0"/>
        <pt x="106" y="2" on="1"/>
        <pt x="94" y="2" on="0"/>
        <pt x="-4" y="-3" on="1"/>
        <pt x="-7" y="1" on="0"/>
        <pt x="-3" y="22" on="0"/>
        <pt x="1" y="26" on="1"/>
        <pt x="15" y="26" on="0"/>
        <pt x="65" y="35" on="0"/>
        <pt x="68" y="42" on="1"/>
        <pt x="75" y="56" on="0"/>
        <pt x="87" y="116" on="1"/>
        <pt x="170" y="543" on="1"/>
        <pt x="182" y="602" on="0"/>
        <pt x="180" y="617" on="1"/>
        <pt x="179" y="624" on="0"/>
        <pt x="133" y="633" on="0"/>
        <pt x="119" y="633" on="1"/>
        <pt x="117" y="637" on="0"/>
        <pt x="121" y="658" on="0"/>
        <pt x="125" y="662" on="1"/>
        <pt x="220" y="657" on="0"/>
        <pt x="234" y="657" on="1"/>
        <pt x="246" y="657" on="0"/>
        <pt x="343" y="662" on="1"/>
        <pt x="346" y="658" on="0"/>
        <pt x="342" y="637" on="0"/>
        <pt x="338" y="633" on="1"/>
        <pt x="324" y="633" on="0"/>
        <pt x="273" y="624" on="0"/>
        <pt x="270" y="617" on="1"/>
        <pt x="263" y="603" on="0"/>
        <pt x="251" y="543" on="1"/>
        <pt x="212" y="340" on="1"/>
        <pt x="244" y="359" on="0"/>
        <pt x="336" y="439" on="1"/>
        <pt x="348" y="449" on="0"/>
        <pt x="382" y="479" on="0"/>
        <pt x="395" y="490" on="0"/>
        <pt x="416" y="509" on="0"/>
        <pt x="426" y="518" on="0"/>
        <pt x="441" y="533" on="0"/>
        <pt x="454" y="547" on="0"/>
        <pt x="470" y="564" on="0"/>
        <pt x="481" y="576" on="1"/>
        <pt x="498" y="595" on="0"/>
        <pt x="500" y="607" on="1"/>
        <pt x="505" y="632" on="0"/>
        <pt x="453" y="632" on="1"/>
        <pt x="449" y="644" on="0"/>
        <pt x="459" y="662" on="1"/>
        <pt x="561" y="656" on="0"/>
        <pt x="564" y="656" on="1"/>
        <pt x="588" y="656" on="0"/>
        <pt x="657" y="662" on="0"/>
        <pt x="666" y="662" on="1"/>
        <pt x="667" y="657" on="0"/>
        <pt x="661" y="632" on="0"/>
        <pt x="658" y="632" on="1"/>
        <pt x="657" y="632" on="0"/>
        <pt x="646" y="631" on="0"/>
        <pt x="636" y="630" on="0"/>
        <pt x="620" y="627" on="0"/>
        <pt x="603" y="622" on="0"/>
        <pt x="585" y="615" on="0"/>
        <pt x="567" y="603" on="0"/>
        <pt x="559" y="595" on="1"/>
        <pt x="490" y="529" on="0"/>
        <pt x="302" y="366" on="1"/>
        <pt x="294" y="359" on="0"/>
        <pt x="300" y="350" on="1"/>
        <pt x="426" y="142" on="0"/>
      </contour>
    </TTGlyph>
    <TTGlyph name="Kappa" xMin="-5" yMin="-16" xMax="491" yMax="664">
      <contour>
        <pt x="427" y="50" on="1"/>
        <pt x="382" y="-4" on="0"/>
        <pt x="326" y="-4" on="1"/>
        <pt x="282" y="-4" on="0"/>
        <pt x="217" y="101" on="0"/>
        <pt x="187" y="242" on="0"/>
        <pt x="185" y="315" on="1"/>
        <pt x="92" y="181" on="0"/>
        <pt x="78" y="98" on="1"/>
        <pt x="67" y="16" on="0"/>
        <pt x="70" y="1" on="1"/>
        <pt x="56" y="-16" on="0"/>
        <pt x="44" y="-16" on="1"/>
        <pt x="37" y="-16" on="0"/>
        <pt x="-7" y="10" on="0"/>
        <pt x="-5" y="20" on="1"/>
        <pt x="38" y="207" on="0"/>
        <pt x="67" y="354" on="1"/>
        <pt x="90" y="474" on="0"/>
        <pt x="108" y="647" on="1"/>
        <pt x="110" y="652" on="0"/>
        <pt x="128" y="664" on="0"/>
        <pt x="132" y="664" on="1"/>
        <pt x="150" y="664" on="0"/>
        <pt x="186" y="639" on="0"/>
        <pt x="184" y="627" on="1"/>
        <pt x="184" y="625" on="0"/>
        <pt x="169" y="572" on="0"/>
        <pt x="149" y="496" on="0"/>
        <pt x="144" y="468" on="1"/>
        <pt x="104" y="261" on="0"/>
        <pt x="103" y="258" on="1"/>
        <pt x="164" y="375" on="0"/>
        <pt x="358" y="609" on="0"/>
        <pt x="424" y="660" on="1"/>
        <pt x="429" y="663" on="0"/>
        <pt x="489" y="644" on="0"/>
        <pt x="490" y="642" on="1"/>
        <pt x="497" y="632" on="0"/>
        <pt x="491" y="621" on="1"/>
        <pt x="431" y="587" on="0"/>
        <pt x="277" y="437" on="0"/>
        <pt x="211" y="349" on="1"/>
        <pt x="217" y="230" on="0"/>
        <pt x="320" y="58" on="0"/>
        <pt x="373" y="58" on="1"/>
        <pt x="382" y="58" on="0"/>
        <pt x="399" y="61" on="0"/>
        <pt x="412" y="67" on="0"/>
        <pt x="421" y="72" on="0"/>
        <pt x="425" y="75" on="1"/>
        <pt x="429" y="78" on="1"/>
        <pt x="430" y="78" on="0"/>
        <pt x="431" y="67" on="0"/>
        <pt x="429" y="54" on="0"/>
      </contour>
    </TTGlyph>
    <TTGlyph name="Kcommaaccent" xMin="-4" yMin="-233" xMax="666" yMax="662">
      <component glyphName="uni0326" x="511" y="-40" flags="0x1004"/>
      <component glyphName="K" x="0" y="0" flags="0x1204"/>
    </TTGlyph>
    <TTGlyph name="L" xMin="-6" yMin="-4" xMax="505" yMax="662">
      <contour>
        <pt x="166" y="112" on="1"/>
        <pt x="153" y="45" on="0"/>
        <pt x="158" y="40" on="1"/>
        <pt x="168" y="30" on="0"/>
        <pt x="222" y="30" on="1"/>
        <pt x="275" y="30" on="1"/>
        <pt x="336" y="30" on="0"/>
        <pt x="383" y="57" on="1"/>
        <pt x="431" y="84" on="0"/>
        <pt x="468" y="162" on="1"/>
        <pt x="471" y="168" on="0"/>
        <pt x="483" y="168" on="1"/>
        <pt x="501" y="168" on="0"/>
        <pt x="505" y="162" on="1"/>
        <pt x="499" y="150" on="0"/>
        <pt x="455" y="69" on="0"/>
        <pt x="429" y="16" on="0"/>
        <pt x="422" y="-4" on="1"/>
        <pt x="374" y="-4" on="0"/>
        <pt x="171" y="0" on="0"/>
        <pt x="106" y="0" on="1"/>
        <pt x="83" y="0" on="0"/>
        <pt x="12" y="-3" on="0"/>
        <pt x="-5" y="-3" on="1"/>
        <pt x="-8" y="1" on="0"/>
        <pt x="-3" y="22" on="0"/>
        <pt x="1" y="26" on="1"/>
        <pt x="15" y="26" on="0"/>
        <pt x="65" y="35" on="0"/>
        <pt x="68" y="42" on="1"/>
        <pt x="75" y="56" on="0"/>
        <pt x="87" y="116" on="1"/>
        <pt x="170" y="543" on="1"/>
        <pt x="182" y="602" on="0"/>
        <pt x="180" y="617" on="1"/>
        <pt x="179" y="624" on="0"/>
        <pt x="133" y="633" on="0"/>
        <pt x="119" y="633" on="1"/>
        <pt x="117" y="637" on="0"/>
        <pt x="120" y="658" on="0"/>
        <pt x="124" y="662" on="1"/>
        <pt x="219" y="657" on="0"/>
        <pt x="233" y="657" on="1"/>
        <pt x="246" y="657" on="0"/>
        <pt x="343" y="662" on="1"/>
        <pt x="346" y="658" on="0"/>
        <pt x="341" y="637" on="0"/>
        <pt x="337" y="633" on="1"/>
        <pt x="323" y="633" on="0"/>
        <pt x="273" y="624" on="0"/>
        <pt x="270" y="617" on="1"/>
        <pt x="263" y="603" on="0"/>
        <pt x="251" y="543" on="1"/>
      </contour>
    </TTGlyph>
    <TTGlyph name="Lacute" xMin="-5" yMin="-4" xMax="505" yMax="819">
      <component glyphName="L" x="0" y="0" flags="0x1204"/>
      <component glyphName="acutecomb.cap" x="45" y="17" flags="0x1004"/>
    </TTGlyph>
    <TTGlyph name="Lambda" xMin="-61" yMin="-12" xMax="450" yMax="666">
      <contour>
        <pt x="327" y="626" on="1"/>
        <pt x="341" y="604" on="0"/>
        <pt x="360" y="525" on="0"/>
        <pt x="368" y="459" on="0"/>
        <pt x="379" y="358" on="0"/>
        <pt x="381" y="339" on="1"/>
        <pt x="416" y="64" on="0"/>
        <pt x="450" y="4" on="1"/>
        <pt x="448" y="0" on="0"/>
        <pt x="440" y="-8" on="0"/>
        <pt x="437" y="-10" on="1"/>
        <pt x="434" y="-12" on="1"/>
        <pt x="383" y="-5" on="0"/>
        <pt x="367" y="17" on="1"/>
        <pt x="363" y="31" on="0"/>
        <pt x="355" y="59" on="0"/>
        <pt x="348" y="92" on="0"/>
        <pt x="344" y="115" on="0"/>
        <pt x="338" y="154" on="0"/>
        <pt x="336" y="173" on="0"/>
        <pt x="331" y="221" on="0"/>
        <pt x="329" y="237" on="0"/>
        <pt x="324" y="294" on="0"/>
        <pt x="323" y="302" on="1"/>
        <pt x="321" y="318" on="0"/>
        <pt x="314" y="404" on="0"/>
        <pt x="309" y="446" on="0"/>
        <pt x="300" y="511" on="0"/>
        <pt x="288" y="560" on="0"/>
        <pt x="279" y="582" on="1"/>
        <pt x="169" y="325" on="0"/>
        <pt x="17" y="0" on="1"/>
        <pt x="13" y="-10" on="0"/>
        <pt x="-3" y="-10" on="1"/>
        <pt x="-54" y="11" on="0"/>
        <pt x="-61" y="26" on="1"/>
        <pt x="-37" y="48" on="0"/>
        <pt x="24" y="137" on="0"/>
        <pt x="75" y="224" on="0"/>
        <pt x="145" y="364" on="0"/>
        <pt x="183" y="442" on="0"/>
        <pt x="250" y="585" on="0"/>
        <pt x="256" y="599" on="1"/>
        <pt x="247" y="611" on="0"/>
        <pt x="212" y="608" on="0"/>
        <pt x="192" y="597" on="1"/>
        <pt x="190" y="603" on="0"/>
        <pt x="192" y="613" on="1"/>
        <pt x="200" y="631" on="0"/>
        <pt x="248" y="666" on="0"/>
        <pt x="267" y="666" on="1"/>
        <pt x="284" y="666" on="0"/>
        <pt x="310" y="651" on="0"/>
        <pt x="319" y="638" on="0"/>
      </contour>
    </TTGlyph>
    <TTGlyph name="Lcaron" xMin="-5" yMin="-4" xMax="634" yMax="694">
      <component glyphName="L" x="0" y="0" flags="0x1004"/>
      <component glyphName="uni0315" x="393" y="42" flags="0x1004"/>
    </TTGlyph>
    <TTGlyph name="Lcommaaccent" xMin="-5" yMin="-234" xMax="505" yMax="662">
      <component glyphName="uni0326" x="453" y="-41" flags="0x1004"/>
      <component glyphName="L" x="0" y="0" flags="0x1204"/>
    </TTGlyph>
    <TTGlyph name="Ldot" xMin="-5" yMin="-4" xMax="505" yMax="662">
      <component glyphName="L" x="0" y="0" flags="0x1004"/>
      <component glyphName="uni0307" x="660" y="-207" flags="0x1004"/>
    </TTGlyph>
    <TTGlyph name="Lslash" xMin="-7" yMin="-4" xMax="504" yMax="662">
      <contour>
        <pt x="65" y="207" on="1"/>
        <pt x="438" y="447" on="1"/>
        <pt x="442" y="442" on="0"/>
        <pt x="451" y="418" on="0"/>
        <pt x="448" y="416" on="1"/>
        <pt x="75" y="178" on="1"/>
        <pt x="59" y="202" on="0"/>
      </contour>
      <contour>
        <pt x="165" y="112" on="1"/>
        <pt x="152" y="45" on="0"/>
        <pt x="157" y="40" on="1"/>
        <pt x="167" y="30" on="0"/>
        <pt x="221" y="30" on="1"/>
        <pt x="274" y="30" on="1"/>
        <pt x="336" y="30" on="0"/>
        <pt x="382" y="57" on="1"/>
        <pt x="430" y="84" on="0"/>
        <pt x="467" y="162" on="1"/>
        <pt x="470" y="168" on="0"/>
        <pt x="482" y="168" on="1"/>
        <pt x="500" y="168" on="0"/>
        <pt x="504" y="162" on="1"/>
        <pt x="498" y="150" on="0"/>
        <pt x="454" y="69" on="0"/>
        <pt x="428" y="16" on="0"/>
        <pt x="421" y="-4" on="1"/>
        <pt x="373" y="-4" on="0"/>
        <pt x="170" y="0" on="0"/>
        <pt x="105" y="0" on="1"/>
        <pt x="82" y="0" on="0"/>
        <pt x="11" y="-3" on="0"/>
        <pt x="-6" y="-3" on="1"/>
        <pt x="-9" y="1" on="0"/>
        <pt x="-4" y="22" on="0"/>
        <pt x="0" y="26" on="1"/>
        <pt x="14" y="26" on="0"/>
        <pt x="64" y="35" on="0"/>
        <pt x="67" y="42" on="1"/>
        <pt x="74" y="56" on="0"/>
        <pt x="86" y="116" on="1"/>
        <pt x="169" y="543" on="1"/>
        <pt x="181" y="602" on="0"/>
        <pt x="179" y="617" on="1"/>
        <pt x="178" y="624" on="0"/>
        <pt x="132" y="633" on="0"/>
        <pt x="118" y="633" on="1"/>
        <pt x="116" y="637" on="0"/>
        <pt x="119" y="658" on="0"/>
        <pt x="123" y="662" on="1"/>
        <pt x="218" y="657" on="0"/>
        <pt x="232" y="657" on="1"/>
        <pt x="244" y="657" on="0"/>
        <pt x="342" y="662" on="1"/>
        <pt x="345" y="658" on="0"/>
        <pt x="340" y="637" on="0"/>
        <pt x="336" y="633" on="1"/>
        <pt x="322" y="633" on="0"/>
        <pt x="272" y="624" on="0"/>
        <pt x="269" y="617" on="1"/>
        <pt x="262" y="603" on="0"/>
        <pt x="250" y="543" on="1"/>
      </contour>
    </TTGlyph>
    <TTGlyph name="M" xMin="-24" yMin="-3" xMax="858" yMax="662">
      <contour>
        <pt x="397" y="49" on="1"/>
        <pt x="391" y="39" on="0"/>
        <pt x="359" y="-1" on="0"/>
        <pt x="352" y="-2" on="1"/>
        <pt x="351" y="-2" on="0"/>
        <pt x="344" y="0" on="1"/>
        <pt x="230" y="584" on="1"/>
        <pt x="210" y="488" on="0"/>
        <pt x="155" y="238" on="0"/>
        <pt x="119" y="77" on="0"/>
        <pt x="119" y="75" on="1"/>
        <pt x="115" y="58" on="0"/>
        <pt x="117" y="44" on="1"/>
        <pt x="119" y="34" on="0"/>
        <pt x="171" y="26" on="0"/>
        <pt x="187" y="26" on="1"/>
        <pt x="189" y="22" on="0"/>
        <pt x="185" y="0" on="0"/>
        <pt x="183" y="-3" on="1"/>
        <pt x="90" y="2" on="0"/>
        <pt x="86" y="2" on="1"/>
        <pt x="84" y="2" on="0"/>
        <pt x="-24" y="-3" on="1"/>
        <pt x="-25" y="-1" on="0"/>
        <pt x="-21" y="21" on="0"/>
        <pt x="-18" y="26" on="1"/>
        <pt x="-3" y="26" on="0"/>
        <pt x="53" y="36" on="0"/>
        <pt x="60" y="44" on="1"/>
        <pt x="73" y="59" on="0"/>
        <pt x="81" y="94" on="1"/>
        <pt x="178" y="515" on="0"/>
        <pt x="187" y="572" on="1"/>
        <pt x="193" y="600" on="0"/>
        <pt x="191" y="612" on="1"/>
        <pt x="190" y="620" on="0"/>
        <pt x="142" y="633" on="0"/>
        <pt x="130" y="633" on="1"/>
        <pt x="128" y="638" on="0"/>
        <pt x="133" y="660" on="0"/>
        <pt x="136" y="662" on="1"/>
        <pt x="194" y="658" on="0"/>
        <pt x="226" y="658" on="1"/>
        <pt x="265" y="658" on="0"/>
        <pt x="307" y="662" on="1"/>
        <pt x="310" y="634" on="0"/>
        <pt x="360" y="372" on="0"/>
        <pt x="384" y="256" on="1"/>
        <pt x="407" y="139" on="1"/>
        <pt x="463" y="240" on="1"/>
        <pt x="519" y="340" on="0"/>
        <pt x="576" y="441" on="1"/>
        <pt x="632" y="542" on="1"/>
        <pt x="696" y="662" on="1"/>
        <pt x="754" y="658" on="0"/>
        <pt x="766" y="658" on="1"/>
        <pt x="810" y="658" on="0"/>
        <pt x="858" y="662" on="1"/>
        <pt x="856" y="633" on="1"/>
        <pt x="843" y="633" on="0"/>
        <pt x="791" y="622" on="0"/>
        <pt x="786" y="615" on="1"/>
        <pt x="778" y="600" on="0"/>
        <pt x="774" y="577" on="1"/>
        <pt x="698" y="140" on="1"/>
        <pt x="686" y="73" on="0"/>
        <pt x="691" y="43" on="1"/>
        <pt x="692" y="34" on="0"/>
        <pt x="738" y="26" on="0"/>
        <pt x="752" y="26" on="1"/>
        <pt x="757" y="10" on="0"/>
        <pt x="749" y="-3" on="1"/>
        <pt x="656" y="2" on="0"/>
        <pt x="639" y="2" on="1"/>
        <pt x="634" y="2" on="0"/>
        <pt x="526" y="-3" on="1"/>
        <pt x="525" y="-1" on="0"/>
        <pt x="529" y="21" on="0"/>
        <pt x="532" y="26" on="1"/>
        <pt x="575" y="26" on="0"/>
        <pt x="595" y="37" on="1"/>
        <pt x="603" y="42" on="0"/>
        <pt x="611" y="79" on="1"/>
        <pt x="612" y="85" on="0"/>
        <pt x="637" y="239" on="0"/>
        <pt x="678" y="491" on="0"/>
        <pt x="690" y="566" on="1"/>
      </contour>
    </TTGlyph>
    <TTGlyph name="Mu" xMin="-24" yMin="-22" xMax="623" yMax="666">
      <contour>
        <pt x="602" y="467" on="1"/>
        <pt x="578" y="247" on="0"/>
        <pt x="575" y="217" on="1"/>
        <pt x="569" y="161" on="0"/>
        <pt x="564" y="22" on="0"/>
        <pt x="567" y="3" on="1"/>
        <pt x="553" y="-16" on="0"/>
        <pt x="542" y="-17" on="1"/>
        <pt x="539" y="-18" on="0"/>
        <pt x="511" y="-6" on="0"/>
        <pt x="486" y="11" on="0"/>
        <pt x="487" y="18" on="1"/>
        <pt x="493" y="60" on="0"/>
        <pt x="522" y="261" on="0"/>
        <pt x="532" y="345" on="1"/>
        <pt x="548" y="492" on="0"/>
        <pt x="550" y="550" on="1"/>
        <pt x="467" y="314" on="0"/>
        <pt x="328" y="80" on="1"/>
        <pt x="326" y="76" on="0"/>
        <pt x="318" y="68" on="0"/>
        <pt x="315" y="66" on="1"/>
        <pt x="312" y="64" on="1"/>
        <pt x="259" y="66" on="0"/>
        <pt x="243" y="88" on="1"/>
        <pt x="223" y="130" on="0"/>
        <pt x="182" y="300" on="1"/>
        <pt x="157" y="404" on="0"/>
        <pt x="149" y="500" on="1"/>
        <pt x="87" y="264" on="0"/>
        <pt x="84" y="251" on="1"/>
        <pt x="46" y="86" on="0"/>
        <pt x="50" y="-6" on="1"/>
        <pt x="41" y="-20" on="0"/>
        <pt x="32" y="-22" on="1"/>
        <pt x="17" y="-17" on="0"/>
        <pt x="-20" y="8" on="0"/>
        <pt x="-24" y="24" on="1"/>
        <pt x="-11" y="65" on="0"/>
        <pt x="14" y="144" on="0"/>
        <pt x="36" y="228" on="0"/>
        <pt x="52" y="289" on="0"/>
        <pt x="72" y="378" on="0"/>
        <pt x="82" y="421" on="0"/>
        <pt x="101" y="515" on="0"/>
        <pt x="106" y="539" on="0"/>
        <pt x="125" y="638" on="0"/>
        <pt x="126" y="642" on="1"/>
        <pt x="127" y="648" on="0"/>
        <pt x="141" y="666" on="0"/>
        <pt x="146" y="666" on="1"/>
        <pt x="150" y="666" on="0"/>
        <pt x="160" y="658" on="0"/>
        <pt x="167" y="649" on="0"/>
        <pt x="177" y="635" on="0"/>
        <pt x="178" y="633" on="1"/>
        <pt x="184" y="605" on="0"/>
        <pt x="227" y="394" on="0"/>
        <pt x="241" y="334" on="1"/>
        <pt x="274" y="195" on="0"/>
        <pt x="307" y="121" on="1"/>
        <pt x="445" y="344" on="0"/>
        <pt x="550" y="635" on="1"/>
        <pt x="553" y="644" on="0"/>
        <pt x="569" y="663" on="0"/>
        <pt x="574" y="663" on="1"/>
        <pt x="586" y="663" on="0"/>
        <pt x="621" y="635" on="0"/>
        <pt x="623" y="626" on="1"/>
        <pt x="623" y="623" on="0"/>
        <pt x="616" y="573" on="0"/>
        <pt x="605" y="493" on="0"/>
      </contour>
    </TTGlyph>
    <TTGlyph name="N" xMin="-12" yMin="-5" xMax="773" yMax="662">
      <contour>
        <pt x="628" y="541" on="1"/>
        <pt x="638" y="594" on="0"/>
        <pt x="631" y="613" on="1"/>
        <pt x="628" y="622" on="0"/>
        <pt x="580" y="633" on="0"/>
        <pt x="564" y="633" on="1"/>
        <pt x="558" y="647" on="0"/>
        <pt x="567" y="662" on="1"/>
        <pt x="641" y="658" on="0"/>
        <pt x="669" y="658" on="1"/>
        <pt x="687" y="658" on="0"/>
        <pt x="773" y="662" on="1"/>
        <pt x="779" y="648" on="0"/>
        <pt x="769" y="633" on="1"/>
        <pt x="756" y="633" on="0"/>
        <pt x="700" y="622" on="0"/>
        <pt x="694" y="614" on="1"/>
        <pt x="681" y="597" on="0"/>
        <pt x="672" y="546" on="1"/>
        <pt x="593" y="139" on="1"/>
        <pt x="575" y="42" on="0"/>
        <pt x="568" y="-1" on="1"/>
        <pt x="564" y="-5" on="0"/>
        <pt x="551" y="-5" on="1"/>
        <pt x="536" y="-5" on="0"/>
        <pt x="524" y="18" on="1"/>
        <pt x="224" y="569" on="1"/>
        <pt x="136" y="115" on="1"/>
        <pt x="126" y="63" on="0"/>
        <pt x="132" y="46" on="1"/>
        <pt x="135" y="39" on="0"/>
        <pt x="185" y="26" on="0"/>
        <pt x="199" y="26" on="1"/>
        <pt x="204" y="15" on="0"/>
        <pt x="195" y="-3" on="1"/>
        <pt x="102" y="2" on="0"/>
        <pt x="91" y="2" on="1"/>
        <pt x="72" y="2" on="0"/>
        <pt x="41" y="0" on="0"/>
        <pt x="4" y="-2" on="0"/>
        <pt x="-12" y="-3" on="1"/>
        <pt x="-17" y="9" on="0"/>
        <pt x="-6" y="26" on="1"/>
        <pt x="7" y="26" on="0"/>
        <pt x="64" y="38" on="0"/>
        <pt x="70" y="46" on="1"/>
        <pt x="84" y="65" on="0"/>
        <pt x="93" y="114" on="1"/>
        <pt x="177" y="548" on="1"/>
        <pt x="186" y="600" on="0"/>
        <pt x="181" y="616" on="1"/>
        <pt x="178" y="624" on="0"/>
        <pt x="128" y="633" on="0"/>
        <pt x="113" y="633" on="1"/>
        <pt x="108" y="650" on="0"/>
        <pt x="118" y="662" on="1"/>
        <pt x="202" y="658" on="0"/>
        <pt x="203" y="658" on="1"/>
        <pt x="233" y="658" on="0"/>
        <pt x="285" y="662" on="1"/>
        <pt x="301" y="623" on="0"/>
        <pt x="517" y="241" on="0"/>
        <pt x="554" y="162" on="1"/>
      </contour>
    </TTGlyph>
    <TTGlyph name="Nacute" xMin="-12" yMin="-5" xMax="773" yMax="819">
      <component glyphName="N" x="0" y="0" flags="0x1204"/>
      <component glyphName="acutecomb.cap" x="279" y="17" flags="0x1004"/>
    </TTGlyph>
    <TTGlyph name="Ncaron" xMin="-12" yMin="-5" xMax="773" yMax="836">
      <component glyphName="N" x="0" y="0" flags="0x1204"/>
      <component glyphName="uni030C.cap" x="178" y="0" flags="0x1004"/>
    </TTGlyph>
    <TTGlyph name="Ncommaaccent" xMin="-12" yMin="-233" xMax="773" yMax="662">
      <component glyphName="uni0326" x="549" y="-40" flags="0x1004"/>
      <component glyphName="N" x="0" y="0" flags="0x1204"/>
    </TTGlyph>
    <TTGlyph name="Ntilde" xMin="-12" yMin="-5" xMax="773" yMax="819">
      <component glyphName="N" x="0" y="0" flags="0x1204"/>
      <component glyphName="tildecomb.cap" x="118" y="14" flags="0x1004"/>
    </TTGlyph>
    <TTGlyph name="Nu" xMin="-13" yMin="-22" xMax="474" yMax="663">
      <contour>
        <pt x="363" y="7" on="1"/>
        <pt x="362" y="3" on="0"/>
        <pt x="353" y="-6" on="0"/>
        <pt x="348" y="-8" on="1"/>
        <pt x="344" y="-10" on="1"/>
        <pt x="293" y="0" on="0"/>
        <pt x="279" y="15" on="1"/>
        <pt x="222" y="168" on="0"/>
        <pt x="187" y="302" on="1"/>
        <pt x="180" y="328" on="0"/>
        <pt x="156" y="415" on="0"/>
        <pt x="138" y="481" on="0"/>
        <pt x="132" y="508" on="1"/>
        <pt x="109" y="412" on="0"/>
        <pt x="81" y="250" on="1"/>
        <pt x="55" y="89" on="0"/>
        <pt x="64" y="-5" on="1"/>
        <pt x="62" y="-9" on="0"/>
        <pt x="50" y="-21" on="0"/>
        <pt x="46" y="-22" on="1"/>
        <pt x="-4" y="1" on="0"/>
        <pt x="-13" y="29" on="1"/>
        <pt x="57" y="298" on="0"/>
        <pt x="106" y="640" on="1"/>
        <pt x="112" y="663" on="0"/>
        <pt x="119" y="663" on="1"/>
        <pt x="128" y="663" on="0"/>
        <pt x="155" y="637" on="0"/>
        <pt x="158" y="630" on="1"/>
        <pt x="167" y="600" on="0"/>
        <pt x="230" y="392" on="0"/>
        <pt x="247" y="339" on="1"/>
        <pt x="312" y="126" on="0"/>
        <pt x="339" y="57" on="1"/>
        <pt x="383" y="287" on="0"/>
        <pt x="398" y="386" on="1"/>
        <pt x="430" y="589" on="0"/>
        <pt x="427" y="644" on="1"/>
        <pt x="433" y="659" on="0"/>
        <pt x="444" y="661" on="1"/>
        <pt x="460" y="652" on="0"/>
        <pt x="474" y="554" on="0"/>
        <pt x="474" y="512" on="1"/>
        <pt x="428" y="314" on="0"/>
      </contour>
    </TTGlyph>
    <TTGlyph name="O" xMin="61" yMin="-11" xMax="672" yMax="665">
      <contour>
        <pt x="406" y="635" on="1"/>
        <pt x="308" y="635" on="0"/>
        <pt x="155" y="421" on="0"/>
        <pt x="155" y="268" on="1"/>
        <pt x="155" y="221" on="0"/>
        <pt x="171" y="139" on="0"/>
        <pt x="208" y="62" on="0"/>
        <pt x="279" y="18" on="0"/>
        <pt x="328" y="18" on="1"/>
        <pt x="401" y="18" on="0"/>
        <pt x="518" y="132" on="0"/>
        <pt x="578" y="302" on="0"/>
        <pt x="578" y="393" on="1"/>
        <pt x="578" y="434" on="0"/>
        <pt x="563" y="510" on="0"/>
        <pt x="528" y="588" on="0"/>
        <pt x="456" y="635" on="0"/>
      </contour>
      <contour>
        <pt x="415" y="665" on="1"/>
        <pt x="531" y="665" on="0"/>
        <pt x="672" y="505" on="0"/>
        <pt x="672" y="382" on="1"/>
        <pt x="672" y="210" on="0"/>
        <pt x="466" y="-11" on="0"/>
        <pt x="319" y="-11" on="1"/>
        <pt x="201" y="-11" on="0"/>
        <pt x="61" y="151" on="0"/>
        <pt x="61" y="273" on="1"/>
        <pt x="61" y="441" on="0"/>
        <pt x="274" y="665" on="0"/>
      </contour>
    </TTGlyph>
    <TTGlyph name="OE" xMin="57" yMin="-11" xMax="894" yMax="666">
      <contour>
        <pt x="600" y="657" on="1"/>
        <pt x="642" y="657" on="0"/>
        <pt x="841" y="664" on="0"/>
        <pt x="893" y="664" on="1"/>
        <pt x="891" y="652" on="0"/>
        <pt x="894" y="537" on="0"/>
        <pt x="894" y="528" on="1"/>
        <pt x="889" y="523" on="0"/>
        <pt x="876" y="523" on="1"/>
        <pt x="865" y="523" on="0"/>
        <pt x="865" y="530" on="1"/>
        <pt x="861" y="586" on="0"/>
        <pt x="817" y="630" on="0"/>
        <pt x="777" y="630" on="1"/>
        <pt x="697" y="630" on="1"/>
        <pt x="636" y="630" on="0"/>
        <pt x="631" y="619" on="1"/>
        <pt x="620" y="598" on="0"/>
        <pt x="611" y="547" on="1"/>
        <pt x="574" y="355" on="1"/>
        <pt x="574" y="353" on="0"/>
        <pt x="580" y="351" on="0"/>
        <pt x="592" y="349" on="0"/>
        <pt x="605" y="349" on="0"/>
        <pt x="613" y="349" on="1"/>
        <pt x="662" y="349" on="1"/>
        <pt x="724" y="349" on="0"/>
        <pt x="755" y="367" on="0"/>
        <pt x="774" y="412" on="1"/>
        <pt x="777" y="418" on="0"/>
        <pt x="778" y="421" on="1"/>
        <pt x="781" y="428" on="0"/>
        <pt x="794" y="428" on="1"/>
        <pt x="805" y="428" on="0"/>
        <pt x="808" y="423" on="1"/>
        <pt x="772" y="234" on="1"/>
        <pt x="768" y="230" on="0"/>
        <pt x="756" y="230" on="1"/>
        <pt x="745" y="230" on="0"/>
        <pt x="743" y="238" on="1"/>
        <pt x="740" y="300" on="0"/>
        <pt x="720" y="316" on="0"/>
        <pt x="633" y="316" on="1"/>
        <pt x="566" y="316" on="0"/>
        <pt x="564" y="307" on="1"/>
        <pt x="525" y="109" on="1"/>
        <pt x="512" y="46" on="0"/>
        <pt x="518" y="40" on="1"/>
        <pt x="528" y="30" on="0"/>
        <pt x="582" y="30" on="1"/>
        <pt x="626" y="30" on="1"/>
        <pt x="703" y="30" on="0"/>
        <pt x="750" y="61" on="1"/>
        <pt x="794" y="91" on="0"/>
        <pt x="828" y="162" on="1"/>
        <pt x="831" y="168" on="0"/>
        <pt x="843" y="168" on="1"/>
        <pt x="861" y="168" on="0"/>
        <pt x="865" y="162" on="1"/>
        <pt x="859" y="150" on="0"/>
        <pt x="815" y="69" on="0"/>
        <pt x="789" y="16" on="0"/>
        <pt x="782" y="-4" on="1"/>
        <pt x="744" y="-4" on="0"/>
        <pt x="535" y="1" on="0"/>
        <pt x="466" y="0" on="1"/>
        <pt x="437" y="-1" on="0"/>
        <pt x="341" y="-11" on="0"/>
        <pt x="325" y="-11" on="1"/>
        <pt x="195" y="-11" on="0"/>
        <pt x="57" y="152" on="0"/>
        <pt x="57" y="274" on="1"/>
        <pt x="57" y="436" on="0"/>
        <pt x="264" y="666" on="0"/>
        <pt x="413" y="666" on="1"/>
        <pt x="449" y="666" on="0"/>
        <pt x="568" y="656" on="0"/>
      </contour>
      <contour>
        <pt x="530" y="557" on="1"/>
        <pt x="538" y="599" on="0"/>
        <pt x="457" y="636" on="0"/>
        <pt x="404" y="636" on="1"/>
        <pt x="332" y="636" on="0"/>
        <pt x="213" y="525" on="0"/>
        <pt x="151" y="359" on="0"/>
        <pt x="151" y="272" on="1"/>
        <pt x="151" y="149" on="0"/>
        <pt x="240" y="18" on="0"/>
        <pt x="325" y="18" on="1"/>
        <pt x="359" y="18" on="0"/>
        <pt x="408" y="37" on="0"/>
        <pt x="425" y="54" on="0"/>
        <pt x="429" y="62" on="1"/>
        <pt x="441" y="86" on="0"/>
        <pt x="447" y="116" on="1"/>
      </contour>
    </TTGlyph>
    <TTGlyph name="Oacute" xMin="61" yMin="-11" xMax="672" yMax="819">
      <component glyphName="O" x="0" y="0" flags="0x1204"/>
      <component glyphName="acutecomb.cap" x="203" y="17" flags="0x1004"/>
    </TTGlyph>
    <TTGlyph name="Obreve" xMin="61" yMin="-11" xMax="672" yMax="836">
      <component glyphName="O" x="0" y="0" flags="0x1204"/>
      <component glyphName="uni0306.cap" x="202" y="203" flags="0x1004"/>
    </TTGlyph>
    <TTGlyph name="Ocircumflex" xMin="61" yMin="-11" xMax="672" yMax="836">
      <component glyphName="O" x="0" y="0" flags="0x1204"/>
      <component glyphName="uni0302.cap" x="135" y="0" flags="0x1004"/>
    </TTGlyph>
    <TTGlyph name="Odieresis" xMin="61" yMin="-11" xMax="672" yMax="828">
      <component glyphName="O" x="0" y="0" flags="0x1204"/>
      <component glyphName="uni0308.cap" x="121" y="16" flags="0x1004"/>
    </TTGlyph>
    <TTGlyph name="Ograve" xMin="61" yMin="-11" xMax="672" yMax="818">
      <component glyphName="O" x="0" y="0" flags="0x1204"/>
      <component glyphName="gravecomb.cap" x="119" y="16" flags="0x1004"/>
    </TTGlyph>
    <TTGlyph name="Ohorn" xMin="61" yMin="-11" xMax="752" yMax="708">
      <contour>
        <pt x="406" y="635" on="1"/>
        <pt x="308" y="635" on="0"/>
        <pt x="155" y="421" on="0"/>
        <pt x="155" y="268" on="1"/>
        <pt x="155" y="221" on="0"/>
        <pt x="171" y="139" on="0"/>
        <pt x="208" y="62" on="0"/>
        <pt x="279" y="18" on="0"/>
        <pt x="328" y="18" on="1"/>
        <pt x="401" y="18" on="0"/>
        <pt x="518" y="132" on="0"/>
        <pt x="578" y="302" on="0"/>
        <pt x="578" y="393" on="1"/>
        <pt x="578" y="434" on="0"/>
        <pt x="563" y="510" on="0"/>
        <pt x="528" y="588" on="0"/>
        <pt x="456" y="635" on="0"/>
      </contour>
      <contour>
        <pt x="645" y="592" on="1"/>
        <pt x="662" y="592" on="0"/>
        <pt x="687" y="612" on="0"/>
        <pt x="687" y="627" on="1"/>
        <pt x="687" y="630" on="0"/>
        <pt x="678" y="648" on="1"/>
        <pt x="671" y="664" on="0"/>
        <pt x="671" y="670" on="1"/>
        <pt x="671" y="687" on="0"/>
        <pt x="704" y="708" on="0"/>
        <pt x="720" y="708" on="1"/>
        <pt x="732" y="708" on="0"/>
        <pt x="742" y="704" on="1"/>
        <pt x="752" y="687" on="0"/>
        <pt x="752" y="670" on="1"/>
        <pt x="752" y="626" on="0"/>
        <pt x="671" y="561" on="0"/>
        <pt x="633" y="561" on="1"/>
        <pt x="624" y="561" on="0"/>
        <pt x="619" y="562" on="1"/>
        <pt x="672" y="487" on="0"/>
        <pt x="672" y="382" on="1"/>
        <pt x="672" y="210" on="0"/>
        <pt x="466" y="-11" on="0"/>
        <pt x="319" y="-11" on="1"/>
        <pt x="201" y="-11" on="0"/>
        <pt x="61" y="151" on="0"/>
        <pt x="61" y="273" on="1"/>
        <pt x="61" y="441" on="0"/>
        <pt x="274" y="665" on="0"/>
        <pt x="415" y="665" on="1"/>
        <pt x="487" y="665" on="0"/>
        <pt x="544" y="632" on="1"/>
        <pt x="546" y="631" on="0"/>
        <pt x="572" y="616" on="0"/>
        <pt x="577" y="613" on="0"/>
        <pt x="598" y="602" on="0"/>
        <pt x="607" y="599" on="0"/>
        <pt x="624" y="594" on="0"/>
        <pt x="638" y="592" on="0"/>
      </contour>
    </TTGlyph>
    <TTGlyph name="Ohungarumlaut" xMin="61" yMin="-11" xMax="672" yMax="826">
      <component glyphName="O" x="0" y="0" flags="0x1204"/>
      <component glyphName="uni030B.cap" x="167" y="24" flags="0x1004"/>
    </TTGlyph>
    <TTGlyph name="Omacron" xMin="61" yMin="-11" xMax="672" yMax="776">
      <component glyphName="O" x="0" y="0" flags="0x1204"/>
      <component glyphName="uni0304.cap" x="134" y="180" flags="0x1004"/>
    </TTGlyph>
    <TTGlyph name="Omega" xMin="12" yMin="0" xMax="626" yMax="667">
      <contour>
        <pt x="414" y="667" on="1"/>
        <pt x="534" y="667" on="0"/>
        <pt x="653" y="476" on="0"/>
        <pt x="626" y="335" on="1"/>
        <pt x="608" y="246" on="0"/>
        <pt x="491" y="101" on="0"/>
        <pt x="410" y="60" on="1"/>
        <pt x="422" y="54" on="0"/>
        <pt x="477" y="54" on="1"/>
        <pt x="534" y="54" on="0"/>
        <pt x="600" y="97" on="1"/>
        <pt x="605" y="97" on="0"/>
        <pt x="608" y="86" on="0"/>
        <pt x="607" y="82" on="1"/>
        <pt x="600" y="70" on="0"/>
        <pt x="572" y="37" on="0"/>
        <pt x="513" y="0" on="0"/>
        <pt x="484" y="0" on="1"/>
        <pt x="364" y="0" on="1"/>
        <pt x="349" y="30" on="0"/>
        <pt x="353" y="51" on="1"/>
        <pt x="356" y="63" on="0"/>
        <pt x="368" y="75" on="1"/>
        <pt x="517" y="167" on="0"/>
        <pt x="552" y="349" on="1"/>
        <pt x="576" y="475" on="0"/>
        <pt x="498" y="627" on="0"/>
        <pt x="415" y="627" on="1"/>
        <pt x="350" y="627" on="0"/>
        <pt x="235" y="530" on="0"/>
        <pt x="170" y="405" on="0"/>
        <pt x="158" y="343" on="1"/>
        <pt x="137" y="236" on="0"/>
        <pt x="186" y="100" on="0"/>
        <pt x="235" y="70" on="1"/>
        <pt x="256" y="29" on="0"/>
        <pt x="254" y="19" on="1"/>
        <pt x="251" y="7" on="0"/>
        <pt x="228" y="0" on="1"/>
        <pt x="65" y="0" on="1"/>
        <pt x="58" y="4" on="0"/>
        <pt x="15" y="56" on="0"/>
        <pt x="12" y="64" on="1"/>
        <pt x="18" y="75" on="0"/>
        <pt x="31" y="75" on="1"/>
        <pt x="37" y="73" on="0"/>
        <pt x="67" y="60" on="0"/>
        <pt x="93" y="53" on="0"/>
        <pt x="111" y="52" on="1"/>
        <pt x="125" y="51" on="0"/>
        <pt x="160" y="54" on="0"/>
        <pt x="170" y="56" on="1"/>
        <pt x="181" y="57" on="1"/>
        <pt x="120" y="88" on="0"/>
        <pt x="65" y="256" on="0"/>
        <pt x="84" y="353" on="1"/>
        <pt x="110" y="484" on="0"/>
        <pt x="302" y="667" on="0"/>
      </contour>
    </TTGlyph>
    <TTGlyph name="Omegatonos" xMin="15" yMin="0" xMax="629" yMax="939">
      <component glyphName="tonos" x="264" y="235" flags="0x1004"/>
      <component glyphName="Omega" x="3" y="0" flags="0x1204"/>
    </TTGlyph>
    <TTGlyph name="Omicron" xMin="71" yMin="-10" xMax="634" yMax="667">
      <contour>
        <pt x="414" y="627" on="1"/>
        <pt x="350" y="627" on="0"/>
        <pt x="232" y="530" on="0"/>
        <pt x="158" y="388" on="0"/>
        <pt x="142" y="309" on="1"/>
        <pt x="131" y="238" on="0"/>
        <pt x="146" y="113" on="0"/>
        <pt x="223" y="29" on="0"/>
        <pt x="284" y="29" on="1"/>
        <pt x="379" y="29" on="0"/>
        <pt x="538" y="219" on="0"/>
        <pt x="561" y="339" on="1"/>
        <pt x="572" y="412" on="0"/>
        <pt x="556" y="540" on="0"/>
        <pt x="477" y="627" on="0"/>
      </contour>
      <contour>
        <pt x="417" y="667" on="1"/>
        <pt x="537" y="667" on="0"/>
        <pt x="664" y="474" on="0"/>
        <pt x="634" y="319" on="1"/>
        <pt x="607" y="180" on="0"/>
        <pt x="403" y="-10" on="0"/>
        <pt x="285" y="-10" on="1"/>
        <pt x="164" y="-10" on="0"/>
        <pt x="40" y="178" on="0"/>
        <pt x="71" y="337" on="1"/>
        <pt x="98" y="476" on="0"/>
        <pt x="299" y="667" on="0"/>
      </contour>
    </TTGlyph>
    <TTGlyph name="Omicrontonos" xMin="47" yMin="-10" xMax="610" yMax="939">
      <component glyphName="tonos" x="139" y="235" flags="0x1004"/>
      <component glyphName="Omicron" x="-24" y="0" flags="0x1204"/>
    </TTGlyph>
    <TTGlyph name="Oslash" xMin="61" yMin="-13" xMax="672" yMax="667">
      <contour>
        <pt x="118" y="-13" on="1"/>
        <pt x="111" y="-10" on="0"/>
        <pt x="93" y="6" on="0"/>
        <pt x="96" y="10" on="1"/>
        <pt x="612" y="667" on="1"/>
        <pt x="619" y="665" on="0"/>
        <pt x="638" y="649" on="0"/>
        <pt x="635" y="645" on="1"/>
      </contour>
      <contour>
        <pt x="406" y="635" on="1"/>
        <pt x="308" y="635" on="0"/>
        <pt x="155" y="421" on="0"/>
        <pt x="155" y="268" on="1"/>
        <pt x="155" y="221" on="0"/>
        <pt x="171" y="139" on="0"/>
        <pt x="208" y="62" on="0"/>
        <pt x="279" y="18" on="0"/>
        <pt x="328" y="18" on="1"/>
        <pt x="401" y="18" on="0"/>
        <pt x="518" y="132" on="0"/>
        <pt x="578" y="302" on="0"/>
        <pt x="578" y="393" on="1"/>
        <pt x="578" y="434" on="0"/>
        <pt x="563" y="510" on="0"/>
        <pt x="528" y="588" on="0"/>
        <pt x="456" y="635" on="0"/>
      </contour>
      <contour>
        <pt x="415" y="665" on="1"/>
        <pt x="531" y="665" on="0"/>
        <pt x="672" y="505" on="0"/>
        <pt x="672" y="382" on="1"/>
        <pt x="672" y="210" on="0"/>
        <pt x="466" y="-11" on="0"/>
        <pt x="319" y="-11" on="1"/>
        <pt x="201" y="-11" on="0"/>
        <pt x="61" y="151" on="0"/>
        <pt x="61" y="273" on="1"/>
        <pt x="61" y="441" on="0"/>
        <pt x="274" y="665" on="0"/>
      </contour>
    </TTGlyph>
    <TTGlyph name="Otilde" xMin="61" yMin="-11" xMax="672" yMax="819">
      <component glyphName="O" x="0" y="0" flags="0x1204"/>
      <component glyphName="tildecomb.cap" x="102" y="14" flags="0x1004"/>
    </TTGlyph>
    <TTGlyph name="P" xMin="-6" yMin="-3" xMax="523" yMax="662">
      <contour>
        <pt x="523" y="508" on="1"/>
        <pt x="523" y="414" on="0"/>
        <pt x="383" y="282" on="0"/>
        <pt x="290" y="282" on="1"/>
        <pt x="258" y="282" on="0"/>
        <pt x="245" y="292" on="1"/>
        <pt x="237" y="300" on="0"/>
        <pt x="237" y="308" on="1"/>
        <pt x="237" y="310" on="0"/>
        <pt x="241" y="312" on="1"/>
        <pt x="249" y="308" on="0"/>
        <pt x="274" y="308" on="1"/>
        <pt x="333" y="308" on="0"/>
        <pt x="434" y="414" on="0"/>
        <pt x="434" y="494" on="1"/>
        <pt x="434" y="630" on="0"/>
        <pt x="318" y="630" on="1"/>
        <pt x="276" y="630" on="0"/>
        <pt x="264" y="610" on="0"/>
        <pt x="251" y="545" on="1"/>
        <pt x="167" y="116" on="1"/>
        <pt x="156" y="60" on="0"/>
        <pt x="158" y="42" on="1"/>
        <pt x="159" y="35" on="0"/>
        <pt x="205" y="26" on="0"/>
        <pt x="219" y="26" on="1"/>
        <pt x="221" y="22" on="0"/>
        <pt x="217" y="1" on="0"/>
        <pt x="213" y="-3" on="1"/>
        <pt x="118" y="2" on="0"/>
        <pt x="92" y="2" on="0"/>
        <pt x="-5" y="-3" on="1"/>
        <pt x="-8" y="1" on="0"/>
        <pt x="-4" y="22" on="0"/>
        <pt x="0" y="26" on="1"/>
        <pt x="14" y="26" on="0"/>
        <pt x="65" y="35" on="0"/>
        <pt x="68" y="42" on="1"/>
        <pt x="75" y="56" on="0"/>
        <pt x="87" y="116" on="1"/>
        <pt x="170" y="543" on="1"/>
        <pt x="181" y="599" on="0"/>
        <pt x="179" y="617" on="1"/>
        <pt x="178" y="624" on="0"/>
        <pt x="132" y="633" on="0"/>
        <pt x="118" y="633" on="1"/>
        <pt x="116" y="637" on="0"/>
        <pt x="120" y="658" on="0"/>
        <pt x="124" y="662" on="1"/>
        <pt x="219" y="657" on="0"/>
        <pt x="251" y="657" on="0"/>
        <pt x="312" y="659" on="0"/>
        <pt x="342" y="659" on="1"/>
        <pt x="422" y="659" on="0"/>
        <pt x="523" y="576" on="0"/>
      </contour>
    </TTGlyph>
    <TTGlyph name="Phi" xMin="51" yMin="-16" xMax="552" yMax="664">
      <contour>
        <pt x="51" y="319" on="1"/>
        <pt x="66" y="407" on="0"/>
        <pt x="207" y="537" on="0"/>
        <pt x="308" y="550" on="1"/>
        <pt x="315" y="595" on="0"/>
        <pt x="320" y="647" on="1"/>
        <pt x="322" y="652" on="0"/>
        <pt x="337" y="664" on="0"/>
        <pt x="341" y="664" on="1"/>
        <pt x="359" y="664" on="0"/>
        <pt x="397" y="639" on="0"/>
        <pt x="395" y="627" on="1"/>
        <pt x="395" y="626" on="0"/>
        <pt x="388" y="605" on="0"/>
        <pt x="378" y="569" on="0"/>
        <pt x="374" y="552" on="1"/>
        <pt x="468" y="544" on="0"/>
        <pt x="566" y="424" on="0"/>
        <pt x="552" y="339" on="1"/>
        <pt x="538" y="251" on="0"/>
        <pt x="392" y="120" on="0"/>
        <pt x="290" y="107" on="1"/>
        <pt x="279" y="14" on="0"/>
        <pt x="281" y="1" on="1"/>
        <pt x="267" y="-16" on="0"/>
        <pt x="258" y="-16" on="1"/>
        <pt x="251" y="-16" on="0"/>
        <pt x="205" y="10" on="0"/>
        <pt x="207" y="20" on="1"/>
        <pt x="216" y="55" on="0"/>
        <pt x="227" y="106" on="1"/>
        <pt x="132" y="114" on="0"/>
        <pt x="37" y="233" on="0"/>
      </contour>
      <contour>
        <pt x="356" y="470" on="1"/>
        <pt x="346" y="417" on="0"/>
        <pt x="313" y="249" on="0"/>
        <pt x="307" y="218" on="1"/>
        <pt x="304" y="202" on="0"/>
        <pt x="295" y="139" on="1"/>
        <pt x="360" y="152" on="0"/>
        <pt x="464" y="260" on="0"/>
        <pt x="478" y="329" on="1"/>
        <pt x="491" y="399" on="0"/>
        <pt x="428" y="507" on="0"/>
        <pt x="366" y="519" on="1"/>
        <pt x="365" y="513" on="0"/>
      </contour>
      <contour>
        <pt x="305" y="518" on="1"/>
        <pt x="240" y="504" on="0"/>
        <pt x="134" y="397" on="0"/>
        <pt x="121" y="329" on="1"/>
        <pt x="108" y="259" on="0"/>
        <pt x="172" y="151" on="0"/>
        <pt x="234" y="139" on="1"/>
        <pt x="268" y="293" on="0"/>
        <pt x="279" y="354" on="1"/>
        <pt x="291" y="417" on="0"/>
      </contour>
    </TTGlyph>
    <TTGlyph name="Pi" xMin="-5" yMin="-16" xMax="549" yMax="669">
      <contour>
        <pt x="168" y="610" on="1"/>
        <pt x="163" y="584" on="0"/>
        <pt x="103" y="253" on="0"/>
        <pt x="99" y="230" on="1"/>
        <pt x="63" y="36" on="0"/>
        <pt x="68" y="1" on="1"/>
        <pt x="54" y="-16" on="0"/>
        <pt x="41" y="-16" on="1"/>
        <pt x="34" y="-16" on="0"/>
        <pt x="-7" y="10" on="0"/>
        <pt x="-5" y="20" on="1"/>
        <pt x="106" y="603" on="1"/>
        <pt x="99" y="629" on="0"/>
        <pt x="41" y="644" on="1"/>
        <pt x="43" y="657" on="0"/>
        <pt x="54" y="663" on="1"/>
        <pt x="143" y="657" on="0"/>
        <pt x="184" y="658" on="1"/>
        <pt x="228" y="658" on="0"/>
        <pt x="359" y="668" on="0"/>
        <pt x="411" y="669" on="1"/>
        <pt x="532" y="642" on="0"/>
        <pt x="549" y="624" on="1"/>
        <pt x="551" y="619" on="0"/>
        <pt x="545" y="607" on="0"/>
        <pt x="542" y="606" on="1"/>
        <pt x="497" y="612" on="0"/>
        <pt x="465" y="615" on="1"/>
        <pt x="440" y="531" on="0"/>
        <pt x="428" y="468" on="1"/>
        <pt x="399" y="314" on="0"/>
        <pt x="381" y="218" on="1"/>
        <pt x="371" y="163" on="0"/>
        <pt x="353" y="16" on="0"/>
        <pt x="355" y="1" on="1"/>
        <pt x="341" y="-16" on="0"/>
        <pt x="329" y="-16" on="1"/>
        <pt x="322" y="-16" on="0"/>
        <pt x="277" y="10" on="0"/>
        <pt x="279" y="20" on="1"/>
        <pt x="326" y="206" on="0"/>
        <pt x="350" y="354" on="1"/>
        <pt x="376" y="513" on="0"/>
        <pt x="388" y="618" on="1"/>
        <pt x="362" y="618" on="1"/>
        <pt x="232" y="618" on="0"/>
      </contour>
    </TTGlyph>
    <TTGlyph name="Psi" xMin="59" yMin="-16" xMax="739" yMax="666">
      <contour>
        <pt x="157" y="491" on="1"/>
        <pt x="146" y="574" on="0"/>
        <pt x="136" y="592" on="1"/>
        <pt x="124" y="614" on="0"/>
        <pt x="103" y="614" on="1"/>
        <pt x="81" y="614" on="0"/>
        <pt x="59" y="597" on="1"/>
        <pt x="57" y="603" on="0"/>
        <pt x="59" y="613" on="1"/>
        <pt x="67" y="631" on="0"/>
        <pt x="118" y="666" on="0"/>
        <pt x="137" y="666" on="1"/>
        <pt x="173" y="666" on="0"/>
        <pt x="205" y="586" on="0"/>
        <pt x="216" y="480" on="1"/>
        <pt x="229" y="348" on="0"/>
        <pt x="326" y="337" on="1"/>
        <pt x="326" y="339" on="0"/>
        <pt x="328" y="352" on="0"/>
        <pt x="329" y="354" on="1"/>
        <pt x="352" y="474" on="0"/>
        <pt x="370" y="647" on="1"/>
        <pt x="373" y="652" on="0"/>
        <pt x="385" y="664" on="0"/>
        <pt x="389" y="664" on="1"/>
        <pt x="407" y="664" on="0"/>
        <pt x="448" y="639" on="0"/>
        <pt x="446" y="627" on="1"/>
        <pt x="446" y="625" on="0"/>
        <pt x="431" y="572" on="0"/>
        <pt x="411" y="496" on="0"/>
        <pt x="406" y="468" on="1"/>
        <pt x="401" y="441" on="0"/>
        <pt x="382" y="343" on="0"/>
        <pt x="381" y="339" on="1"/>
        <pt x="426" y="351" on="0"/>
        <pt x="503" y="440" on="0"/>
        <pt x="544" y="513" on="1"/>
        <pt x="587" y="590" on="0"/>
        <pt x="651" y="665" on="0"/>
        <pt x="689" y="665" on="1"/>
        <pt x="705" y="665" on="0"/>
        <pt x="736" y="642" on="0"/>
        <pt x="739" y="633" on="1"/>
        <pt x="734" y="619" on="0"/>
        <pt x="730" y="618" on="1"/>
        <pt x="721" y="621" on="0"/>
        <pt x="701" y="621" on="1"/>
        <pt x="691" y="621" on="0"/>
        <pt x="671" y="606" on="0"/>
        <pt x="651" y="576" on="0"/>
        <pt x="635" y="549" on="0"/>
        <pt x="612" y="507" on="0"/>
        <pt x="606" y="496" on="1"/>
        <pt x="551" y="403" on="0"/>
        <pt x="446" y="307" on="0"/>
        <pt x="373" y="297" on="1"/>
        <pt x="363" y="249" on="0"/>
        <pt x="358" y="218" on="1"/>
        <pt x="348" y="164" on="0"/>
        <pt x="331" y="16" on="0"/>
        <pt x="333" y="1" on="1"/>
        <pt x="319" y="-16" on="0"/>
        <pt x="306" y="-16" on="1"/>
        <pt x="299" y="-16" on="0"/>
        <pt x="256" y="10" on="0"/>
        <pt x="258" y="20" on="1"/>
        <pt x="291" y="164" on="0"/>
        <pt x="318" y="298" on="1"/>
        <pt x="248" y="302" on="0"/>
        <pt x="171" y="395" on="0"/>
      </contour>
    </TTGlyph>
    <TTGlyph name="Q" xMin="61" yMin="-136" xMax="685" yMax="665">
      <contour>
        <pt x="415" y="665" on="1"/>
        <pt x="531" y="665" on="0"/>
        <pt x="672" y="505" on="0"/>
        <pt x="672" y="382" on="1"/>
        <pt x="672" y="231" on="0"/>
        <pt x="510" y="21" on="0"/>
        <pt x="386" y="-4" on="1"/>
        <pt x="402" y="-13" on="0"/>
        <pt x="462" y="-53" on="0"/>
        <pt x="489" y="-67" on="0"/>
        <pt x="543" y="-81" on="0"/>
        <pt x="575" y="-81" on="1"/>
        <pt x="620" y="-81" on="0"/>
        <pt x="666" y="-68" on="1"/>
        <pt x="671" y="-68" on="0"/>
        <pt x="685" y="-78" on="0"/>
        <pt x="685" y="-81" on="1"/>
        <pt x="577" y="-136" on="0"/>
        <pt x="509" y="-136" on="1"/>
        <pt x="467" y="-136" on="0"/>
        <pt x="378" y="-85" on="0"/>
        <pt x="273" y="-12" on="0"/>
        <pt x="228" y="4" on="1"/>
        <pt x="149" y="32" on="0"/>
        <pt x="61" y="177" on="0"/>
        <pt x="61" y="273" on="1"/>
        <pt x="61" y="441" on="0"/>
        <pt x="274" y="665" on="0"/>
      </contour>
      <contour>
        <pt x="406" y="635" on="1"/>
        <pt x="308" y="635" on="0"/>
        <pt x="155" y="421" on="0"/>
        <pt x="155" y="268" on="1"/>
        <pt x="155" y="221" on="0"/>
        <pt x="171" y="139" on="0"/>
        <pt x="208" y="62" on="0"/>
        <pt x="279" y="18" on="0"/>
        <pt x="328" y="18" on="1"/>
        <pt x="401" y="18" on="0"/>
        <pt x="518" y="132" on="0"/>
        <pt x="578" y="302" on="0"/>
        <pt x="578" y="393" on="1"/>
        <pt x="578" y="434" on="0"/>
        <pt x="563" y="510" on="0"/>
        <pt x="528" y="588" on="0"/>
        <pt x="456" y="635" on="0"/>
      </contour>
    </TTGlyph>
    <TTGlyph name="R" xMin="-6" yMin="-3" xMax="559" yMax="662">
      <contour>
        <pt x="553" y="-3" on="1"/>
        <pt x="480" y="-3" on="0"/>
        <pt x="400" y="16" on="0"/>
        <pt x="384" y="47" on="1"/>
        <pt x="329" y="155" on="0"/>
        <pt x="279" y="291" on="1"/>
        <pt x="275" y="303" on="0"/>
        <pt x="253" y="303" on="1"/>
        <pt x="204" y="303" on="1"/>
        <pt x="168" y="116" on="1"/>
        <pt x="156" y="57" on="0"/>
        <pt x="158" y="42" on="1"/>
        <pt x="159" y="35" on="0"/>
        <pt x="205" y="26" on="0"/>
        <pt x="219" y="26" on="1"/>
        <pt x="221" y="22" on="0"/>
        <pt x="217" y="1" on="0"/>
        <pt x="213" y="-3" on="1"/>
        <pt x="118" y="2" on="0"/>
        <pt x="106" y="2" on="1"/>
        <pt x="92" y="2" on="0"/>
        <pt x="-5" y="-3" on="1"/>
        <pt x="-8" y="1" on="0"/>
        <pt x="-4" y="22" on="0"/>
        <pt x="0" y="26" on="1"/>
        <pt x="14" y="26" on="0"/>
        <pt x="65" y="35" on="0"/>
        <pt x="68" y="42" on="1"/>
        <pt x="75" y="56" on="0"/>
        <pt x="87" y="116" on="1"/>
        <pt x="170" y="543" on="1"/>
        <pt x="181" y="599" on="0"/>
        <pt x="179" y="617" on="1"/>
        <pt x="178" y="624" on="0"/>
        <pt x="132" y="633" on="0"/>
        <pt x="118" y="633" on="1"/>
        <pt x="116" y="637" on="0"/>
        <pt x="120" y="658" on="0"/>
        <pt x="124" y="662" on="1"/>
        <pt x="219" y="657" on="0"/>
        <pt x="236" y="657" on="1"/>
        <pt x="252" y="657" on="0"/>
        <pt x="338" y="659" on="0"/>
        <pt x="368" y="659" on="1"/>
        <pt x="435" y="659" on="0"/>
        <pt x="524" y="585" on="0"/>
        <pt x="524" y="451" on="0"/>
        <pt x="425" y="344" on="0"/>
        <pt x="360" y="320" on="1"/>
        <pt x="411" y="180" on="0"/>
        <pt x="466" y="86" on="1"/>
        <pt x="484" y="55" on="0"/>
        <pt x="522" y="29" on="0"/>
        <pt x="559" y="26" on="1"/>
        <pt x="564" y="19" on="0"/>
      </contour>
      <contour>
        <pt x="210" y="333" on="1"/>
        <pt x="260" y="333" on="1"/>
        <pt x="327" y="333" on="0"/>
        <pt x="435" y="427" on="0"/>
        <pt x="435" y="512" on="1"/>
        <pt x="435" y="531" on="0"/>
        <pt x="427" y="566" on="0"/>
        <pt x="405" y="606" on="0"/>
        <pt x="355" y="630" on="0"/>
        <pt x="319" y="630" on="1"/>
        <pt x="276" y="630" on="0"/>
        <pt x="264" y="610" on="0"/>
        <pt x="251" y="545" on="1"/>
      </contour>
    </TTGlyph>
    <TTGlyph name="Racute" xMin="-5" yMin="-3" xMax="559" yMax="819">
      <component glyphName="R" x="0" y="0" flags="0x1204"/>
      <component glyphName="acutecomb.cap" x="123" y="17" flags="0x1004"/>
    </TTGlyph>
    <TTGlyph name="Rcaron" xMin="-5" yMin="-3" xMax="559" yMax="836">
      <component glyphName="R" x="0" y="0" flags="0x1204"/>
      <component glyphName="uni030C.cap" x="59" y="0" flags="0x1004"/>
    </TTGlyph>
    <TTGlyph name="Rcommaaccent" xMin="-5" yMin="-233" xMax="559" yMax="662">
      <component glyphName="uni0326" x="505" y="-40" flags="0x1004"/>
      <component glyphName="R" x="0" y="0" flags="0x1204"/>
    </TTGlyph>
    <TTGlyph name="Rho" xMin="-7" yMin="-16" xMax="441" yMax="663">
      <contour>
        <pt x="260" y="620" on="1"/>
        <pt x="203" y="620" on="0"/>
        <pt x="166" y="610" on="1"/>
        <pt x="161" y="584" on="0"/>
        <pt x="101" y="253" on="0"/>
        <pt x="97" y="230" on="1"/>
        <pt x="61" y="36" on="0"/>
        <pt x="66" y="1" on="1"/>
        <pt x="52" y="-16" on="0"/>
        <pt x="39" y="-16" on="1"/>
        <pt x="32" y="-16" on="0"/>
        <pt x="-9" y="10" on="0"/>
        <pt x="-7" y="20" on="1"/>
        <pt x="104" y="603" on="1"/>
        <pt x="97" y="629" on="0"/>
        <pt x="39" y="644" on="1"/>
        <pt x="41" y="657" on="0"/>
        <pt x="52" y="663" on="1"/>
        <pt x="129" y="658" on="0"/>
        <pt x="182" y="658" on="1"/>
        <pt x="191" y="658" on="0"/>
        <pt x="241" y="660" on="0"/>
        <pt x="282" y="659" on="0"/>
        <pt x="303" y="656" on="1"/>
        <pt x="386" y="646" on="0"/>
        <pt x="455" y="540" on="0"/>
        <pt x="441" y="468" on="1"/>
        <pt x="425" y="385" on="0"/>
        <pt x="295" y="280" on="0"/>
        <pt x="215" y="280" on="1"/>
        <pt x="208" y="280" on="0"/>
        <pt x="179" y="295" on="0"/>
        <pt x="174" y="302" on="1"/>
        <pt x="171" y="306" on="0"/>
        <pt x="175" y="322" on="0"/>
        <pt x="180" y="326" on="1"/>
        <pt x="199" y="316" on="0"/>
        <pt x="222" y="316" on="1"/>
        <pt x="268" y="316" on="0"/>
        <pt x="349" y="412" on="0"/>
        <pt x="360" y="466" on="1"/>
        <pt x="371" y="523" on="0"/>
        <pt x="315" y="620" on="0"/>
      </contour>
    </TTGlyph>
    <TTGlyph name="S" xMin="34" yMin="-8" xMax="449" yMax="666">
      <contour>
        <pt x="312" y="666" on="1"/>
        <pt x="333" y="666" on="0"/>
        <pt x="372" y="661" on="0"/>
        <pt x="393" y="657" on="0"/>
        <pt x="440" y="644" on="0"/>
        <pt x="449" y="642" on="1"/>
        <pt x="443" y="572" on="0"/>
        <pt x="428" y="498" on="1"/>
        <pt x="427" y="491" on="0"/>
        <pt x="418" y="491" on="1"/>
        <pt x="404" y="491" on="0"/>
        <pt x="397" y="498" on="1"/>
        <pt x="401" y="561" on="0"/>
        <pt x="355" y="635" on="0"/>
        <pt x="304" y="635" on="1"/>
        <pt x="247" y="635" on="0"/>
        <pt x="180" y="563" on="0"/>
        <pt x="180" y="520" on="1"/>
        <pt x="180" y="496" on="0"/>
        <pt x="191" y="459" on="0"/>
        <pt x="222" y="423" on="0"/>
        <pt x="238" y="407" on="0"/>
        <pt x="290" y="368" on="0"/>
        <pt x="295" y="364" on="1"/>
        <pt x="302" y="359" on="0"/>
        <pt x="353" y="321" on="0"/>
        <pt x="374" y="301" on="0"/>
        <pt x="407" y="263" on="0"/>
        <pt x="421" y="220" on="0"/>
        <pt x="421" y="193" on="1"/>
        <pt x="421" y="105" on="0"/>
        <pt x="280" y="-8" on="0"/>
        <pt x="193" y="-8" on="1"/>
        <pt x="119" y="-8" on="0"/>
        <pt x="46" y="34" on="1"/>
        <pt x="37" y="70" on="0"/>
        <pt x="32" y="171" on="0"/>
        <pt x="34" y="184" on="1"/>
        <pt x="38" y="190" on="0"/>
        <pt x="59" y="190" on="1"/>
        <pt x="66" y="190" on="0"/>
        <pt x="69" y="184" on="1"/>
        <pt x="69" y="152" on="0"/>
        <pt x="94" y="82" on="0"/>
        <pt x="159" y="22" on="0"/>
        <pt x="205" y="22" on="1"/>
        <pt x="257" y="22" on="0"/>
        <pt x="332" y="90" on="0"/>
        <pt x="332" y="147" on="1"/>
        <pt x="332" y="181" on="0"/>
        <pt x="301" y="238" on="0"/>
        <pt x="270" y="267" on="0"/>
        <pt x="237" y="294" on="1"/>
        <pt x="226" y="302" on="0"/>
        <pt x="175" y="339" on="0"/>
        <pt x="150" y="361" on="0"/>
        <pt x="117" y="399" on="0"/>
        <pt x="102" y="447" on="0"/>
        <pt x="102" y="476" on="1"/>
        <pt x="102" y="557" on="0"/>
        <pt x="236" y="666" on="0"/>
      </contour>
    </TTGlyph>
    <TTGlyph name="Sacute" xMin="34" yMin="-8" xMax="485" yMax="819">
      <component glyphName="S" x="0" y="0" flags="0x1204"/>
      <component glyphName="acutecomb.cap" x="154" y="17" flags="0x1004"/>
    </TTGlyph>
    <TTGlyph name="Scaron" xMin="34" yMin="-8" xMax="482" yMax="836">
      <component glyphName="S" x="0" y="0" flags="0x1204"/>
      <component glyphName="uni030C.cap" x="75" y="0" flags="0x1004"/>
    </TTGlyph>
    <TTGlyph name="Scedilla" xMin="34" yMin="-174" xMax="449" yMax="666">
      <component glyphName="S" x="0" y="0" flags="0x1204"/>
      <component glyphName="uni0327.cap" x="-27" y="0" flags="0x1004"/>
    </TTGlyph>
    <TTGlyph name="Scircumflex" xMin="34" yMin="-8" xMax="458" yMax="836">
      <component glyphName="S" x="0" y="0" flags="0x1204"/>
      <component glyphName="uni0302.cap" x="51" y="0" flags="0x1004"/>
    </TTGlyph>
    <TTGlyph name="Scommaaccent" xMin="34" yMin="-233" xMax="449" yMax="666">
      <component glyphName="uni0326" x="403" y="-40" flags="0x1004"/>
      <component glyphName="S" x="0" y="0" flags="0x1204"/>
    </TTGlyph>
    <TTGlyph name="Sigma" xMin="-23" yMin="-2" xMax="503" yMax="664">
      <contour>
        <pt x="-23" y="29" on="1"/>
        <pt x="-13" y="36" on="0"/>
        <pt x="21" y="59" on="0"/>
        <pt x="44" y="74" on="0"/>
        <pt x="48" y="78" on="1"/>
        <pt x="101" y="122" on="0"/>
        <pt x="287" y="272" on="0"/>
        <pt x="314" y="294" on="1"/>
        <pt x="291" y="364" on="0"/>
        <pt x="140" y="595" on="0"/>
        <pt x="102" y="642" on="1"/>
        <pt x="104" y="655" on="0"/>
        <pt x="115" y="661" on="1"/>
        <pt x="161" y="658" on="0"/>
        <pt x="216" y="658" on="1"/>
        <pt x="268" y="659" on="0"/>
        <pt x="423" y="663" on="0"/>
        <pt x="467" y="664" on="1"/>
        <pt x="488" y="626" on="0"/>
        <pt x="503" y="584" on="1"/>
        <pt x="492" y="568" on="0"/>
        <pt x="487" y="566" on="1"/>
        <pt x="438" y="600" on="0"/>
        <pt x="380" y="623" on="0"/>
        <pt x="327" y="623" on="1"/>
        <pt x="276" y="623" on="0"/>
        <pt x="212" y="615" on="1"/>
        <pt x="219" y="603" on="0"/>
        <pt x="353" y="408" on="0"/>
        <pt x="376" y="354" on="1"/>
        <pt x="388" y="319" on="0"/>
        <pt x="384" y="307" on="1"/>
        <pt x="118" y="82" on="0"/>
        <pt x="84" y="59" on="1"/>
        <pt x="121" y="44" on="0"/>
        <pt x="218" y="44" on="1"/>
        <pt x="308" y="44" on="0"/>
        <pt x="368" y="69" on="1"/>
        <pt x="394" y="80" on="0"/>
        <pt x="444" y="110" on="0"/>
        <pt x="449" y="118" on="1"/>
        <pt x="454" y="116" on="0"/>
        <pt x="458" y="100" on="0"/>
        <pt x="457" y="95" on="1"/>
        <pt x="454" y="82" on="0"/>
        <pt x="379" y="-2" on="0"/>
        <pt x="355" y="-2" on="1"/>
        <pt x="48" y="-2" on="1"/>
        <pt x="-11" y="-2" on="0"/>
      </contour>
    </TTGlyph>
    <TTGlyph name="T" xMin="59" yMin="-3" xMax="627" yMax="672">
      <contour>
        <pt x="550" y="655" on="1"/>
        <pt x="579" y="655" on="0"/>
        <pt x="609" y="670" on="1"/>
        <pt x="621" y="676" on="0"/>
        <pt x="627" y="672" on="1"/>
        <pt x="618" y="562" on="0"/>
        <pt x="618" y="500" on="1"/>
        <pt x="610" y="492" on="0"/>
        <pt x="598" y="493" on="1"/>
        <pt x="588" y="493" on="0"/>
        <pt x="586" y="498" on="1"/>
        <pt x="587" y="553" on="0"/>
        <pt x="555" y="620" on="0"/>
        <pt x="522" y="620" on="1"/>
        <pt x="404" y="620" on="1"/>
        <pt x="305" y="116" on="1"/>
        <pt x="293" y="57" on="0"/>
        <pt x="295" y="42" on="1"/>
        <pt x="296" y="35" on="0"/>
        <pt x="342" y="26" on="0"/>
        <pt x="356" y="26" on="1"/>
        <pt x="358" y="22" on="0"/>
        <pt x="355" y="1" on="0"/>
        <pt x="351" y="-3" on="1"/>
        <pt x="256" y="2" on="0"/>
        <pt x="230" y="2" on="0"/>
        <pt x="132" y="-3" on="1"/>
        <pt x="129" y="1" on="0"/>
        <pt x="134" y="22" on="0"/>
        <pt x="138" y="26" on="1"/>
        <pt x="152" y="26" on="0"/>
        <pt x="202" y="35" on="0"/>
        <pt x="205" y="42" on="1"/>
        <pt x="212" y="56" on="0"/>
        <pt x="224" y="116" on="1"/>
        <pt x="323" y="620" on="1"/>
        <pt x="203" y="620" on="1"/>
        <pt x="170" y="620" on="0"/>
        <pt x="111" y="553" on="0"/>
        <pt x="90" y="498" on="1"/>
        <pt x="87" y="493" on="0"/>
        <pt x="76" y="493" on="1"/>
        <pt x="65" y="492" on="0"/>
        <pt x="59" y="500" on="1"/>
        <pt x="87" y="572" on="0"/>
        <pt x="117" y="672" on="1"/>
        <pt x="125" y="676" on="0"/>
        <pt x="137" y="669" on="1"/>
        <pt x="160" y="655" on="0"/>
        <pt x="187" y="655" on="1"/>
      </contour>
    </TTGlyph>
    <TTGlyph name="T_h" xMin="59" yMin="-6" xMax="944" yMax="694">
      <contour>
        <pt x="638" y="530" on="1"/>
        <pt x="640" y="542" on="0"/>
        <pt x="640" y="543" on="1"/>
        <pt x="640" y="595" on="0"/>
        <pt x="603" y="615" on="0"/>
        <pt x="512" y="615" on="1"/>
        <pt x="414" y="615" on="0"/>
        <pt x="406" y="600" on="1"/>
        <pt x="392" y="570" on="0"/>
        <pt x="378" y="500" on="1"/>
        <pt x="308" y="139" on="1"/>
        <pt x="297" y="84" on="0"/>
        <pt x="297" y="49" on="1"/>
        <pt x="297" y="41" on="0"/>
        <pt x="324" y="28" on="0"/>
        <pt x="338" y="26" on="1"/>
        <pt x="351" y="24" on="1"/>
        <pt x="353" y="24" on="0"/>
        <pt x="353" y="20" on="1"/>
        <pt x="353" y="9" on="0"/>
        <pt x="347" y="-3" on="1"/>
        <pt x="254" y="2" on="0"/>
        <pt x="243" y="2" on="1"/>
        <pt x="240" y="2" on="0"/>
        <pt x="133" y="-3" on="1"/>
        <pt x="131" y="-1" on="0"/>
        <pt x="131" y="5" on="1"/>
        <pt x="131" y="24" on="0"/>
        <pt x="138" y="24" on="1"/>
        <pt x="150" y="24" on="0"/>
        <pt x="198" y="37" on="0"/>
        <pt x="202" y="46" on="1"/>
        <pt x="217" y="80" on="0"/>
        <pt x="228" y="142" on="1"/>
        <pt x="297" y="497" on="1"/>
        <pt x="310" y="566" on="0"/>
        <pt x="310" y="594" on="1"/>
        <pt x="310" y="601" on="0"/>
        <pt x="305" y="608" on="0"/>
        <pt x="259" y="615" on="0"/>
        <pt x="211" y="615" on="1"/>
        <pt x="158" y="615" on="0"/>
        <pt x="114" y="582" on="0"/>
        <pt x="89" y="526" on="1"/>
        <pt x="86" y="521" on="0"/>
        <pt x="79" y="521" on="1"/>
        <pt x="66" y="521" on="0"/>
        <pt x="59" y="528" on="1"/>
        <pt x="103" y="671" on="1"/>
        <pt x="142" y="660" on="0"/>
        <pt x="166" y="660" on="1"/>
        <pt x="205" y="660" on="0"/>
        <pt x="329" y="654" on="0"/>
        <pt x="368" y="654" on="1"/>
        <pt x="412" y="654" on="0"/>
        <pt x="537" y="659" on="0"/>
        <pt x="556" y="660" on="1"/>
        <pt x="596" y="661" on="0"/>
        <pt x="685" y="678" on="0"/>
        <pt x="742" y="694" on="0"/>
        <pt x="745" y="694" on="1"/>
        <pt x="750" y="694" on="0"/>
        <pt x="750" y="678" on="1"/>
        <pt x="731" y="646" on="0"/>
        <pt x="720" y="591" on="1"/>
        <pt x="669" y="330" on="1"/>
        <pt x="651" y="238" on="1"/>
        <pt x="672" y="278" on="0"/>
        <pt x="808" y="435" on="0"/>
        <pt x="850" y="435" on="1"/>
        <pt x="905" y="435" on="0"/>
        <pt x="905" y="369" on="1"/>
        <pt x="905" y="326" on="0"/>
        <pt x="891" y="260" on="1"/>
        <pt x="858" y="106" on="1"/>
        <pt x="854" y="90" on="0"/>
        <pt x="854" y="74" on="1"/>
        <pt x="854" y="49" on="0"/>
        <pt x="864" y="49" on="1"/>
        <pt x="869" y="49" on="0"/>
        <pt x="884" y="57" on="0"/>
        <pt x="898" y="69" on="0"/>
        <pt x="914" y="85" on="0"/>
        <pt x="925" y="97" on="0"/>
        <pt x="930" y="102" on="1"/>
        <pt x="934" y="107" on="1"/>
        <pt x="936" y="107" on="0"/>
        <pt x="944" y="92" on="0"/>
        <pt x="944" y="88" on="1"/>
        <pt x="932" y="67" on="0"/>
        <pt x="844" y="-6" on="0"/>
        <pt x="813" y="-6" on="1"/>
        <pt x="797" y="-6" on="0"/>
        <pt x="779" y="23" on="0"/>
        <pt x="779" y="46" on="1"/>
        <pt x="779" y="70" on="0"/>
        <pt x="786" y="99" on="1"/>
        <pt x="821" y="264" on="1"/>
        <pt x="828" y="296" on="0"/>
        <pt x="828" y="318" on="1"/>
        <pt x="828" y="361" on="0"/>
        <pt x="790" y="361" on="0"/>
        <pt x="715" y="291" on="0"/>
        <pt x="641" y="173" on="0"/>
        <pt x="630" y="119" on="1"/>
        <pt x="623" y="83" on="0"/>
        <pt x="605" y="0" on="1"/>
        <pt x="592" y="-4" on="0"/>
        <pt x="569" y="-4" on="1"/>
        <pt x="551" y="-4" on="0"/>
        <pt x="535" y="0" on="1"/>
      </contour>
    </TTGlyph>
    <TTGlyph name="Tau" xMin="60" yMin="-16" xMax="543" yMax="662">
      <contour>
        <pt x="374" y="621" on="1"/>
        <pt x="332" y="621" on="1"/>
        <pt x="306" y="484" on="0"/>
        <pt x="261" y="230" on="1"/>
        <pt x="225" y="36" on="0"/>
        <pt x="230" y="1" on="1"/>
        <pt x="216" y="-16" on="0"/>
        <pt x="203" y="-16" on="1"/>
        <pt x="196" y="-16" on="0"/>
        <pt x="153" y="10" on="0"/>
        <pt x="155" y="20" on="1"/>
        <pt x="276" y="621" on="1"/>
        <pt x="206" y="621" on="1"/>
        <pt x="168" y="621" on="0"/>
        <pt x="102" y="581" on="0"/>
        <pt x="93" y="536" on="1"/>
        <pt x="90" y="532" on="0"/>
        <pt x="70" y="526" on="0"/>
        <pt x="66" y="529" on="1"/>
        <pt x="60" y="566" on="0"/>
        <pt x="60" y="632" on="1"/>
        <pt x="102" y="661" on="0"/>
        <pt x="174" y="661" on="1"/>
        <pt x="341" y="661" on="1"/>
        <pt x="419" y="661" on="0"/>
        <pt x="501" y="662" on="1"/>
        <pt x="530" y="620" on="0"/>
        <pt x="543" y="546" on="1"/>
        <pt x="540" y="539" on="0"/>
        <pt x="520" y="528" on="0"/>
        <pt x="514" y="530" on="1"/>
        <pt x="474" y="621" on="0"/>
      </contour>
    </TTGlyph>
    <TTGlyph name="Tbar" xMin="60" yMin="-3" xMax="628" yMax="672">
      <contour>
        <pt x="153" y="348" on="1"/>
        <pt x="153" y="348" on="0"/>
        <pt x="473" y="348" on="1"/>
        <pt x="479" y="348" on="0"/>
        <pt x="477" y="338" on="1"/>
        <pt x="475" y="326" on="0"/>
        <pt x="465" y="308" on="1"/>
        <pt x="465" y="308" on="0"/>
        <pt x="145" y="308" on="1"/>
        <pt x="139" y="308" on="0"/>
        <pt x="142" y="321" on="1"/>
        <pt x="145" y="337" on="0"/>
      </contour>
      <contour>
        <pt x="551" y="655" on="1"/>
        <pt x="580" y="655" on="0"/>
        <pt x="610" y="670" on="1"/>
        <pt x="622" y="676" on="0"/>
        <pt x="628" y="672" on="1"/>
        <pt x="619" y="562" on="0"/>
        <pt x="619" y="500" on="1"/>
        <pt x="611" y="492" on="0"/>
        <pt x="599" y="493" on="1"/>
        <pt x="589" y="493" on="0"/>
        <pt x="587" y="498" on="1"/>
        <pt x="588" y="553" on="0"/>
        <pt x="556" y="620" on="0"/>
        <pt x="523" y="620" on="1"/>
        <pt x="405" y="620" on="1"/>
        <pt x="306" y="116" on="1"/>
        <pt x="294" y="57" on="0"/>
        <pt x="296" y="42" on="1"/>
        <pt x="297" y="35" on="0"/>
        <pt x="343" y="26" on="0"/>
        <pt x="357" y="26" on="1"/>
        <pt x="359" y="22" on="0"/>
        <pt x="356" y="1" on="0"/>
        <pt x="352" y="-3" on="1"/>
        <pt x="257" y="2" on="0"/>
        <pt x="244" y="2" on="1"/>
        <pt x="230" y="2" on="0"/>
        <pt x="133" y="-3" on="1"/>
        <pt x="130" y="1" on="0"/>
        <pt x="135" y="22" on="0"/>
        <pt x="139" y="26" on="1"/>
        <pt x="153" y="26" on="0"/>
        <pt x="203" y="35" on="0"/>
        <pt x="206" y="42" on="1"/>
        <pt x="213" y="56" on="0"/>
        <pt x="225" y="116" on="1"/>
        <pt x="324" y="620" on="1"/>
        <pt x="204" y="620" on="1"/>
        <pt x="171" y="620" on="0"/>
        <pt x="112" y="553" on="0"/>
        <pt x="91" y="498" on="1"/>
        <pt x="88" y="493" on="0"/>
        <pt x="77" y="493" on="1"/>
        <pt x="66" y="492" on="0"/>
        <pt x="60" y="500" on="1"/>
        <pt x="88" y="572" on="0"/>
        <pt x="118" y="672" on="1"/>
        <pt x="126" y="676" on="0"/>
        <pt x="138" y="669" on="1"/>
        <pt x="161" y="655" on="0"/>
        <pt x="188" y="655" on="1"/>
      </contour>
    </TTGlyph>
    <TTGlyph name="Tcaron" xMin="59" yMin="-3" xMax="627" yMax="840">
      <component glyphName="T" x="0" y="0" flags="0x1204"/>
      <component glyphName="uni030C.cap" x="113" y="4" flags="0x1004"/>
    </TTGlyph>
    <TTGlyph name="Tcommaaccent" xMin="59" yMin="-174" xMax="627" yMax="672">
      <component glyphName="T" x="0" y="0" flags="0x1204"/>
      <component glyphName="uni0327.cap" x="31" y="0" flags="0x1004"/>
    </TTGlyph>
    <TTGlyph name="Theta" xMin="65" yMin="-10" xMax="627" yMax="667">
      <contour>
        <pt x="321" y="353" on="1"/>
        <pt x="370" y="353" on="0"/>
        <pt x="427" y="369" on="0"/>
        <pt x="451" y="392" on="1"/>
        <pt x="454" y="395" on="0"/>
        <pt x="459" y="390" on="1"/>
        <pt x="473" y="355" on="0"/>
        <pt x="481" y="292" on="1"/>
        <pt x="481" y="281" on="0"/>
        <pt x="464" y="275" on="1"/>
        <pt x="461" y="278" on="0"/>
        <pt x="444" y="291" on="0"/>
        <pt x="440" y="294" on="0"/>
        <pt x="427" y="303" on="0"/>
        <pt x="421" y="305" on="0"/>
        <pt x="407" y="310" on="0"/>
        <pt x="395" y="311" on="0"/>
        <pt x="377" y="312" on="0"/>
        <pt x="366" y="312" on="1"/>
        <pt x="317" y="312" on="0"/>
        <pt x="260" y="296" on="0"/>
        <pt x="236" y="273" on="1"/>
        <pt x="233" y="270" on="0"/>
        <pt x="228" y="275" on="1"/>
        <pt x="214" y="310" on="0"/>
        <pt x="206" y="373" on="1"/>
        <pt x="206" y="384" on="0"/>
        <pt x="223" y="390" on="1"/>
        <pt x="226" y="387" on="0"/>
        <pt x="243" y="374" on="0"/>
        <pt x="247" y="371" on="0"/>
        <pt x="260" y="362" on="0"/>
        <pt x="266" y="360" on="0"/>
        <pt x="280" y="355" on="0"/>
        <pt x="292" y="354" on="0"/>
        <pt x="310" y="353" on="0"/>
      </contour>
      <contour>
        <pt x="407" y="630" on="1"/>
        <pt x="311" y="630" on="0"/>
        <pt x="164" y="439" on="0"/>
        <pt x="136" y="309" on="1"/>
        <pt x="124" y="264" on="0"/>
        <pt x="134" y="164" on="0"/>
        <pt x="163" y="80" on="0"/>
        <pt x="231" y="26" on="0"/>
        <pt x="277" y="26" on="1"/>
        <pt x="372" y="26" on="0"/>
        <pt x="527" y="213" on="0"/>
        <pt x="554" y="339" on="1"/>
        <pt x="566" y="386" on="0"/>
        <pt x="555" y="488" on="0"/>
        <pt x="524" y="574" on="0"/>
        <pt x="454" y="630" on="0"/>
      </contour>
      <contour>
        <pt x="410" y="667" on="1"/>
        <pt x="530" y="667" on="0"/>
        <pt x="657" y="474" on="0"/>
        <pt x="627" y="319" on="1"/>
        <pt x="600" y="180" on="0"/>
        <pt x="396" y="-10" on="0"/>
        <pt x="278" y="-10" on="1"/>
        <pt x="158" y="-10" on="0"/>
        <pt x="34" y="178" on="0"/>
        <pt x="65" y="337" on="1"/>
        <pt x="92" y="477" on="0"/>
        <pt x="292" y="667" on="0"/>
      </contour>
    </TTGlyph>
    <TTGlyph name="Thorn" xMin="-6" yMin="-3" xMax="494" yMax="662">
      <contour>
        <pt x="234" y="458" on="1"/>
        <pt x="234" y="458" on="0"/>
        <pt x="168" y="116" on="1"/>
        <pt x="156" y="57" on="0"/>
        <pt x="158" y="42" on="1"/>
        <pt x="159" y="35" on="0"/>
        <pt x="205" y="26" on="0"/>
        <pt x="219" y="26" on="1"/>
        <pt x="221" y="22" on="0"/>
        <pt x="217" y="1" on="0"/>
        <pt x="213" y="-3" on="1"/>
        <pt x="118" y="2" on="0"/>
        <pt x="106" y="2" on="1"/>
        <pt x="92" y="2" on="0"/>
        <pt x="-5" y="-3" on="1"/>
        <pt x="-8" y="1" on="0"/>
        <pt x="-4" y="22" on="0"/>
        <pt x="0" y="26" on="1"/>
        <pt x="14" y="26" on="0"/>
        <pt x="65" y="35" on="0"/>
        <pt x="68" y="42" on="1"/>
        <pt x="75" y="56" on="0"/>
        <pt x="87" y="116" on="1"/>
        <pt x="170" y="543" on="1"/>
        <pt x="181" y="599" on="0"/>
        <pt x="179" y="617" on="1"/>
        <pt x="178" y="624" on="0"/>
        <pt x="132" y="633" on="0"/>
        <pt x="118" y="633" on="1"/>
        <pt x="116" y="637" on="0"/>
        <pt x="120" y="658" on="0"/>
        <pt x="124" y="662" on="1"/>
        <pt x="219" y="657" on="0"/>
        <pt x="233" y="657" on="1"/>
        <pt x="246" y="657" on="0"/>
        <pt x="343" y="662" on="1"/>
        <pt x="346" y="658" on="0"/>
        <pt x="341" y="637" on="0"/>
        <pt x="337" y="633" on="1"/>
        <pt x="323" y="633" on="0"/>
        <pt x="273" y="624" on="0"/>
        <pt x="270" y="617" on="1"/>
        <pt x="263" y="603" on="0"/>
        <pt x="251" y="543" on="1"/>
        <pt x="242" y="500" on="1"/>
        <pt x="270" y="511" on="0"/>
        <pt x="313" y="511" on="1"/>
        <pt x="393" y="511" on="0"/>
        <pt x="494" y="428" on="0"/>
        <pt x="494" y="360" on="1"/>
        <pt x="494" y="266" on="0"/>
        <pt x="354" y="134" on="0"/>
        <pt x="261" y="134" on="1"/>
        <pt x="228" y="134" on="0"/>
        <pt x="216" y="144" on="1"/>
        <pt x="208" y="152" on="0"/>
        <pt x="208" y="160" on="1"/>
        <pt x="208" y="162" on="0"/>
        <pt x="212" y="164" on="1"/>
        <pt x="220" y="160" on="0"/>
        <pt x="245" y="160" on="1"/>
        <pt x="304" y="160" on="0"/>
        <pt x="405" y="266" on="0"/>
        <pt x="405" y="346" on="1"/>
        <pt x="405" y="482" on="0"/>
        <pt x="289" y="482" on="1"/>
        <pt x="238" y="482" on="0"/>
      </contour>
    </TTGlyph>
    <TTGlyph name="U" xMin="98" yMin="-4" xMax="719" yMax="663">
      <contour>
        <pt x="218" y="657" on="1"/>
        <pt x="230" y="657" on="0"/>
        <pt x="328" y="662" on="1"/>
        <pt x="331" y="658" on="0"/>
        <pt x="326" y="637" on="0"/>
        <pt x="322" y="633" on="1"/>
        <pt x="308" y="633" on="0"/>
        <pt x="258" y="624" on="0"/>
        <pt x="255" y="617" on="1"/>
        <pt x="248" y="603" on="0"/>
        <pt x="236" y="543" on="1"/>
        <pt x="188" y="296" on="1"/>
        <pt x="165" y="177" on="0"/>
        <pt x="193" y="120" on="1"/>
        <pt x="226" y="54" on="0"/>
        <pt x="314" y="54" on="1"/>
        <pt x="392" y="54" on="0"/>
        <pt x="493" y="152" on="0"/>
        <pt x="519" y="274" on="1"/>
        <pt x="572" y="545" on="1"/>
        <pt x="582" y="597" on="0"/>
        <pt x="576" y="614" on="1"/>
        <pt x="573" y="621" on="0"/>
        <pt x="526" y="634" on="0"/>
        <pt x="513" y="634" on="1"/>
        <pt x="508" y="645" on="0"/>
        <pt x="517" y="663" on="1"/>
        <pt x="610" y="658" on="0"/>
        <pt x="617" y="658" on="1"/>
        <pt x="636" y="658" on="0"/>
        <pt x="666" y="660" on="0"/>
        <pt x="703" y="662" on="0"/>
        <pt x="719" y="663" on="1"/>
        <pt x="724" y="650" on="0"/>
        <pt x="714" y="634" on="1"/>
        <pt x="701" y="634" on="0"/>
        <pt x="643" y="622" on="0"/>
        <pt x="637" y="614" on="1"/>
        <pt x="624" y="597" on="0"/>
        <pt x="615" y="546" on="1"/>
        <pt x="562" y="276" on="1"/>
        <pt x="533" y="130" on="0"/>
        <pt x="395" y="-4" on="0"/>
        <pt x="283" y="-4" on="1"/>
        <pt x="177" y="-4" on="0"/>
        <pt x="125" y="68" on="1"/>
        <pt x="76" y="138" on="0"/>
        <pt x="98" y="251" on="1"/>
        <pt x="155" y="543" on="1"/>
        <pt x="167" y="602" on="0"/>
        <pt x="165" y="617" on="1"/>
        <pt x="164" y="624" on="0"/>
        <pt x="118" y="633" on="0"/>
        <pt x="104" y="633" on="1"/>
        <pt x="102" y="637" on="0"/>
        <pt x="106" y="658" on="0"/>
        <pt x="110" y="662" on="1"/>
        <pt x="205" y="657" on="0"/>
      </contour>
    </TTGlyph>
    <TTGlyph name="Uacute" xMin="97" yMin="-4" xMax="718" yMax="819">
      <component glyphName="U" x="-1" y="0" flags="0x1204"/>
      <component glyphName="acutecomb.cap" x="254" y="17" flags="0x1004"/>
    </TTGlyph>
    <TTGlyph name="Ubreve" xMin="97" yMin="-4" xMax="718" yMax="836">
      <component glyphName="U" x="-1" y="0" flags="0x1204"/>
      <component glyphName="uni0306.cap" x="205" y="203" flags="0x1004"/>
    </TTGlyph>
    <TTGlyph name="Ucircumflex" xMin="97" yMin="-4" xMax="718" yMax="836">
      <component glyphName="U" x="-1" y="0" flags="0x1204"/>
      <component glyphName="uni0302.cap" x="139" y="0" flags="0x1004"/>
    </TTGlyph>
    <TTGlyph name="Udieresis" xMin="97" yMin="-4" xMax="718" yMax="828">
      <component glyphName="U" x="-1" y="0" flags="0x1204"/>
      <component glyphName="uni0308.cap" x="141" y="16" flags="0x1004"/>
    </TTGlyph>
    <TTGlyph name="Ugrave" xMin="97" yMin="-4" xMax="718" yMax="818">
      <component glyphName="U" x="-1" y="0" flags="0x1204"/>
      <component glyphName="gravecomb.cap" x="139" y="16" flags="0x1004"/>
    </TTGlyph>
    <TTGlyph name="Uhorn" xMin="98" yMin="-4" xMax="772" yMax="765">
      <contour>
        <pt x="641" y="613" on="1"/>
        <pt x="624" y="595" on="0"/>
        <pt x="615" y="546" on="1"/>
        <pt x="562" y="276" on="1"/>
        <pt x="533" y="130" on="0"/>
        <pt x="395" y="-4" on="0"/>
        <pt x="283" y="-4" on="1"/>
        <pt x="177" y="-4" on="0"/>
        <pt x="125" y="68" on="1"/>
        <pt x="76" y="138" on="0"/>
        <pt x="98" y="251" on="1"/>
        <pt x="155" y="543" on="1"/>
        <pt x="167" y="602" on="0"/>
        <pt x="165" y="617" on="1"/>
        <pt x="164" y="624" on="0"/>
        <pt x="118" y="633" on="0"/>
        <pt x="104" y="633" on="1"/>
        <pt x="102" y="637" on="0"/>
        <pt x="106" y="658" on="0"/>
        <pt x="110" y="662" on="1"/>
        <pt x="205" y="657" on="0"/>
        <pt x="218" y="657" on="1"/>
        <pt x="230" y="657" on="0"/>
        <pt x="328" y="662" on="1"/>
        <pt x="331" y="658" on="0"/>
        <pt x="326" y="637" on="0"/>
        <pt x="322" y="633" on="1"/>
        <pt x="308" y="633" on="0"/>
        <pt x="258" y="624" on="0"/>
        <pt x="255" y="617" on="1"/>
        <pt x="248" y="603" on="0"/>
        <pt x="236" y="543" on="1"/>
        <pt x="188" y="296" on="1"/>
        <pt x="165" y="177" on="0"/>
        <pt x="193" y="120" on="1"/>
        <pt x="226" y="54" on="0"/>
        <pt x="314" y="54" on="1"/>
        <pt x="392" y="54" on="0"/>
        <pt x="493" y="152" on="0"/>
        <pt x="519" y="274" on="1"/>
        <pt x="572" y="545" on="1"/>
        <pt x="582" y="597" on="0"/>
        <pt x="576" y="614" on="1"/>
        <pt x="573" y="621" on="0"/>
        <pt x="526" y="634" on="0"/>
        <pt x="513" y="634" on="1"/>
        <pt x="508" y="645" on="0"/>
        <pt x="517" y="663" on="1"/>
        <pt x="610" y="658" on="0"/>
        <pt x="617" y="658" on="1"/>
        <pt x="707" y="658" on="0"/>
        <pt x="707" y="684" on="1"/>
        <pt x="707" y="687" on="0"/>
        <pt x="698" y="705" on="1"/>
        <pt x="691" y="721" on="0"/>
        <pt x="691" y="727" on="1"/>
        <pt x="691" y="744" on="0"/>
        <pt x="724" y="765" on="0"/>
        <pt x="740" y="765" on="1"/>
        <pt x="752" y="765" on="0"/>
        <pt x="762" y="761" on="1"/>
        <pt x="772" y="744" on="0"/>
        <pt x="772" y="727" on="1"/>
        <pt x="772" y="691" on="0"/>
        <pt x="709" y="636" on="0"/>
        <pt x="672" y="627" on="1"/>
        <pt x="649" y="622" on="0"/>
      </contour>
    </TTGlyph>
    <TTGlyph name="Uhungarumlaut" xMin="97" yMin="-4" xMax="718" yMax="826">
      <component glyphName="U" x="-1" y="0" flags="0x1204"/>
      <component glyphName="uni030B.cap" x="173" y="24" flags="0x1004"/>
    </TTGlyph>
    <TTGlyph name="Umacron" xMin="97" yMin="-4" xMax="718" yMax="776">
      <component glyphName="U" x="-1" y="0" flags="0x1204"/>
      <component glyphName="uni0304.cap" x="137" y="180" flags="0x1004"/>
    </TTGlyph>
    <TTGlyph name="Uogonek" xMin="99" yMin="-230" xMax="740" yMax="663">
      <contour>
        <pt x="271" y="-139" on="1"/>
        <pt x="271" y="-171" on="0"/>
        <pt x="302" y="-171" on="1"/>
        <pt x="323" y="-171" on="0"/>
        <pt x="361" y="-152" on="0"/>
        <pt x="384" y="-133" on="0"/>
        <pt x="385" y="-133" on="1"/>
        <pt x="390" y="-134" on="0"/>
        <pt x="382" y="-160" on="0"/>
        <pt x="379" y="-163" on="1"/>
        <pt x="319" y="-230" on="0"/>
        <pt x="268" y="-230" on="1"/>
        <pt x="246" y="-230" on="0"/>
        <pt x="217" y="-196" on="0"/>
        <pt x="217" y="-175" on="1"/>
        <pt x="217" y="-139" on="0"/>
        <pt x="295" y="-34" on="0"/>
        <pt x="340" y="0" on="1"/>
        <pt x="316" y="-4" on="0"/>
        <pt x="284" y="-4" on="1"/>
        <pt x="172" y="-4" on="0"/>
        <pt x="122" y="74" on="1"/>
        <pt x="78" y="143" on="0"/>
        <pt x="99" y="251" on="1"/>
        <pt x="156" y="543" on="1"/>
        <pt x="168" y="602" on="0"/>
        <pt x="166" y="617" on="1"/>
        <pt x="165" y="624" on="0"/>
        <pt x="119" y="633" on="0"/>
        <pt x="105" y="633" on="1"/>
        <pt x="103" y="637" on="0"/>
        <pt x="107" y="658" on="0"/>
        <pt x="111" y="662" on="1"/>
        <pt x="206" y="657" on="0"/>
        <pt x="232" y="657" on="0"/>
        <pt x="329" y="662" on="1"/>
        <pt x="332" y="658" on="0"/>
        <pt x="327" y="637" on="0"/>
        <pt x="323" y="633" on="1"/>
        <pt x="309" y="633" on="0"/>
        <pt x="259" y="624" on="0"/>
        <pt x="256" y="617" on="1"/>
        <pt x="249" y="603" on="0"/>
        <pt x="237" y="543" on="1"/>
        <pt x="189" y="296" on="1"/>
        <pt x="167" y="181" on="0"/>
        <pt x="193" y="122" on="1"/>
        <pt x="223" y="54" on="0"/>
        <pt x="315" y="54" on="1"/>
        <pt x="492" y="54" on="0"/>
        <pt x="538" y="274" on="1"/>
        <pt x="591" y="545" on="1"/>
        <pt x="601" y="597" on="0"/>
        <pt x="595" y="614" on="1"/>
        <pt x="592" y="621" on="0"/>
        <pt x="545" y="634" on="0"/>
        <pt x="532" y="634" on="1"/>
        <pt x="527" y="645" on="0"/>
        <pt x="536" y="663" on="1"/>
        <pt x="628" y="658" on="0"/>
        <pt x="638" y="658" on="1"/>
        <pt x="657" y="658" on="0"/>
        <pt x="687" y="660" on="0"/>
        <pt x="724" y="662" on="0"/>
        <pt x="740" y="663" on="1"/>
        <pt x="745" y="650" on="0"/>
        <pt x="735" y="634" on="1"/>
        <pt x="722" y="634" on="0"/>
        <pt x="664" y="622" on="0"/>
        <pt x="658" y="614" on="1"/>
        <pt x="645" y="597" on="0"/>
        <pt x="636" y="546" on="1"/>
        <pt x="583" y="276" on="1"/>
        <pt x="551" y="114" on="0"/>
        <pt x="449" y="43" on="1"/>
        <pt x="271" y="-81" on="0"/>
      </contour>
    </TTGlyph>
    <TTGlyph name="Upsilon" xMin="57" yMin="-16" xMax="585" yMax="668">
      <contour>
        <pt x="585" y="624" on="1"/>
        <pt x="489" y="569" on="0"/>
        <pt x="276" y="252" on="0"/>
        <pt x="263" y="184" on="1"/>
        <pt x="253" y="134" on="0"/>
        <pt x="242" y="18" on="0"/>
        <pt x="244" y="1" on="1"/>
        <pt x="230" y="-16" on="0"/>
        <pt x="217" y="-16" on="1"/>
        <pt x="210" y="-16" on="0"/>
        <pt x="164" y="10" on="0"/>
        <pt x="166" y="20" on="1"/>
        <pt x="177" y="75" on="0"/>
        <pt x="208" y="180" on="1"/>
        <pt x="209" y="184" on="0"/>
        <pt x="213" y="196" on="0"/>
        <pt x="214" y="200" on="1"/>
        <pt x="200" y="591" on="0"/>
        <pt x="122" y="591" on="1"/>
        <pt x="88" y="591" on="0"/>
        <pt x="65" y="565" on="1"/>
        <pt x="62" y="565" on="0"/>
        <pt x="57" y="577" on="1"/>
        <pt x="55" y="583" on="0"/>
        <pt x="57" y="588" on="1"/>
        <pt x="73" y="621" on="0"/>
        <pt x="130" y="668" on="0"/>
        <pt x="154" y="668" on="1"/>
        <pt x="196" y="668" on="0"/>
        <pt x="243" y="423" on="0"/>
        <pt x="245" y="277" on="1"/>
        <pt x="297" y="391" on="0"/>
        <pt x="456" y="609" on="0"/>
        <pt x="525" y="663" on="1"/>
        <pt x="530" y="666" on="0"/>
        <pt x="582" y="647" on="0"/>
        <pt x="583" y="645" on="1"/>
        <pt x="590" y="634" on="0"/>
      </contour>
    </TTGlyph>
    <TTGlyph name="Upsilon1" xMin="61" yMin="-3" xMax="594" yMax="666">
      <contour>
        <pt x="176" y="666" on="1"/>
        <pt x="330" y="666" on="0"/>
        <pt x="312" y="415" on="1"/>
        <pt x="327" y="466" on="0"/>
        <pt x="386" y="575" on="0"/>
        <pt x="481" y="666" on="0"/>
        <pt x="527" y="666" on="1"/>
        <pt x="557" y="666" on="0"/>
        <pt x="587" y="654" on="0"/>
        <pt x="594" y="637" on="1"/>
        <pt x="587" y="602" on="0"/>
        <pt x="560" y="570" on="0"/>
        <pt x="545" y="570" on="1"/>
        <pt x="538" y="570" on="0"/>
        <pt x="528" y="575" on="0"/>
        <pt x="524" y="578" on="0"/>
        <pt x="516" y="590" on="0"/>
        <pt x="515" y="591" on="1"/>
        <pt x="504" y="604" on="0"/>
        <pt x="484" y="604" on="1"/>
        <pt x="441" y="604" on="0"/>
        <pt x="312" y="325" on="0"/>
        <pt x="281" y="162" on="1"/>
        <pt x="274" y="129" on="1"/>
        <pt x="265" y="81" on="0"/>
        <pt x="266" y="46" on="1"/>
        <pt x="267" y="39" on="0"/>
        <pt x="311" y="24" on="0"/>
        <pt x="319" y="24" on="1"/>
        <pt x="322" y="23" on="0"/>
        <pt x="319" y="3" on="0"/>
        <pt x="316" y="-3" on="1"/>
        <pt x="224" y="2" on="0"/>
        <pt x="212" y="2" on="1"/>
        <pt x="211" y="2" on="0"/>
        <pt x="101" y="-3" on="1"/>
        <pt x="98" y="1" on="0"/>
        <pt x="102" y="24" on="0"/>
        <pt x="106" y="24" on="1"/>
        <pt x="118" y="24" on="0"/>
        <pt x="166" y="38" on="0"/>
        <pt x="171" y="46" on="1"/>
        <pt x="185" y="79" on="0"/>
        <pt x="197" y="142" on="1"/>
        <pt x="211" y="212" on="1"/>
        <pt x="246" y="376" on="0"/>
        <pt x="207" y="625" on="0"/>
        <pt x="137" y="625" on="1"/>
        <pt x="102" y="625" on="0"/>
        <pt x="73" y="607" on="1"/>
        <pt x="61" y="610" on="0"/>
        <pt x="61" y="621" on="1"/>
        <pt x="106" y="666" on="0"/>
      </contour>
    </TTGlyph>
    <TTGlyph name="Upsilondieresis" xMin="57" yMin="-16" xMax="585" yMax="828">
      <component glyphName="uni0308.cap" x="8" y="16" flags="0x1004"/>
      <component glyphName="Upsilon" x="0" y="0" flags="0x1204"/>
    </TTGlyph>
    <TTGlyph name="Upsilontonos" xMin="-25" yMin="-16" xMax="503" yMax="939">
      <component glyphName="tonos" x="35" y="235" flags="0x1004"/>
      <component glyphName="Upsilon" x="-82" y="0" flags="0x1204"/>
    </TTGlyph>
    <TTGlyph name="Uring" xMin="97" yMin="-4" xMax="718" yMax="907">
      <component glyphName="U" x="-1" y="0" flags="0x1204"/>
      <component glyphName="uni030A.cap" x="150" y="226" flags="0x1004"/>
    </TTGlyph>
    <TTGlyph name="Utilde" xMin="97" yMin="-4" xMax="718" yMax="819">
      <component glyphName="U" x="-1" y="0" flags="0x1204"/>
      <component glyphName="tildecomb.cap" x="105" y="14" flags="0x1004"/>
    </TTGlyph>
    <TTGlyph name="V" xMin="62" yMin="-2" xMax="680" yMax="662">
      <contour>
        <pt x="175" y="657" on="1"/>
        <pt x="196" y="657" on="0"/>
        <pt x="291" y="662" on="1"/>
        <pt x="292" y="657" on="0"/>
        <pt x="287" y="634" on="0"/>
        <pt x="284" y="633" on="1"/>
        <pt x="277" y="633" on="0"/>
        <pt x="254" y="629" on="0"/>
        <pt x="224" y="613" on="0"/>
        <pt x="222" y="600" on="1"/>
        <pt x="219" y="583" on="0"/>
        <pt x="226" y="529" on="1"/>
        <pt x="231" y="488" on="0"/>
        <pt x="261" y="291" on="0"/>
        <pt x="285" y="130" on="0"/>
        <pt x="286" y="128" on="1"/>
        <pt x="511" y="524" on="1"/>
        <pt x="532" y="559" on="0"/>
        <pt x="538" y="594" on="1"/>
        <pt x="542" y="615" on="0"/>
        <pt x="501" y="633" on="0"/>
        <pt x="485" y="633" on="1"/>
        <pt x="482" y="634" on="0"/>
        <pt x="486" y="658" on="0"/>
        <pt x="490" y="662" on="1"/>
        <pt x="575" y="657" on="0"/>
        <pt x="588" y="657" on="1"/>
        <pt x="607" y="657" on="0"/>
        <pt x="635" y="659" on="0"/>
        <pt x="666" y="661" on="0"/>
        <pt x="680" y="662" on="1"/>
        <pt x="681" y="658" on="0"/>
        <pt x="675" y="633" on="0"/>
        <pt x="673" y="633" on="1"/>
        <pt x="663" y="633" on="0"/>
        <pt x="621" y="620" on="0"/>
        <pt x="608" y="607" on="1"/>
        <pt x="585" y="584" on="0"/>
        <pt x="542" y="506" on="1"/>
        <pt x="269" y="32" on="1"/>
        <pt x="250" y="-2" on="0"/>
        <pt x="227" y="-2" on="1"/>
        <pt x="225" y="-2" on="0"/>
        <pt x="221" y="14" on="1"/>
        <pt x="208" y="91" on="0"/>
        <pt x="159" y="410" on="0"/>
        <pt x="142" y="514" on="1"/>
        <pt x="133" y="576" on="0"/>
        <pt x="118" y="610" on="1"/>
        <pt x="113" y="621" on="0"/>
        <pt x="74" y="633" on="0"/>
        <pt x="62" y="633" on="1"/>
        <pt x="61" y="633" on="0"/>
        <pt x="63" y="647" on="0"/>
        <pt x="67" y="661" on="0"/>
        <pt x="68" y="662" on="1"/>
        <pt x="173" y="657" on="0"/>
      </contour>
    </TTGlyph>
    <TTGlyph name="W" xMin="65" yMin="-2" xMax="919" yMax="662">
      <contour>
        <pt x="172" y="657" on="1"/>
        <pt x="190" y="657" on="0"/>
        <pt x="285" y="662" on="1"/>
        <pt x="286" y="657" on="0"/>
        <pt x="280" y="634" on="0"/>
        <pt x="277" y="633" on="1"/>
        <pt x="270" y="633" on="0"/>
        <pt x="247" y="629" on="0"/>
        <pt x="217" y="613" on="0"/>
        <pt x="215" y="600" on="1"/>
        <pt x="214" y="593" on="0"/>
        <pt x="217" y="545" on="1"/>
        <pt x="223" y="443" on="0"/>
        <pt x="247" y="145" on="1"/>
        <pt x="476" y="629" on="1"/>
        <pt x="483" y="643" on="0"/>
        <pt x="508" y="662" on="0"/>
        <pt x="516" y="662" on="1"/>
        <pt x="520" y="662" on="0"/>
        <pt x="524" y="646" on="1"/>
        <pt x="529" y="594" on="0"/>
        <pt x="583" y="144" on="1"/>
        <pt x="754" y="524" on="1"/>
        <pt x="773" y="566" on="0"/>
        <pt x="778" y="594" on="1"/>
        <pt x="781" y="608" on="0"/>
        <pt x="756" y="628" on="0"/>
        <pt x="731" y="633" on="0"/>
        <pt x="722" y="633" on="1"/>
        <pt x="719" y="634" on="0"/>
        <pt x="724" y="658" on="0"/>
        <pt x="728" y="662" on="1"/>
        <pt x="813" y="657" on="0"/>
        <pt x="827" y="657" on="1"/>
        <pt x="846" y="657" on="0"/>
        <pt x="874" y="659" on="0"/>
        <pt x="905" y="661" on="0"/>
        <pt x="919" y="662" on="1"/>
        <pt x="920" y="658" on="0"/>
        <pt x="914" y="633" on="0"/>
        <pt x="912" y="633" on="1"/>
        <pt x="904" y="633" on="0"/>
        <pt x="861" y="618" on="0"/>
        <pt x="847" y="607" on="1"/>
        <pt x="827" y="591" on="0"/>
        <pt x="799" y="531" on="1"/>
        <pt x="566" y="32" on="1"/>
        <pt x="560" y="19" on="0"/>
        <pt x="533" y="-2" on="0"/>
        <pt x="524" y="-2" on="1"/>
        <pt x="518" y="-2" on="0"/>
        <pt x="518" y="14" on="1"/>
        <pt x="510" y="86" on="0"/>
        <pt x="457" y="511" on="1"/>
        <pt x="229" y="32" on="1"/>
        <pt x="223" y="19" on="0"/>
        <pt x="197" y="-2" on="0"/>
        <pt x="188" y="-2" on="1"/>
        <pt x="181" y="-2" on="0"/>
        <pt x="181" y="14" on="1"/>
        <pt x="133" y="532" on="1"/>
        <pt x="133" y="536" on="0"/>
        <pt x="131" y="556" on="0"/>
        <pt x="131" y="563" on="0"/>
        <pt x="129" y="578" on="0"/>
        <pt x="128" y="584" on="0"/>
        <pt x="126" y="595" on="0"/>
        <pt x="123" y="602" on="0"/>
        <pt x="119" y="610" on="0"/>
        <pt x="116" y="613" on="1"/>
        <pt x="109" y="622" on="0"/>
        <pt x="76" y="633" on="0"/>
        <pt x="65" y="633" on="1"/>
        <pt x="64" y="633" on="0"/>
        <pt x="66" y="647" on="0"/>
        <pt x="70" y="661" on="0"/>
        <pt x="71" y="662" on="1"/>
        <pt x="86" y="661" on="0"/>
        <pt x="123" y="659" on="0"/>
        <pt x="153" y="657" on="0"/>
      </contour>
    </TTGlyph>
    <TTGlyph name="Wacute" xMin="65" yMin="-2" xMax="919" yMax="834">
      <component glyphName="W" x="0" y="0" flags="0x1204"/>
      <component glyphName="acutecomb.cap" x="343" y="32" flags="0x1004"/>
    </TTGlyph>
    <TTGlyph name="Wcircumflex" xMin="65" yMin="-2" xMax="919" yMax="836">
      <component glyphName="W" x="0" y="0" flags="0x1204"/>
      <component glyphName="uni0302.cap" x="251" y="0" flags="0x1004"/>
    </TTGlyph>
    <TTGlyph name="Wdieresis" xMin="65" yMin="-2" xMax="919" yMax="826">
      <component glyphName="W" x="0" y="0" flags="0x1204"/>
      <component glyphName="uni0308.cap" x="229" y="14" flags="0x1004"/>
    </TTGlyph>
    <TTGlyph name="Wgrave" xMin="65" yMin="-2" xMax="919" yMax="834">
      <component glyphName="W" x="0" y="0" flags="0x1204"/>
      <component glyphName="gravecomb.cap" x="214" y="32" flags="0x1004"/>
    </TTGlyph>
    <TTGlyph name="X" xMin="-59" yMin="-3" xMax="679" yMax="662">
      <contour>
        <pt x="224" y="657" on="1"/>
        <pt x="249" y="657" on="0"/>
        <pt x="344" y="662" on="1"/>
        <pt x="345" y="657" on="0"/>
        <pt x="340" y="633" on="0"/>
        <pt x="337" y="633" on="1"/>
        <pt x="320" y="633" on="0"/>
        <pt x="278" y="618" on="0"/>
        <pt x="275" y="601" on="1"/>
        <pt x="272" y="590" on="0"/>
        <pt x="280" y="571" on="1"/>
        <pt x="354" y="392" on="1"/>
        <pt x="508" y="566" on="0"/>
        <pt x="526" y="592" on="1"/>
        <pt x="533" y="603" on="0"/>
        <pt x="534" y="608" on="1"/>
        <pt x="535" y="612" on="0"/>
        <pt x="527" y="622" on="0"/>
        <pt x="497" y="632" on="0"/>
        <pt x="473" y="632" on="1"/>
        <pt x="470" y="633" on="0"/>
        <pt x="474" y="655" on="0"/>
        <pt x="477" y="661" on="1"/>
        <pt x="539" y="656" on="0"/>
        <pt x="576" y="656" on="1"/>
        <pt x="622" y="656" on="0"/>
        <pt x="679" y="661" on="1"/>
        <pt x="681" y="657" on="0"/>
        <pt x="676" y="636" on="0"/>
        <pt x="671" y="632" on="1"/>
        <pt x="664" y="632" on="0"/>
        <pt x="640" y="628" on="0"/>
        <pt x="596" y="608" on="0"/>
        <pt x="581" y="592" on="1"/>
        <pt x="368" y="361" on="1"/>
        <pt x="491" y="66" on="1"/>
        <pt x="508" y="26" on="0"/>
        <pt x="574" y="26" on="1"/>
        <pt x="579" y="17" on="0"/>
        <pt x="569" y="-3" on="1"/>
        <pt x="476" y="2" on="0"/>
        <pt x="475" y="2" on="1"/>
        <pt x="468" y="2" on="0"/>
        <pt x="338" y="-3" on="1"/>
        <pt x="335" y="1" on="0"/>
        <pt x="339" y="26" on="0"/>
        <pt x="343" y="26" on="1"/>
        <pt x="356" y="26" on="0"/>
        <pt x="400" y="42" on="0"/>
        <pt x="403" y="54" on="1"/>
        <pt x="404" y="57" on="0"/>
        <pt x="401" y="66" on="1"/>
        <pt x="305" y="300" on="1"/>
        <pt x="203" y="185" on="0"/>
        <pt x="106" y="66" on="1"/>
        <pt x="99" y="55" on="0"/>
        <pt x="98" y="50" on="1"/>
        <pt x="97" y="46" on="0"/>
        <pt x="108" y="36" on="0"/>
        <pt x="140" y="26" on="0"/>
        <pt x="164" y="26" on="1"/>
        <pt x="166" y="22" on="0"/>
        <pt x="162" y="0" on="0"/>
        <pt x="160" y="-3" on="1"/>
        <pt x="75" y="2" on="0"/>
        <pt x="56" y="2" on="1"/>
        <pt x="36" y="2" on="0"/>
        <pt x="-59" y="-3" on="1"/>
        <pt x="-60" y="1" on="0"/>
        <pt x="-54" y="23" on="0"/>
        <pt x="-52" y="26" on="1"/>
        <pt x="-44" y="26" on="0"/>
        <pt x="-14" y="30" on="0"/>
        <pt x="37" y="50" on="0"/>
        <pt x="52" y="66" on="1"/>
        <pt x="289" y="332" on="1"/>
        <pt x="200" y="548" on="1"/>
        <pt x="181" y="597" on="0"/>
        <pt x="152" y="617" on="1"/>
        <pt x="130" y="633" on="0"/>
        <pt x="103" y="633" on="1"/>
        <pt x="101" y="634" on="0"/>
        <pt x="101" y="645" on="0"/>
        <pt x="106" y="660" on="0"/>
        <pt x="109" y="662" on="1"/>
        <pt x="222" y="657" on="0"/>
      </contour>
    </TTGlyph>
    <TTGlyph name="Xi" xMin="-15" yMin="0" xMax="465" yMax="662">
      <contour>
        <pt x="206" y="661" on="1"/>
        <pt x="319" y="661" on="0"/>
        <pt x="423" y="662" on="1"/>
        <pt x="452" y="620" on="0"/>
        <pt x="465" y="546" on="1"/>
        <pt x="462" y="539" on="0"/>
        <pt x="442" y="528" on="0"/>
        <pt x="436" y="530" on="1"/>
        <pt x="398" y="617" on="0"/>
        <pt x="294" y="617" on="1"/>
        <pt x="238" y="617" on="1"/>
        <pt x="199" y="617" on="0"/>
        <pt x="134" y="581" on="0"/>
        <pt x="125" y="536" on="1"/>
        <pt x="122" y="532" on="0"/>
        <pt x="103" y="526" on="0"/>
        <pt x="99" y="529" on="1"/>
        <pt x="93" y="566" on="0"/>
        <pt x="93" y="632" on="1"/>
        <pt x="135" y="661" on="0"/>
      </contour>
      <contour>
        <pt x="209" y="358" on="1"/>
        <pt x="258" y="358" on="0"/>
        <pt x="315" y="374" on="0"/>
        <pt x="339" y="397" on="1"/>
        <pt x="342" y="400" on="0"/>
        <pt x="347" y="395" on="1"/>
        <pt x="361" y="360" on="0"/>
        <pt x="369" y="297" on="1"/>
        <pt x="369" y="286" on="0"/>
        <pt x="352" y="280" on="1"/>
        <pt x="349" y="283" on="0"/>
        <pt x="332" y="296" on="0"/>
        <pt x="328" y="299" on="0"/>
        <pt x="315" y="308" on="0"/>
        <pt x="309" y="310" on="0"/>
        <pt x="295" y="315" on="0"/>
        <pt x="283" y="316" on="0"/>
        <pt x="265" y="317" on="0"/>
        <pt x="254" y="317" on="1"/>
        <pt x="205" y="317" on="0"/>
        <pt x="147" y="301" on="0"/>
        <pt x="123" y="278" on="1"/>
        <pt x="120" y="276" on="0"/>
        <pt x="116" y="280" on="1"/>
        <pt x="102" y="315" on="0"/>
        <pt x="94" y="378" on="1"/>
        <pt x="94" y="389" on="0"/>
        <pt x="111" y="395" on="1"/>
        <pt x="114" y="392" on="0"/>
        <pt x="131" y="379" on="0"/>
        <pt x="135" y="376" on="0"/>
        <pt x="148" y="367" on="0"/>
        <pt x="154" y="365" on="0"/>
        <pt x="168" y="360" on="0"/>
        <pt x="180" y="359" on="0"/>
        <pt x="198" y="358" on="0"/>
      </contour>
      <contour>
        <pt x="204" y="43" on="1"/>
        <pt x="260" y="43" on="0"/>
        <pt x="363" y="92" on="0"/>
        <pt x="405" y="132" on="0"/>
        <pt x="413" y="144" on="1"/>
        <pt x="418" y="142" on="0"/>
        <pt x="421" y="126" on="0"/>
        <pt x="420" y="121" on="1"/>
        <pt x="416" y="104" on="0"/>
        <pt x="338" y="0" on="0"/>
        <pt x="309" y="0" on="1"/>
        <pt x="113" y="0" on="1"/>
        <pt x="31" y="0" on="0"/>
        <pt x="-10" y="18" on="1"/>
        <pt x="-14" y="34" on="0"/>
        <pt x="-16" y="116" on="0"/>
        <pt x="-10" y="144" on="1"/>
        <pt x="-7" y="147" on="0"/>
        <pt x="16" y="137" on="0"/>
        <pt x="17" y="133" on="1"/>
        <pt x="33" y="75" on="0"/>
        <pt x="109" y="43" on="0"/>
      </contour>
    </TTGlyph>
    <TTGlyph name="Y" xMin="57" yMin="-3" xMax="635" yMax="662">
      <contour>
        <pt x="211" y="116" on="1"/>
        <pt x="240" y="267" on="1"/>
        <pt x="242" y="284" on="0"/>
        <pt x="239" y="295" on="1"/>
        <pt x="156" y="548" on="1"/>
        <pt x="141" y="594" on="0"/>
        <pt x="108" y="617" on="1"/>
        <pt x="86" y="633" on="0"/>
        <pt x="59" y="633" on="1"/>
        <pt x="57" y="634" on="0"/>
        <pt x="57" y="645" on="0"/>
        <pt x="62" y="660" on="0"/>
        <pt x="65" y="662" on="1"/>
        <pt x="178" y="657" on="0"/>
        <pt x="180" y="657" on="1"/>
        <pt x="205" y="657" on="0"/>
        <pt x="300" y="662" on="1"/>
        <pt x="301" y="657" on="0"/>
        <pt x="296" y="633" on="0"/>
        <pt x="293" y="633" on="1"/>
        <pt x="276" y="633" on="0"/>
        <pt x="234" y="618" on="0"/>
        <pt x="231" y="601" on="1"/>
        <pt x="229" y="593" on="0"/>
        <pt x="236" y="571" on="1"/>
        <pt x="317" y="331" on="1"/>
        <pt x="453" y="521" on="0"/>
        <pt x="492" y="592" on="1"/>
        <pt x="497" y="599" on="0"/>
        <pt x="498" y="607" on="1"/>
        <pt x="499" y="611" on="0"/>
        <pt x="490" y="622" on="0"/>
        <pt x="459" y="632" on="0"/>
        <pt x="435" y="632" on="1"/>
        <pt x="433" y="634" on="0"/>
        <pt x="437" y="658" on="0"/>
        <pt x="439" y="661" on="1"/>
        <pt x="524" y="656" on="0"/>
        <pt x="540" y="656" on="0"/>
        <pt x="635" y="661" on="1"/>
        <pt x="635" y="658" on="0"/>
        <pt x="629" y="632" on="0"/>
        <pt x="627" y="632" on="1"/>
        <pt x="567" y="632" on="0"/>
        <pt x="538" y="592" on="1"/>
        <pt x="333" y="301" on="1"/>
        <pt x="329" y="295" on="0"/>
        <pt x="323" y="270" on="1"/>
        <pt x="292" y="116" on="1"/>
        <pt x="280" y="57" on="0"/>
        <pt x="282" y="42" on="1"/>
        <pt x="283" y="35" on="0"/>
        <pt x="329" y="26" on="0"/>
        <pt x="343" y="26" on="1"/>
        <pt x="345" y="22" on="0"/>
        <pt x="342" y="1" on="0"/>
        <pt x="338" y="-3" on="1"/>
        <pt x="243" y="2" on="0"/>
        <pt x="230" y="2" on="1"/>
        <pt x="216" y="2" on="0"/>
        <pt x="119" y="-3" on="1"/>
        <pt x="116" y="1" on="0"/>
        <pt x="121" y="22" on="0"/>
        <pt x="125" y="26" on="1"/>
        <pt x="139" y="26" on="0"/>
        <pt x="189" y="35" on="0"/>
        <pt x="192" y="42" on="1"/>
        <pt x="199" y="56" on="0"/>
      </contour>
    </TTGlyph>
    <TTGlyph name="Yacute" xMin="59" yMin="-3" xMax="635" yMax="819">
      <component glyphName="Y" x="0" y="0" flags="0x1204"/>
      <component glyphName="acutecomb.cap" x="183" y="17" flags="0x1004"/>
    </TTGlyph>
    <TTGlyph name="Ycircumflex" xMin="59" yMin="-3" xMax="635" yMax="836">
      <component glyphName="Y" x="0" y="0" flags="0x1204"/>
      <component glyphName="uni0302.cap" x="91" y="0" flags="0x1004"/>
    </TTGlyph>
    <TTGlyph name="Ydieresis" xMin="59" yMin="-3" xMax="635" yMax="828">
      <component glyphName="Y" x="0" y="0" flags="0x1204"/>
      <component glyphName="uni0308.cap" x="79" y="16" flags="0x1004"/>
    </TTGlyph>
    <TTGlyph name="Ygrave" xMin="59" yMin="-3" xMax="635" yMax="834">
      <component glyphName="gravecomb.cap" x="80" y="32" flags="0x1004"/>
      <component glyphName="Y" x="0" y="0" flags="0x1204"/>
    </TTGlyph>
    <TTGlyph name="Z" xMin="-10" yMin="0" xMax="620" yMax="671">
      <contour>
        <pt x="279" y="629" on="1"/>
        <pt x="233" y="629" on="0"/>
        <pt x="153" y="555" on="0"/>
        <pt x="125" y="492" on="1"/>
        <pt x="122" y="488" on="0"/>
        <pt x="114" y="488" on="1"/>
        <pt x="96" y="488" on="0"/>
        <pt x="91" y="496" on="1"/>
        <pt x="123" y="555" on="0"/>
        <pt x="155" y="669" on="1"/>
        <pt x="206" y="661" on="0"/>
        <pt x="230" y="661" on="1"/>
        <pt x="411" y="661" on="1"/>
        <pt x="476" y="661" on="0"/>
        <pt x="608" y="671" on="1"/>
        <pt x="612" y="670" on="0"/>
        <pt x="621" y="654" on="0"/>
        <pt x="620" y="649" on="1"/>
        <pt x="618" y="645" on="0"/>
        <pt x="452" y="442" on="0"/>
        <pt x="198" y="141" on="0"/>
        <pt x="103" y="32" on="1"/>
        <pt x="347" y="32" on="1"/>
        <pt x="408" y="32" on="0"/>
        <pt x="457" y="85" on="1"/>
        <pt x="466" y="95" on="0"/>
        <pt x="485" y="121" on="0"/>
        <pt x="493" y="136" on="0"/>
        <pt x="512" y="170" on="0"/>
        <pt x="513" y="172" on="1"/>
        <pt x="514" y="175" on="0"/>
        <pt x="526" y="175" on="1"/>
        <pt x="540" y="175" on="0"/>
        <pt x="547" y="166" on="1"/>
        <pt x="500" y="68" on="0"/>
        <pt x="474" y="0" on="1"/>
        <pt x="4" y="0" on="1"/>
        <pt x="-4" y="0" on="0"/>
        <pt x="-14" y="10" on="0"/>
        <pt x="-10" y="14" on="1"/>
        <pt x="508" y="630" on="1"/>
      </contour>
    </TTGlyph>
    <TTGlyph name="Zacute" xMin="-10" yMin="0" xMax="620" yMax="819">
      <component glyphName="Z" x="0" y="0" flags="0x1204"/>
      <component glyphName="acutecomb.cap" x="185" y="17" flags="0x1004"/>
    </TTGlyph>
    <TTGlyph name="Zcaron" xMin="-10" yMin="0" xMax="620" yMax="836">
      <component glyphName="Z" x="0" y="0" flags="0x1204"/>
      <component glyphName="uni030C.cap" x="112" y="0" flags="0x1004"/>
    </TTGlyph>
    <TTGlyph name="Zdotaccent" xMin="-10" yMin="0" xMax="620" yMax="828">
      <component glyphName="Z" x="0" y="0" flags="0x1204"/>
      <component glyphName="uni0307.cap" x="128" y="17" flags="0x1004"/>
    </TTGlyph>
    <TTGlyph name="Zeta" xMin="-9" yMin="0" xMax="533" yMax="672">
      <contour>
        <pt x="108" y="550" on="1"/>
        <pt x="105" y="549" on="0"/>
        <pt x="95" y="550" on="0"/>
        <pt x="86" y="555" on="0"/>
        <pt x="86" y="557" on="1"/>
        <pt x="125" y="633" on="0"/>
        <pt x="162" y="663" on="1"/>
        <pt x="176" y="661" on="0"/>
        <pt x="199" y="661" on="1"/>
        <pt x="357" y="661" on="1"/>
        <pt x="445" y="661" on="0"/>
        <pt x="526" y="672" on="1"/>
        <pt x="537" y="663" on="0"/>
        <pt x="533" y="648" on="1"/>
        <pt x="88" y="50" on="1"/>
        <pt x="147" y="40" on="0"/>
        <pt x="254" y="40" on="1"/>
        <pt x="314" y="40" on="0"/>
        <pt x="412" y="90" on="0"/>
        <pt x="437" y="119" on="1"/>
        <pt x="442" y="117" on="0"/>
        <pt x="446" y="101" on="0"/>
        <pt x="445" y="96" on="1"/>
        <pt x="441" y="79" on="0"/>
        <pt x="382" y="0" on="0"/>
        <pt x="353" y="0" on="1"/>
        <pt x="54" y="0" on="1"/>
        <pt x="29" y="0" on="0"/>
        <pt x="-12" y="21" on="0"/>
        <pt x="-9" y="36" on="1"/>
        <pt x="22" y="68" on="0"/>
        <pt x="63" y="115" on="0"/>
        <pt x="103" y="165" on="0"/>
        <pt x="126" y="196" on="0"/>
        <pt x="180" y="271" on="0"/>
        <pt x="200" y="298" on="1"/>
        <pt x="299" y="431" on="0"/>
        <pt x="439" y="621" on="1"/>
        <pt x="394" y="623" on="0"/>
        <pt x="236" y="615" on="1"/>
        <pt x="184" y="612" on="0"/>
      </contour>
    </TTGlyph>
    <TTGlyph name="a" xMin="19" yMin="-6" xMax="408" yMax="435">
      <contour>
        <pt x="305" y="435" on="1"/>
        <pt x="348" y="435" on="0"/>
        <pt x="383" y="422" on="1"/>
        <pt x="322" y="106" on="1"/>
        <pt x="308" y="49" on="0"/>
        <pt x="328" y="49" on="1"/>
        <pt x="333" y="49" on="0"/>
        <pt x="348" y="57" on="0"/>
        <pt x="362" y="69" on="0"/>
        <pt x="378" y="85" on="0"/>
        <pt x="389" y="97" on="0"/>
        <pt x="394" y="102" on="1"/>
        <pt x="398" y="107" on="1"/>
        <pt x="400" y="107" on="0"/>
        <pt x="408" y="92" on="0"/>
        <pt x="408" y="88" on="1"/>
        <pt x="396" y="67" on="0"/>
        <pt x="308" y="-6" on="0"/>
        <pt x="277" y="-6" on="1"/>
        <pt x="261" y="-6" on="0"/>
        <pt x="243" y="23" on="0"/>
        <pt x="243" y="46" on="1"/>
        <pt x="243" y="62" on="0"/>
        <pt x="250" y="99" on="1"/>
        <pt x="254" y="123" on="0"/>
        <pt x="255" y="130" on="1"/>
        <pt x="232" y="88" on="0"/>
        <pt x="146" y="-5" on="0"/>
        <pt x="108" y="-5" on="1"/>
        <pt x="68" y="-5" on="0"/>
        <pt x="19" y="60" on="0"/>
        <pt x="19" y="113" on="1"/>
        <pt x="19" y="176" on="0"/>
        <pt x="74" y="297" on="0"/>
        <pt x="158" y="382" on="0"/>
        <pt x="260" y="435" on="0"/>
      </contour>
      <contour>
        <pt x="259" y="395" on="1"/>
        <pt x="201" y="395" on="0"/>
        <pt x="93" y="237" on="0"/>
        <pt x="93" y="151" on="1"/>
        <pt x="93" y="53" on="0"/>
        <pt x="144" y="53" on="1"/>
        <pt x="180" y="53" on="0"/>
        <pt x="269" y="199" on="0"/>
        <pt x="284" y="274" on="1"/>
        <pt x="305" y="380" on="1"/>
        <pt x="292" y="395" on="0"/>
      </contour>
    </TTGlyph>
    <TTGlyph name="a.sc" xMin="-39" yMin="-3" xMax="383" yMax="452">
      <contour>
        <pt x="378" y="-3" on="1"/>
        <pt x="332" y="1" on="0"/>
        <pt x="256" y="1" on="0"/>
        <pt x="202" y="-3" on="1"/>
        <pt x="200" y="0" on="0"/>
        <pt x="205" y="23" on="0"/>
        <pt x="208" y="26" on="1"/>
        <pt x="246" y="26" on="0"/>
        <pt x="256" y="34" on="1"/>
        <pt x="258" y="36" on="0"/>
        <pt x="260" y="43" on="1"/>
        <pt x="262" y="51" on="0"/>
        <pt x="254" y="112" on="0"/>
        <pt x="250" y="138" on="1"/>
        <pt x="245" y="164" on="1"/>
        <pt x="244" y="166" on="0"/>
        <pt x="242" y="166" on="1"/>
        <pt x="234" y="167" on="0"/>
        <pt x="185" y="167" on="1"/>
        <pt x="153" y="167" on="0"/>
        <pt x="126" y="164" on="1"/>
        <pt x="124" y="163" on="1"/>
        <pt x="98" y="116" on="0"/>
        <pt x="83" y="86" on="1"/>
        <pt x="70" y="60" on="0"/>
        <pt x="66" y="44" on="1"/>
        <pt x="65" y="37" on="0"/>
        <pt x="85" y="28" on="0"/>
        <pt x="103" y="26" on="0"/>
        <pt x="108" y="26" on="1"/>
        <pt x="109" y="24" on="0"/>
        <pt x="106" y="1" on="0"/>
        <pt x="104" y="-3" on="1"/>
        <pt x="58" y="1" on="0"/>
        <pt x="38" y="1" on="1"/>
        <pt x="15" y="1" on="0"/>
        <pt x="-39" y="-3" on="1"/>
        <pt x="-41" y="-1" on="0"/>
        <pt x="-37" y="21" on="0"/>
        <pt x="-34" y="26" on="1"/>
        <pt x="1" y="26" on="0"/>
        <pt x="13" y="39" on="1"/>
        <pt x="32" y="61" on="0"/>
        <pt x="52" y="99" on="1"/>
        <pt x="171" y="314" on="0"/>
        <pt x="227" y="419" on="1"/>
        <pt x="231" y="427" on="0"/>
        <pt x="266" y="452" on="0"/>
        <pt x="270" y="452" on="1"/>
        <pt x="271" y="452" on="0"/>
        <pt x="273" y="449" on="0"/>
        <pt x="274" y="449" on="1"/>
        <pt x="326" y="62" on="0"/>
        <pt x="329" y="49" on="1"/>
        <pt x="331" y="39" on="0"/>
        <pt x="374" y="26" on="0"/>
        <pt x="383" y="26" on="1"/>
        <pt x="385" y="19" on="0"/>
      </contour>
      <contour>
        <pt x="146" y="207" on="1"/>
        <pt x="176" y="205" on="0"/>
        <pt x="192" y="205" on="1"/>
        <pt x="213" y="205" on="0"/>
        <pt x="240" y="208" on="1"/>
        <pt x="242" y="210" on="1"/>
        <pt x="222" y="351" on="1"/>
        <pt x="145" y="209" on="1"/>
        <pt x="145" y="207" on="0"/>
      </contour>
    </TTGlyph>
    <TTGlyph name="aacute" xMin="19" yMin="-6" xMax="413" yMax="633">
      <component glyphName="a" x="0" y="0" flags="0x1004"/>
      <component glyphName="acutecomb" x="575" y="12" flags="0x1004"/>
    </TTGlyph>
    <TTGlyph name="aacute.sc" xMin="-39" yMin="-3" xMax="393" yMax="659">
      <component glyphName="a.sc" x="0" y="0" flags="0x1004"/>
      <component glyphName="acutecomb" x="555" y="38" flags="0x1004"/>
    </TTGlyph>
    <TTGlyph name="abreve" xMin="19" yMin="-6" xMax="408" yMax="614">
      <component glyphName="a" x="0" y="0" flags="0x1004"/>
      <component glyphName="uni0306" x="531" y="6" flags="0x1004"/>
    </TTGlyph>
    <TTGlyph name="abreve.sc" xMin="-39" yMin="-3" xMax="398" yMax="640">
      <component glyphName="a.sc" x="0" y="0" flags="0x1004"/>
      <component glyphName="uni0306" x="530" y="32" flags="0x1004"/>
    </TTGlyph>
    <TTGlyph name="acircumflex" xMin="19" yMin="-6" xMax="408" yMax="629">
      <component glyphName="uni0302" x="536" y="4" flags="0x1004"/>
      <component glyphName="a" x="0" y="0" flags="0x1004"/>
    </TTGlyph>
    <TTGlyph name="acircumflex.sc" xMin="-39" yMin="-3" xMax="383" yMax="655">
      <component glyphName="uni0302" x="528" y="30" flags="0x1004"/>
      <component glyphName="a.sc" x="0" y="0" flags="0x1004"/>
    </TTGlyph>
    <TTGlyph name="acute" xMin="10" yMin="490" xMax="181" yMax="621">
      <component glyphName="acutecomb" x="343" y="0" flags="0x1004"/>
    </TTGlyph>
    <TTGlyph name="acutecomb" xMin="-333" yMin="490" xMax="-162" yMax="621">
      <contour>
        <pt x="-325" y="490" on="1"/>
        <pt x="-327" y="490" on="0"/>
        <pt x="-333" y="498" on="0"/>
        <pt x="-333" y="500" on="1"/>
        <pt x="-333" y="506" on="0"/>
        <pt x="-248" y="604" on="0"/>
        <pt x="-238" y="611" on="1"/>
        <pt x="-224" y="621" on="0"/>
        <pt x="-201" y="621" on="1"/>
        <pt x="-188" y="621" on="0"/>
        <pt x="-162" y="606" on="0"/>
        <pt x="-162" y="591" on="1"/>
        <pt x="-162" y="578" on="0"/>
        <pt x="-312" y="490" on="0"/>
      </contour>
    </TTGlyph>
    <TTGlyph name="acutecomb.cap" xMin="150" yMin="694" xMax="331" yMax="802">
      <contour>
        <pt x="156" y="694" on="1"/>
        <pt x="155" y="694" on="0"/>
        <pt x="150" y="702" on="0"/>
        <pt x="150" y="704" on="1"/>
        <pt x="150" y="709" on="0"/>
        <pt x="237" y="785" on="0"/>
        <pt x="256" y="797" on="1"/>
        <pt x="264" y="802" on="0"/>
        <pt x="283" y="802" on="1"/>
        <pt x="304" y="802" on="0"/>
        <pt x="331" y="789" on="0"/>
        <pt x="331" y="780" on="1"/>
        <pt x="331" y="764" on="0"/>
        <pt x="172" y="694" on="0"/>
      </contour>
    </TTGlyph>
    <TTGlyph name="adieresis" xMin="19" yMin="-6" xMax="408" yMax="603">
      <component glyphName="a" x="0" y="0" flags="0x1004"/>
      <component glyphName="uni0308" x="530" y="21" flags="0x1004"/>
    </TTGlyph>
    <TTGlyph name="adieresis.sc" xMin="-39" yMin="-3" xMax="400" yMax="618">
      <component glyphName="a.sc" x="0" y="0" flags="0x1004"/>
      <component glyphName="uni0308" x="525" y="36" flags="0x1004"/>
    </TTGlyph>
    <TTGlyph name="ae" xMin="6" yMin="-8" xMax="536" yMax="435">
      <contour>
        <pt x="421" y="394" on="1"/>
        <pt x="377" y="394" on="0"/>
        <pt x="314" y="291" on="0"/>
        <pt x="306" y="230" on="1"/>
        <pt x="345" y="230" on="0"/>
        <pt x="462" y="305" on="0"/>
        <pt x="462" y="354" on="1"/>
        <pt x="462" y="372" on="0"/>
        <pt x="437" y="394" on="0"/>
      </contour>
      <contour>
        <pt x="217" y="108" on="1"/>
        <pt x="232" y="201" on="1"/>
        <pt x="166" y="188" on="0"/>
        <pt x="134" y="170" on="1"/>
        <pt x="82" y="143" on="0"/>
        <pt x="82" y="101" on="1"/>
        <pt x="82" y="77" on="0"/>
        <pt x="107" y="46" on="0"/>
        <pt x="127" y="46" on="1"/>
        <pt x="148" y="46" on="0"/>
        <pt x="216" y="99" on="0"/>
      </contour>
      <contour>
        <pt x="251" y="435" on="1"/>
        <pt x="280" y="435" on="0"/>
        <pt x="320" y="394" on="0"/>
        <pt x="323" y="366" on="1"/>
        <pt x="349" y="395" on="0"/>
        <pt x="429" y="435" on="0"/>
        <pt x="468" y="435" on="1"/>
        <pt x="536" y="435" on="0"/>
        <pt x="536" y="370" on="1"/>
        <pt x="536" y="311" on="0"/>
        <pt x="370" y="208" on="0"/>
        <pt x="301" y="199" on="1"/>
        <pt x="297" y="175" on="0"/>
        <pt x="297" y="158" on="1"/>
        <pt x="297" y="53" on="0"/>
        <pt x="367" y="53" on="1"/>
        <pt x="375" y="53" on="0"/>
        <pt x="392" y="59" on="0"/>
        <pt x="408" y="68" on="0"/>
        <pt x="425" y="80" on="0"/>
        <pt x="439" y="92" on="0"/>
        <pt x="453" y="105" on="0"/>
        <pt x="462" y="114" on="0"/>
        <pt x="466" y="118" on="1"/>
        <pt x="469" y="122" on="1"/>
        <pt x="471" y="122" on="0"/>
        <pt x="480" y="108" on="0"/>
        <pt x="481" y="102" on="1"/>
        <pt x="451" y="60" on="0"/>
        <pt x="364" y="-6" on="0"/>
        <pt x="328" y="-6" on="1"/>
        <pt x="295" y="-6" on="0"/>
        <pt x="234" y="36" on="0"/>
        <pt x="224" y="70" on="1"/>
        <pt x="210" y="52" on="0"/>
        <pt x="109" y="-8" on="0"/>
        <pt x="90" y="-8" on="1"/>
        <pt x="55" y="-8" on="0"/>
        <pt x="6" y="36" on="0"/>
        <pt x="6" y="80" on="1"/>
        <pt x="6" y="111" on="0"/>
        <pt x="43" y="165" on="0"/>
        <pt x="65" y="180" on="1"/>
        <pt x="72" y="184" on="0"/>
        <pt x="136" y="205" on="0"/>
        <pt x="222" y="231" on="0"/>
        <pt x="232" y="234" on="1"/>
        <pt x="234" y="235" on="0"/>
        <pt x="237" y="239" on="0"/>
        <pt x="238" y="243" on="0"/>
        <pt x="240" y="254" on="0"/>
        <pt x="241" y="257" on="1"/>
        <pt x="252" y="317" on="1"/>
        <pt x="254" y="325" on="0"/>
        <pt x="254" y="338" on="1"/>
        <pt x="254" y="359" on="0"/>
        <pt x="223" y="397" on="0"/>
        <pt x="198" y="397" on="1"/>
        <pt x="177" y="397" on="0"/>
        <pt x="152" y="369" on="0"/>
        <pt x="141" y="339" on="1"/>
        <pt x="124" y="294" on="0"/>
        <pt x="90" y="294" on="1"/>
        <pt x="67" y="294" on="0"/>
        <pt x="67" y="323" on="1"/>
        <pt x="67" y="338" on="0"/>
        <pt x="78" y="356" on="1"/>
        <pt x="109" y="383" on="0"/>
        <pt x="208" y="435" on="0"/>
      </contour>
    </TTGlyph>
    <TTGlyph name="ae.sc" xMin="-39" yMin="-4" xMax="797" yMax="453">
      <component glyphName="e.sc" x="418" y="0" flags="0x1004"/>
      <component glyphName="a.sc" x="0" y="0" flags="0x1004"/>
    </TTGlyph>
    <TTGlyph name="aeacute.sc" xMin="-39" yMin="-4" xMax="797" yMax="634">
      <component glyphName="ae.sc" x="0" y="0" flags="0x1004"/>
      <component glyphName="acutecomb" x="898" y="13" flags="0x1004"/>
    </TTGlyph>
    <TTGlyph name="afii00208" xMin="53" yMin="200" xMax="1003" yMax="262">
      <contour>
        <pt x="997" y="262" on="1"/>
        <pt x="1003" y="262" on="0"/>
        <pt x="1003" y="249" on="1"/>
        <pt x="1003" y="238" on="0"/>
        <pt x="989" y="205" on="0"/>
        <pt x="981" y="200" on="1"/>
        <pt x="59" y="200" on="1"/>
        <pt x="53" y="200" on="0"/>
        <pt x="53" y="213" on="1"/>
        <pt x="53" y="224" on="0"/>
        <pt x="67" y="257" on="0"/>
        <pt x="75" y="262" on="1"/>
      </contour>
    </TTGlyph>
    <TTGlyph name="afii10017" xMin="-59" yMin="-3" xMax="547" yMax="663">
      <component glyphName="A" x="-4" y="0" flags="0x1204"/>
    </TTGlyph>
    <TTGlyph name="afii10018" xMin="-7" yMin="-3" xMax="525" yMax="664">
      <contour>
        <pt x="211" y="339" on="1"/>
        <pt x="166" y="114" on="1"/>
        <pt x="153" y="53" on="0"/>
        <pt x="160" y="43" on="1"/>
        <pt x="172" y="26" on="0"/>
        <pt x="231" y="26" on="1"/>
        <pt x="310" y="26" on="0"/>
        <pt x="409" y="129" on="0"/>
        <pt x="409" y="220" on="1"/>
        <pt x="409" y="236" on="0"/>
        <pt x="400" y="268" on="0"/>
        <pt x="374" y="312" on="0"/>
        <pt x="313" y="339" on="0"/>
        <pt x="268" y="339" on="1"/>
      </contour>
      <contour>
        <pt x="209" y="-3" on="1"/>
        <pt x="-6" y="-3" on="1"/>
        <pt x="-9" y="1" on="0"/>
        <pt x="-4" y="22" on="0"/>
        <pt x="0" y="26" on="1"/>
        <pt x="14" y="26" on="0"/>
        <pt x="64" y="35" on="0"/>
        <pt x="67" y="42" on="1"/>
        <pt x="77" y="62" on="0"/>
        <pt x="86" y="116" on="1"/>
        <pt x="170" y="543" on="1"/>
        <pt x="181" y="599" on="0"/>
        <pt x="179" y="617" on="1"/>
        <pt x="178" y="624" on="0"/>
        <pt x="132" y="633" on="0"/>
        <pt x="118" y="633" on="1"/>
        <pt x="116" y="637" on="0"/>
        <pt x="119" y="658" on="0"/>
        <pt x="123" y="662" on="1"/>
        <pt x="140" y="662" on="0"/>
        <pt x="210" y="659" on="0"/>
        <pt x="233" y="659" on="1"/>
        <pt x="275" y="659" on="0"/>
        <pt x="459" y="664" on="0"/>
        <pt x="511" y="664" on="1"/>
        <pt x="510" y="635" on="0"/>
        <pt x="525" y="518" on="0"/>
        <pt x="525" y="511" on="1"/>
        <pt x="519" y="505" on="0"/>
        <pt x="504" y="505" on="1"/>
        <pt x="492" y="505" on="0"/>
        <pt x="492" y="511" on="1"/>
        <pt x="488" y="568" on="0"/>
        <pt x="434" y="630" on="0"/>
        <pt x="395" y="630" on="1"/>
        <pt x="338" y="630" on="1"/>
        <pt x="278" y="630" on="0"/>
        <pt x="272" y="619" on="1"/>
        <pt x="261" y="598" on="0"/>
        <pt x="252" y="547" on="1"/>
        <pt x="218" y="370" on="1"/>
        <pt x="312" y="370" on="1"/>
        <pt x="410" y="370" on="0"/>
        <pt x="504" y="285" on="0"/>
        <pt x="504" y="213" on="1"/>
        <pt x="504" y="117" on="0"/>
        <pt x="337" y="-3" on="0"/>
      </contour>
    </TTGlyph>
    <TTGlyph name="afii10019" xMin="-6" yMin="-3" xMax="520" yMax="662">
      <component glyphName="B" x="-1" y="0" flags="0x1204"/>
    </TTGlyph>
    <TTGlyph name="afii10020" xMin="-5" yMin="-3" xMax="545" yMax="663">
      <contour>
        <pt x="-4" y="-3" on="1"/>
        <pt x="-7" y="1" on="0"/>
        <pt x="-3" y="22" on="0"/>
        <pt x="1" y="26" on="1"/>
        <pt x="15" y="26" on="0"/>
        <pt x="65" y="35" on="0"/>
        <pt x="68" y="42" on="1"/>
        <pt x="75" y="56" on="0"/>
        <pt x="87" y="116" on="1"/>
        <pt x="170" y="543" on="1"/>
        <pt x="181" y="609" on="0"/>
        <pt x="180" y="617" on="1"/>
        <pt x="179" y="624" on="0"/>
        <pt x="133" y="633" on="0"/>
        <pt x="119" y="633" on="1"/>
        <pt x="117" y="637" on="0"/>
        <pt x="120" y="658" on="0"/>
        <pt x="124" y="662" on="1"/>
        <pt x="141" y="662" on="0"/>
        <pt x="211" y="659" on="0"/>
        <pt x="234" y="659" on="1"/>
        <pt x="299" y="659" on="0"/>
        <pt x="479" y="663" on="0"/>
        <pt x="527" y="663" on="1"/>
        <pt x="526" y="643" on="0"/>
        <pt x="531" y="591" on="0"/>
        <pt x="544" y="507" on="0"/>
        <pt x="545" y="497" on="1"/>
        <pt x="539" y="491" on="0"/>
        <pt x="520" y="491" on="1"/>
        <pt x="508" y="491" on="0"/>
        <pt x="508" y="497" on="1"/>
        <pt x="501" y="571" on="0"/>
        <pt x="469" y="598" on="1"/>
        <pt x="438" y="625" on="0"/>
        <pt x="366" y="625" on="1"/>
        <pt x="338" y="625" on="1"/>
        <pt x="284" y="625" on="0"/>
        <pt x="270" y="615" on="1"/>
        <pt x="266" y="612" on="0"/>
        <pt x="252" y="543" on="1"/>
        <pt x="169" y="116" on="1"/>
        <pt x="157" y="57" on="0"/>
        <pt x="159" y="42" on="1"/>
        <pt x="160" y="35" on="0"/>
        <pt x="206" y="26" on="0"/>
        <pt x="220" y="26" on="1"/>
        <pt x="222" y="22" on="0"/>
        <pt x="218" y="1" on="0"/>
        <pt x="214" y="-3" on="1"/>
        <pt x="119" y="2" on="0"/>
        <pt x="107" y="2" on="1"/>
        <pt x="94" y="2" on="0"/>
      </contour>
    </TTGlyph>
</ttFont>
